<svg width="287" height="256" viewBox="0 0 287 256" fill="none" xmlns="http://www.w3.org/2000/svg">
<g clip-path="url(#clip0_438_8872)">
<path opacity="0.5" d="M185.772 16.103C185.772 17.2334 184.933 18.1651 183.859 18.2244C178.555 18.5164 163.612 19.3418 156.934 19.7488C155.618 19.829 154.584 18.5861 154.833 17.2256L154.876 16.9938C155.047 16.0655 155.78 15.3674 156.676 15.2811C161.19 14.8471 174.811 13.6417 183.835 13.9807C184.919 14.0199 185.772 14.963 185.772 16.103Z" fill="white"/>
<path opacity="0.13" d="M244.287 214.49C238.753 219.721 233.515 223.095 229.378 225.76C180.742 257.09 123.194 247.958 110.963 245.728C92.902 242.434 57.9911 236.068 32.751 209.419C-5.43622 169.101 0.510725 105.581 30.1299 63.6518C35.5478 55.982 64.1671 13.4135 122.336 6.58646C157.539 2.45521 198.574 10.7874 228.291 33.1398C290.67 80.0601 286.228 174.847 244.287 214.49Z" fill="url(#paint0_linear_438_8872)"/>
<path d="M278.42 74.033C278.398 73.1231 277.437 72.3901 276.258 72.3901H204.762C203.567 72.3901 202.298 73.1449 202.298 74.0679V202.926C202.298 203.615 202.803 204.276 203.435 204.762C204.066 205.248 204.997 205.52 205.889 205.519L278.168 205.366C279.067 205.364 279.947 205.084 280.577 204.587C281.206 204.09 281.56 203.418 281.543 202.723L278.42 74.033Z" fill="url(#paint1_linear_438_8872)"/>
<path d="M237.362 81.5224L213.974 81.4597L213.983 79.1997L237.344 79.2572L237.362 81.5224Z" fill="url(#paint2_linear_438_8872)"/>
<path d="M237.426 89.846L213.942 89.7632L213.95 87.4849L237.408 87.5624L237.426 89.846Z" fill="url(#paint3_linear_438_8872)"/>
<path d="M237.491 98.2382L213.91 98.1354L213.918 95.8379L237.473 95.9355L237.491 98.2382Z" fill="url(#paint4_linear_438_8872)"/>
<path d="M237.556 106.702L213.877 106.577L213.886 104.261L237.538 104.38L237.556 106.702Z" fill="url(#paint5_linear_438_8872)"/>
<path d="M237.622 115.234L213.844 115.089L213.853 112.753L237.603 112.892L237.622 115.234Z" fill="url(#paint6_linear_438_8872)"/>
<path d="M237.755 132.515L213.778 132.326L213.786 129.951L237.736 130.134L237.755 132.515Z" fill="url(#paint7_linear_438_8872)"/>
<path d="M237.958 158.988L213.676 158.73L213.685 156.295L237.94 156.546L237.958 158.988Z" fill="url(#paint8_linear_438_8872)"/>
<path d="M237.688 123.838L213.811 123.671L213.82 121.316L237.669 121.477L237.688 123.838Z" fill="url(#paint9_linear_438_8872)"/>
<path d="M237.822 141.265L213.744 141.054L213.753 138.659L237.803 138.864L237.822 141.265Z" fill="url(#paint10_linear_438_8872)"/>
<path d="M237.89 150.088L213.71 149.855L213.719 147.439L237.871 147.667L237.89 150.088Z" fill="url(#paint11_linear_438_8872)"/>
<path d="M238.027 167.962L213.641 167.682L213.65 165.225L238.009 165.499L238.027 167.962Z" fill="url(#paint12_linear_438_8872)"/>
<path d="M238.097 177.014L213.607 176.709L213.615 174.232L238.078 174.53L238.097 177.014Z" fill="url(#paint13_linear_438_8872)"/>
<path d="M238.167 186.145L213.571 185.816L213.581 183.317L238.149 183.639L238.167 186.145Z" fill="url(#paint14_linear_438_8872)"/>
<path d="M238.239 195.354L213.536 195.001L213.546 192.48L238.219 192.827L238.239 195.354Z" fill="url(#paint15_linear_438_8872)"/>
<path d="M268.025 81.6046L244.491 81.5419L244.465 79.2749L267.973 79.3316L268.025 81.6046Z" fill="url(#paint16_linear_438_8872)"/>
<path d="M268.216 89.9549L244.584 89.8712L244.558 87.5859L268.163 87.6635L268.216 89.9549Z" fill="url(#paint17_linear_438_8872)"/>
<path d="M268.409 98.3744L244.678 98.2706L244.652 95.9653L268.355 96.0638L268.409 98.3744Z" fill="url(#paint18_linear_438_8872)"/>
<path d="M268.603 106.864L244.773 106.739L244.747 104.415L268.55 104.534L268.603 106.864Z" fill="url(#paint19_linear_438_8872)"/>
<path d="M268.798 115.425L244.87 115.279L244.843 112.935L268.745 113.076L268.798 115.425Z" fill="url(#paint20_linear_438_8872)"/>
<path d="M269.195 132.762L245.064 132.572L245.036 130.189L269.14 130.374L269.195 132.762Z" fill="url(#paint21_linear_438_8872)"/>
<path d="M269.802 159.325L245.361 159.065L245.333 156.622L269.745 156.874L269.802 159.325Z" fill="url(#paint22_linear_438_8872)"/>
<path d="M268.995 124.057L244.966 123.889L244.939 121.526L268.942 121.688L268.995 124.057Z" fill="url(#paint23_linear_438_8872)"/>
<path d="M269.395 141.542L245.162 141.329L245.134 138.926L269.34 139.133L269.395 141.542Z" fill="url(#paint24_linear_438_8872)"/>
<path d="M269.598 150.396L245.261 150.16L245.233 147.737L269.542 147.966L269.598 150.396Z" fill="url(#paint25_linear_438_8872)"/>
<path d="M270.008 168.33L245.462 168.048L245.434 165.583L269.951 165.859L270.008 168.33Z" fill="url(#paint26_linear_438_8872)"/>
<path d="M270.215 177.414L245.564 177.107L245.535 174.621L270.158 174.921L270.215 177.414Z" fill="url(#paint27_linear_438_8872)"/>
<path d="M270.425 186.576L245.666 186.246L245.637 183.737L270.368 184.062L270.425 186.576Z" fill="url(#paint28_linear_438_8872)"/>
<path d="M270.636 195.818L245.769 195.462L245.741 192.933L270.578 193.282L270.636 195.818Z" fill="url(#paint29_linear_438_8872)"/>
<path d="M127.86 147.507C127.825 146.899 126.297 146.409 124.422 146.409H10.7416C8.84185 146.409 6.82458 146.913 6.82458 147.53V233.685C6.82458 234.146 7.62741 234.587 8.63119 234.913C9.63497 235.238 11.1154 235.42 12.5337 235.418L127.46 235.316C128.889 235.315 130.288 235.127 131.288 234.795C132.288 234.463 132.852 234.013 132.825 233.549L127.86 147.507Z" fill="url(#paint30_linear_438_8872)"/>
<g opacity="0.41">
<path d="M62.5752 152.514L25.3878 152.473L25.4024 150.961L62.548 151L62.5752 152.514Z" fill="white"/>
<path d="M62.6769 158.079L25.3372 158.024L25.3508 156.501L62.6497 156.552L62.6769 158.079Z" fill="white"/>
<path d="M62.7798 163.691L25.2856 163.622L25.2992 162.085L62.7516 162.151L62.7798 163.691Z" fill="white"/>
<path d="M62.8837 169.349L25.2333 169.265L25.2478 167.716L62.8555 167.796L62.8837 169.349Z" fill="white"/>
<path d="M62.9885 175.054L25.1818 174.957L25.1954 173.395L62.9594 173.488L62.9885 175.054Z" fill="white"/>
<path d="M63.2001 186.608L25.0759 186.482L25.0905 184.894L63.171 185.016L63.2001 186.608Z" fill="white"/>
<path d="M63.5244 204.307L24.9139 204.135L24.9285 202.507L63.4944 202.674L63.5244 204.307Z" fill="white"/>
<path d="M63.0934 180.807L25.1284 180.695L25.143 179.12L63.0652 179.228L63.0934 180.807Z" fill="white"/>
<path d="M63.3069 192.458L25.0216 192.316L25.0371 190.715L63.2778 190.852L63.3069 192.458Z" fill="white"/>
<path d="M63.4147 198.357L24.9683 198.201L24.9828 196.586L63.3856 196.738L63.4147 198.357Z" fill="white"/>
<path d="M63.6341 210.307L24.8585 210.12L24.8741 208.478L63.604 208.661L63.6341 210.307Z" fill="white"/>
<path d="M63.7448 216.36L24.8032 216.157L24.8188 214.5L63.7147 214.7L63.7448 216.36Z" fill="white"/>
<path d="M63.8563 222.465L24.7478 222.245L24.7624 220.574L63.8262 220.789L63.8563 222.465Z" fill="white"/>
<path d="M63.9699 228.622L24.6915 228.386L24.7061 226.7L63.9389 226.932L63.9699 228.622Z" fill="white"/>
<path d="M111.331 152.569L73.9097 152.527L73.8699 151.011L111.248 151.05L111.331 152.569Z" fill="white"/>
<path d="M111.635 158.152L74.0592 158.096L74.0184 156.568L111.551 156.62L111.635 158.152Z" fill="white"/>
<path d="M111.941 163.782L74.2087 163.712L74.168 162.171L111.856 162.237L111.941 163.782Z" fill="white"/>
<path d="M112.249 169.458L74.3601 169.374L74.3184 167.82L112.164 167.901L112.249 169.458Z" fill="white"/>
<path d="M112.56 175.182L74.5126 175.083L74.4708 173.517L112.475 173.611L112.56 175.182Z" fill="white"/>
<path d="M113.191 186.773L74.8213 186.646L74.7786 185.053L113.104 185.176L113.191 186.773Z" fill="white"/>
<path d="M114.156 204.533L75.2941 204.36L75.2504 202.726L114.067 202.895L114.156 204.533Z" fill="white"/>
<path d="M112.875 180.953L74.666 180.841L74.6243 179.261L112.788 179.37L112.875 180.953Z" fill="white"/>
<path d="M113.509 192.644L74.9775 192.501L74.9348 190.895L113.422 191.033L113.509 192.644Z" fill="white"/>
<path d="M113.832 198.562L75.1349 198.405L75.0922 196.785L113.743 196.939L113.832 198.562Z" fill="white"/>
<path d="M114.483 210.554L75.4542 210.365L75.4105 208.717L114.394 208.902L114.483 210.554Z" fill="white"/>
<path d="M114.814 216.628L75.6163 216.423L75.5717 214.76L114.723 214.961L114.814 216.628Z" fill="white"/>
<path d="M115.147 222.753L75.7794 222.532L75.7347 220.855L115.055 221.072L115.147 222.753Z" fill="white"/>
<path d="M115.483 228.932L75.9435 228.694L75.8988 227.002L115.391 227.236L115.483 228.932Z" fill="white"/>
</g>
<path d="M233.847 17.2267C234.716 54.0559 237.536 181.092 236.19 226.11C236.047 230.879 232.407 234.707 227.866 234.863C205.409 235.635 123.079 237.591 86.3464 235.972C78.6957 235.635 72.6109 229.126 72.4517 221.085C71.6887 182.428 70.0044 73.702 74.0069 23.8943C74.4864 17.9266 78.9462 13.1739 84.6194 12.5778C109.077 10.0084 191.76 3.72608 223.495 5.88933C229.221 6.28066 233.706 11.205 233.847 17.2267Z" fill="url(#paint31_linear_438_8872)"/>
<path opacity="0.71" d="M223.827 28.5254C225.036 58.2521 228.849 157.144 227.638 193.713C227.462 199.058 223.45 203.379 218.367 203.692C197.438 204.979 126.032 207.815 95.3328 205.233C89.8052 204.768 85.4669 200.073 85.1688 194.257C83.6136 163.929 79.1462 71.8469 80.3062 35.688C80.4916 29.9199 84.7456 25.2091 90.2188 24.6931C112.861 22.5577 188.739 17.4773 214.825 18.9721C219.723 19.2527 223.617 23.3796 223.827 28.5254Z" fill="url(#paint32_linear_438_8872)"/>
<path opacity="0.46" d="M210.944 199.621L102.258 202.377C96.5521 202.377 91.836 196.634 91.505 189.282L84.6951 38.3988C84.3349 30.416 85.661 28.6023 91.8564 28.6023L210.361 23.6875C216.31 23.6875 221.133 29.9123 221.133 37.59V188.473C221.133 196.152 216.893 199.621 210.944 199.621Z" fill="white"/>
<path d="M188.213 39.897C188.055 34.393 182.958 30.0474 176.827 30.1894L135.241 31.1543C129.111 31.2963 124.271 35.8729 124.429 41.3769L124.88 57.0583C125.038 62.5622 130.136 66.9079 136.266 66.7658L177.852 65.801C183.983 65.6589 188.823 61.0823 188.665 55.5783L188.213 39.897Z" fill="url(#paint33_linear_438_8872)"/>
<path d="M146.894 63.1479L155.774 76.6241C156.131 77.1689 156.791 77.4626 157.494 77.4408C158.198 77.4181 158.833 77.1 159.147 76.5344L166.866 62.6851L146.894 63.1479Z" fill="url(#paint34_linear_438_8872)"/>
<path d="M173.728 54.4619L165.587 54.651L165.547 53.2722L168.678 53.1999L168.417 44.1494L165.287 44.2218L165.251 42.9885C165.675 42.9789 166.128 42.9362 166.612 42.8613C167.094 42.7863 167.459 42.6861 167.705 42.5588C168.011 42.4002 168.248 42.2032 168.42 41.9661C168.592 41.7291 168.685 41.4144 168.702 41.0205L170.268 40.9839L170.618 53.1537L173.689 53.0822L173.728 54.4619Z" fill="white"/>
<path d="M147.521 44.8877C147.73 45.2782 148.362 45.2355 148.495 44.818C149.096 42.925 150.734 39.9904 154.999 41.2899C163.346 43.8331 153.522 53.7813 149.53 57.434C148.654 58.235 147.252 58.31 146.276 57.6083C142.074 54.584 132.065 46.4592 138.383 41.6751C143.069 38.1278 146.233 42.4909 147.521 44.8877Z" fill="white"/>
<path d="M158.87 167.75C183.34 167.75 203.177 149.94 203.177 127.97C203.177 106.001 183.34 88.1909 158.87 88.1909C134.4 88.1909 114.563 106.001 114.563 127.97C114.563 149.94 134.4 167.75 158.87 167.75Z" fill="url(#paint35_linear_438_8872)"/>
<path opacity="0.6" d="M159.115 163.616C180.737 163.616 198.266 147.879 198.266 128.465C198.266 109.052 180.737 93.3149 159.115 93.3149C137.492 93.3149 119.963 109.052 119.963 128.465C119.963 147.879 137.492 163.616 159.115 163.616Z" fill="white"/>
<path d="M142.091 138.836H128.488V135.674L132.999 129.941C134.236 128.362 135.087 127.191 135.55 126.428C136.012 125.664 136.354 124.932 136.574 124.231C136.793 123.53 136.904 122.806 136.904 122.058C136.904 121.186 136.688 120.531 136.254 120.096C135.82 119.66 135.256 119.441 134.562 119.441C133.948 119.441 133.375 119.587 132.843 119.877C132.311 120.168 131.664 120.693 130.9 121.45L128.262 118.957C129.477 117.721 130.605 116.875 131.645 116.418C132.686 115.962 133.814 115.733 135.029 115.733C137.076 115.733 138.675 116.274 139.826 117.354C140.977 118.434 141.552 119.934 141.552 121.856C141.552 122.729 141.448 123.554 141.24 124.333C141.032 125.112 140.716 125.894 140.294 126.678C139.872 127.462 139.343 128.277 138.707 129.123C138.07 129.97 136.427 131.91 133.779 134.942V135.067H142.091V138.836Z" fill="url(#paint36_linear_438_8872)"/>
<path d="M159.581 134.054H157.014V138.836H152.571V134.054H144.295V130.611L151.964 116.06H157.013V130.548H159.58V134.054H159.581ZM152.571 130.548V125.75L152.658 123.631L152.779 121.606H152.64C152.235 122.738 151.796 123.761 151.322 124.675L148.268 130.548H152.571Z" fill="url(#paint37_linear_438_8872)"/>
<path d="M174.278 116.06L164.822 138.836H160.379L169.836 116.06H174.278Z" fill="url(#paint38_linear_438_8872)"/>
<path d="M177.61 138.836L184.723 119.846H175.874V116.091H189.477V118.957L182.485 138.836H177.61Z" fill="url(#paint39_linear_438_8872)"/>
<path d="M112.305 117.368C112.085 117.368 111.859 117.339 111.637 117.279C110.422 116.948 109.735 115.795 110.103 114.704C116.128 96.8525 133.361 84.049 154.004 82.088C155.266 81.9669 156.399 82.7896 156.533 83.9235C156.666 85.0575 155.752 86.0737 154.489 86.194C135.687 87.9807 119.992 99.6415 114.504 115.902C114.204 116.792 113.291 117.368 112.305 117.368Z" fill="white"/>
<path d="M145.595 91.6822L152.895 84.2616L144.626 77.7109L151.232 77.3413L159.497 83.892L152.201 91.3126L145.595 91.6822Z" fill="white"/>
<path d="M146.716 172.986C146.519 172.986 146.319 172.964 146.12 172.916C125.657 167.997 110.411 151.992 108.183 133.088C108.049 131.954 108.965 130.938 110.227 130.818C111.49 130.698 112.622 131.519 112.756 132.653C114.786 149.87 128.672 164.447 147.309 168.927C148.536 169.222 149.264 170.354 148.936 171.455C148.659 172.378 147.73 172.986 146.716 172.986Z" fill="white"/>
<path d="M118.868 140.64L110.603 134.085L103.308 141.51L102.896 135.578L110.192 128.158L118.458 134.708L118.868 140.64Z" fill="white"/>
<path d="M164.743 174.24C163.582 174.24 162.584 173.453 162.46 172.393C162.326 171.259 163.241 170.243 164.504 170.123C184.934 168.182 201.428 154.736 205.546 136.665C205.801 135.548 207.016 134.827 208.26 135.057C209.503 135.285 210.306 136.376 210.051 137.493C207.857 147.119 202.4 155.728 194.27 162.389C186.089 169.092 175.963 173.186 164.988 174.229C164.906 174.237 164.824 174.24 164.743 174.24Z" fill="white"/>
<path d="M173.439 164.692L166.1 172.082L174.335 178.668L167.727 179.009L159.497 172.424L166.831 165.034L173.439 164.692Z" fill="white"/>
<path d="M208.522 125.51C207.361 125.51 206.363 124.723 206.239 123.663C204.021 104.854 187.955 89.5786 167.169 86.5159C165.916 86.3311 165.066 85.2695 165.272 84.1452C165.478 83.02 166.662 82.2574 167.913 82.4421C190.736 85.8047 208.376 102.576 210.811 123.228C210.944 124.362 210.03 125.378 208.767 125.499C208.684 125.507 208.602 125.51 208.522 125.51Z" fill="white"/>
<path d="M200.188 115.641L208.42 122.229L215.753 114.835L216.135 120.768L208.801 128.159L200.569 121.574L200.188 115.641Z" fill="white"/>
<path d="M269.492 174.592C269.492 174.592 279.803 179.72 280.656 188.399C281.509 197.078 280.727 233.101 260.051 241.968C239.376 250.834 212.008 248.791 201.531 247.821C191.056 246.852 185.247 240.46 183.95 236.059C182.652 231.657 180.557 215.263 191.577 209.975C202.597 204.686 214.172 196.585 225.737 188.696C237.303 180.806 257.124 167.928 269.492 174.592Z" fill="url(#paint40_linear_438_8872)"/>
<path d="M194.826 212.967C194.826 212.967 197.609 213.099 197.95 218.239C197.95 218.239 191.497 223.433 182.781 224.669C182.127 224.761 183.695 220.658 183.931 220.102C185.054 217.457 188.589 215.754 194.826 212.967Z" fill="url(#paint41_linear_438_8872)"/>
<path d="M226.168 206.923H223.374C221.44 206.923 219.592 206.222 218.246 204.976C213.62 200.69 202.059 190.602 192.92 187.822C191.433 187.37 189.809 188.012 189.143 189.288C187.236 192.943 184.559 201.448 190.898 214.32C191.599 215.746 193.592 216.352 195.037 215.486C195.448 215.239 195.745 214.914 195.927 214.511L195.23 199.465C195.23 199.465 210.605 211.538 213.278 213.867C215.949 216.197 229.533 214.777 226.168 206.923Z" fill="url(#paint42_linear_438_8872)"/>
<path d="M169.393 244.446C171.854 242.51 175.775 240.337 181.435 239.714L183.35 240.765C183.35 240.765 182.129 242.382 179.899 244.089C177.849 245.158 174.685 246.605 172.061 246.919C169.509 247.225 169.134 245.841 169.393 244.446Z" fill="url(#paint43_linear_438_8872)"/>
<path d="M183.932 220.103C185.449 220.543 186.115 222.472 189.962 221.197C193.684 219.963 196.45 218.372 197.873 217.454C197.906 217.702 197.932 217.962 197.95 218.239C197.95 218.239 191.146 224.05 182.429 225.286C181.775 225.379 181.257 224.793 181.493 224.237C181.916 223.239 182.679 221.727 183.932 220.103Z" fill="url(#paint44_linear_438_8872)"/>
<path d="M167.539 246.099C168.024 245.604 168.644 245.035 169.393 244.445C169.134 245.841 169.511 247.225 172.061 246.92C174.685 246.606 177.849 245.158 179.899 244.09C177.33 246.057 173.422 248.144 168.488 248.021C167.392 247.994 166.815 246.838 167.539 246.099Z" fill="url(#paint45_linear_438_8872)"/>
<path d="M224.043 190.776C224.043 190.776 219.526 202.455 210.724 193.566L209.886 193.232L203.577 189.36L204.28 191.602C204.668 192.842 205.671 193.852 206.997 194.342L207.828 194.649C209.409 197.601 212.799 202.073 218.018 202.922C225.851 204.195 229.869 194.693 229.869 194.693L224.043 190.776Z" fill="url(#paint46_linear_438_8872)"/>
<path d="M225.953 210.737L198.452 211.005C198.452 211.005 182.747 222.671 179.899 240.459C179.899 240.459 179.426 241.767 182.264 241.991C182.264 241.991 191.76 236.423 197.95 226.58C205.542 214.51 220.581 219.943 220.581 219.943C225.522 216.744 232.505 216.093 237.765 215.027L225.953 210.737Z" fill="url(#paint47_linear_438_8872)"/>
<path d="M223.716 210.519C223.716 210.519 227.083 202.303 227.806 194.32C227.806 194.32 225.343 192.42 223.804 191.599C223.305 191.334 223.117 190.772 223.369 190.303C224.501 188.198 231.346 179.932 231.858 179.818C234.645 179.193 246.074 174.315 254.124 184.201C257.579 188.443 253.438 201.503 237.766 215.027L234.533 215.582L223.716 210.519Z" fill="url(#paint48_linear_438_8872)"/>
<path d="M242.146 172.845L244.192 178.973C244.286 179.254 244.17 179.558 243.901 179.724C242.915 180.329 240.34 181.535 236.807 180.363C236.403 180.229 236.127 179.891 236.092 179.506L235.606 174.167L242.146 172.845Z" fill="url(#paint49_linear_438_8872)"/>
<path d="M230.162 167.882C230.162 167.882 231.168 174.235 233.886 176.188C236.604 178.141 241.9 176.671 243.688 171.881L240.124 163.693L230.162 167.882Z" fill="url(#paint50_linear_438_8872)"/>
<path d="M240.526 168.992C240.32 169.052 240.103 168.933 240.071 168.74C239.973 168.153 239.728 166.993 239.232 166.203C239.232 166.203 239.492 165.37 236.886 166.628C234.28 167.888 230.367 169.737 228.064 168.635C225.817 167.562 223.542 162.158 229.478 163.158C229.704 163.197 229.912 163.035 229.894 162.829C229.822 161.941 229.92 159.898 232.224 159.242C234.381 158.628 235.562 159.502 236.048 160.029C236.191 160.185 236.457 160.182 236.594 160.022C237.24 159.264 238.994 157.653 241.578 158.674C243.706 159.516 244.036 160.693 244.001 161.426C243.989 161.664 244.258 161.824 244.499 161.725C245.15 161.455 246.199 161.315 247.202 162.445C248.591 164.006 246.607 165.36 246.012 165.715C245.915 165.773 245.854 165.869 245.853 165.974C245.847 166.787 245.706 170.328 243.73 172.326C243.559 172.498 243.243 172.448 243.143 172.234L241.62 168.978C241.55 168.826 241.362 168.75 241.188 168.799L240.526 168.992Z" fill="url(#paint51_linear_438_8872)"/>
<path d="M240.494 169.652C240.494 169.652 241.424 166.253 242.836 167.357C244.248 168.46 242.468 170.89 240.85 171.353L240.494 169.652Z" fill="url(#paint52_linear_438_8872)"/>
<path d="M240.549 169.085C240.549 169.085 241.77 172.424 239.393 174.271C238.94 174.624 236.971 174.003 236.313 174.271C235.313 174.677 234.431 175.24 232.847 175.308L234.686 178.373C235.19 179.214 236.338 179.556 237.298 179.146C239.677 178.128 243.629 175.927 243.629 172.542L242.859 170.814L240.549 169.085Z" fill="url(#paint53_linear_438_8872)"/>
<path d="M227.807 194.515C227.688 194.515 227.592 194.429 227.591 194.322C227.577 190.609 229.167 185.7 229.183 185.651C229.216 185.548 229.337 185.489 229.451 185.52C229.565 185.549 229.631 185.657 229.597 185.76C229.582 185.809 228.009 190.665 228.023 194.32C228.024 194.427 227.927 194.514 227.807 194.515Z" fill="url(#paint54_linear_438_8872)"/>
<path d="M238.242 197.532C238.213 197.532 238.183 197.526 238.154 197.515C238.045 197.471 237.996 197.356 238.044 197.259C238.072 197.202 240.84 191.573 241.333 188.058C241.349 187.951 241.456 187.875 241.575 187.889C241.693 187.902 241.778 188 241.762 188.106C241.261 191.678 238.468 197.36 238.439 197.417C238.404 197.489 238.325 197.532 238.242 197.532Z" fill="url(#paint55_linear_438_8872)"/>
<path d="M246.162 203.424L245.093 202.608C245.002 202.539 244.991 202.417 245.069 202.335C245.146 202.254 245.282 202.243 245.373 202.313L246.175 202.925C251.291 199.291 253.099 192.265 253.116 192.194C253.142 192.089 253.258 192.025 253.374 192.047C253.491 192.07 253.564 192.174 253.539 192.279C253.52 192.352 251.648 199.638 246.301 203.328L246.162 203.424Z" fill="url(#paint56_linear_438_8872)"/>
<path d="M200.43 186.378L199.987 186.923C199.772 187.187 199.843 187.559 200.144 187.744L210.084 193.839C210.347 194.001 210.702 193.966 210.92 193.757C211.179 193.507 211.145 193.113 210.845 192.903L201.348 186.263C201.061 186.061 200.644 186.113 200.43 186.378Z" fill="url(#paint57_linear_438_8872)"/>
<path d="M207.679 204.45C207.189 204.485 206.806 204.921 206.809 205.447C206.821 207.185 207.161 210.796 209.725 211.495C212.927 212.368 216.565 210.981 215.706 205.055C215.61 204.397 215.072 203.917 214.452 203.962L207.679 204.45Z" fill="white"/>
<path d="M214.168 209.495C214.168 209.495 230.807 209.495 239.259 197.705L244.225 201.781C244.225 201.781 234.286 217.07 215.575 211.34C215.575 211.34 211.254 212.141 208.818 211.534C207.451 211.194 206.708 210.096 206.32 209.198C206.097 208.683 206.657 208.172 207.24 208.352C208.964 208.885 212.024 209.694 214.168 209.495Z" fill="url(#paint58_linear_438_8872)"/>
<path d="M215.033 205.838C215.033 205.838 216.042 203.393 217.773 205.166C219.504 206.939 216.692 208.298 215.033 208.492V207.847C215.033 207.847 216.97 207.068 216.722 206.031C216.474 204.996 215.033 206.29 215.033 206.29V205.838Z" fill="white"/>
<path d="M208.835 193.746C209.47 193.943 210.08 194.236 210.579 194.658C211.079 195.074 211.445 195.641 211.55 196.253C211.671 196.859 211.49 197.529 211.047 197.999C210.616 198.476 210.051 198.795 209.542 199.145C209.034 199.484 208.573 199.906 208.353 200.434C208.247 200.695 208.22 200.98 208.31 201.245C208.398 201.51 208.594 201.741 208.839 201.919C209.332 202.286 209.962 202.464 210.533 202.75C210.816 202.897 211.088 203.069 211.304 203.291C211.524 203.509 211.668 203.795 211.672 204.091C211.672 204.096 211.667 204.1 211.661 204.1C211.656 204.1 211.651 204.096 211.651 204.091C211.638 203.801 211.491 203.527 211.269 203.32C211.052 203.108 210.781 202.945 210.498 202.807C209.932 202.539 209.289 202.376 208.762 202.006C208.499 201.826 208.273 201.58 208.168 201.286C208.058 200.992 208.079 200.67 208.188 200.382C208.411 199.804 208.89 199.349 209.403 198.984C209.912 198.618 210.452 198.289 210.828 197.845C211.214 197.409 211.346 196.843 211.226 196.303C211.115 195.762 210.783 195.274 210.323 194.91C209.863 194.541 209.297 194.284 208.702 194.116C208.589 194.083 208.525 193.975 208.561 193.873C208.597 193.771 208.718 193.713 208.832 193.745C208.831 193.745 208.833 193.746 208.835 193.746Z" fill="white"/>
<path d="M212.502 198.482C212.176 199.083 211.558 199.358 211.267 199.798C211.114 200.012 211.038 200.253 211.115 200.475C211.186 200.698 211.392 200.892 211.631 201.048C212.097 201.359 212.801 201.523 213.178 202.085C213.535 202.656 213.247 203.423 212.6 203.688C212.547 203.709 212.484 203.688 212.459 203.64C212.435 203.593 212.459 203.536 212.512 203.514C213.029 203.295 213.244 202.629 212.947 202.208C212.8 201.991 212.555 201.835 212.289 201.702C212.024 201.568 211.725 201.457 211.446 201.285C211.174 201.118 210.898 200.894 210.78 200.568C210.655 200.24 210.766 199.882 210.944 199.622C211.306 199.08 211.9 198.779 212.107 198.323C212.152 198.224 212.278 198.176 212.389 198.216C212.499 198.256 212.553 198.37 212.508 198.469C212.506 198.473 212.504 198.478 212.502 198.482Z" fill="white"/>
<path d="M92.6156 172.647C92.57 172.631 67.8017 133.689 64.4545 130.024C63.8914 129.407 63.0197 129.094 62.1382 129.188L55.2254 129.928L47.1039 145.702L60.6345 138.628C59.2958 146.941 76.6775 159.295 82.638 163.803C83.2428 164.261 83.2923 165.08 82.7458 165.593L80.3664 167.83C84.2738 171.386 88.782 173.669 93.8708 174.725L92.6156 172.647Z" fill="url(#paint59_linear_438_8872)"/>
<path d="M81.7429 166.623C81.7429 166.623 80.2236 167.064 79.7101 168.278C79.4645 168.86 79.7295 169.518 80.2926 169.879C82.7933 171.488 91.0429 176.682 94.8503 177.699C95.1628 177.783 95.4589 177.529 95.389 177.243C95.1939 176.449 94.5619 174.864 92.5262 172.542L92.7087 172.874C92.9398 173.294 92.4311 173.731 91.9768 173.501C89.4295 172.211 84.2426 169.386 81.7429 166.623Z" fill="url(#paint60_linear_438_8872)"/>
<path d="M82.969 182.205C82.9272 182.181 79.2111 174.143 79.1694 174.118C75.762 155.494 67.4492 139.543 64.998 135.346C64.5855 134.64 63.803 134.175 62.9177 134.107L55.9805 133.575L44.4711 147.547L59.3161 143.078C56.131 150.976 70.3684 166.233 75.1892 171.731C75.6785 172.289 75.5426 173.1 74.8912 173.504L72.0565 175.262C75.0814 179.454 78.982 182.509 83.7271 184.467L82.969 182.205Z" fill="url(#paint61_linear_438_8872)"/>
<path d="M73.6788 174.33C73.6788 174.33 72.0926 174.485 71.315 175.582C70.9432 176.106 71.0548 176.798 71.5237 177.256C73.6099 179.286 80.5189 185.871 84.0176 187.559C84.3039 187.697 84.6524 187.503 84.6476 187.21C84.635 186.397 84.3738 184.73 82.9031 182.086L83.007 182.444C83.139 182.898 82.542 183.233 82.1488 182.925C79.9461 181.198 75.5039 177.49 73.6788 174.33Z" fill="url(#paint62_linear_438_8872)"/>
<path d="M23.5103 130.633C23.5103 130.633 17.2353 139.013 16.7198 142.836C16.2053 146.659 18.4555 147.981 25.0228 148.468C44.5683 149.918 54.2042 144.659 54.2042 144.659C52.7403 141.011 50.9715 133.35 62.1383 129.188C62.1383 129.188 52.9179 130.514 50.0755 129.524C47.2331 128.533 23.5103 130.633 23.5103 130.633Z" fill="url(#paint63_linear_438_8872)"/>
<path d="M58.9395 85.9719C58.8318 86.7066 44.5867 122.301 44.5867 122.301L22.7841 125.369C18.5797 125.96 14.4491 123.972 12.6696 120.502C8.24873 111.878 12.457 101.669 22.0657 97.7067L25.2838 96.3793C30.0853 94.3991 34.7916 90.9817 38.9271 87.3908C42.3976 84.3786 46.9932 82.6346 51.8141 82.4185L58.9395 85.9719Z" fill="url(#paint64_linear_438_8872)"/>
<path d="M16.4518 117.297C16.4333 117.297 16.4158 117.292 16.4003 117.281C14.0452 115.6 14.2539 112.465 14.4539 111.195C14.8451 108.701 15.945 106.321 17.6351 104.311C20.6659 100.707 25.2945 98.5693 29.7717 96.502C30.0804 96.359 30.3882 96.217 30.6949 96.0749C35.2323 93.9683 40.2852 91.3588 42.8121 87.0289C42.8335 86.9922 42.883 86.9792 42.9237 86.9975C42.9645 87.0166 42.98 87.0611 42.9587 87.0977C40.4085 91.4652 35.3304 94.0895 30.7706 96.2065C30.4639 96.3486 30.1552 96.4915 29.8465 96.6336C25.3867 98.694 20.7746 100.824 17.7672 104.401C16.0935 106.391 15.0053 108.747 14.618 111.216C14.4228 112.46 14.2161 115.532 16.5042 117.165C16.5401 117.191 16.5459 117.238 16.5178 117.27C16.5003 117.287 16.476 117.297 16.4518 117.297Z" fill="white"/>
<path d="M18.7467 113.453C18.704 113.453 18.6671 113.422 18.6642 113.383C18.4787 110.77 18.8962 108.502 19.9048 106.644C21.7269 103.285 25.5605 101.144 28.6961 99.6548C29.3232 99.3567 29.9688 99.0612 30.593 98.7745C33.4626 97.4593 36.4293 96.0987 38.731 94.0479C38.763 94.0192 38.8154 94.0192 38.8475 94.0479C38.8795 94.0767 38.8795 94.1238 38.8475 94.1525C36.5273 96.2199 33.549 97.5857 30.6677 98.9061C30.0435 99.192 29.399 99.4874 28.7728 99.7855C25.6595 101.265 21.8541 103.388 20.0524 106.708C19.0573 108.544 18.6447 110.786 18.8282 113.373C18.8311 113.414 18.7962 113.449 18.7515 113.452C18.7496 113.453 18.7486 113.453 18.7467 113.453Z" fill="white"/>
<path d="M65.0311 113.385C65.0311 113.385 57.5794 121.397 50.0763 114.89L47.1776 120.926C47.1776 120.926 58.1347 128.544 66.4465 116.559L65.0311 113.385Z" fill="url(#paint65_linear_438_8872)"/>
<path d="M40.4813 129.523C40.4813 129.523 47.7883 123.276 51.386 119.139C53.3304 116.902 53.941 113.957 53.0421 111.237C51.3996 106.27 48.4814 101.124 48.2154 100.324C47.8077 99.0967 39.6134 99.1473 39.6134 99.1473C39.6134 99.1473 31.8987 100.224 31.8375 111.959C31.823 114.753 30.959 117.495 29.3359 119.878C27.4739 122.613 25.6615 126.721 23.5103 130.633L40.4813 129.523Z" fill="url(#paint66_linear_438_8872)"/>
<path d="M45.2449 90.3027L39.7377 99.4969C40.1007 101.504 45.7312 101.561 46.601 100.362C46.6894 100.24 46.7398 100.099 46.7738 99.9571L50.0677 93.8143C50.2094 93.2155 48.3805 91.197 47.7776 90.9094L45.5885 89.8635C44.7469 89.4591 48.264 89.4277 45.2449 90.3027Z" fill="url(#paint67_linear_438_8872)"/>
<path d="M56.3903 88.1443C56.3903 88.1443 57.0116 91.2506 54.2925 95.1997C51.5733 99.1488 48.8649 98.971 47.4893 97.5625C46.1137 96.1541 44.4653 93.8078 45.2157 89.8691C45.9652 85.9296 55.4506 84.183 56.3903 88.1443Z" fill="url(#paint68_linear_438_8872)"/>
<path d="M48.5076 90.2973C48.5076 90.2973 52.911 85.1044 56.2913 89.6314L56.234 91.195C56.234 91.195 60.6296 91.0102 60.153 87.3723C59.6763 83.7343 56.0874 81.2495 51.1112 82.4923C46.136 83.7352 43.2286 85.1506 42.6665 88.2526C42.1044 91.3536 44.9255 90.8472 44.9255 90.8472C44.9255 90.8472 46.003 88.7075 47.3039 88.5611C48.6047 88.4147 48.1348 90.1081 48.1348 90.1081L48.5076 90.2973Z" fill="url(#paint69_linear_438_8872)"/>
<path d="M47.497 90.1585C47.497 90.1585 49.7783 87.5011 47.7018 86.9494C45.6253 86.3977 45.703 89.5537 45.8379 90.7268L47.497 90.1585Z" fill="url(#paint70_linear_438_8872)"/>
<path d="M30.5027 122.434C30.5027 122.434 46.2185 120.469 51.3917 116.123C51.3917 116.123 53.8953 114 55.7029 113.741C56.6766 113.601 57.7746 113.509 58.5813 113.453C58.9492 113.428 59.121 113.854 58.8191 114.045C58.2366 114.412 57.4736 114.808 56.8125 114.87C55.534 114.989 56.897 115.83 55.5039 118.029C54.1118 120.228 52.1217 119.398 52.1217 119.398C52.1217 119.398 41.7102 127.452 31.7627 127.384C31.7627 127.384 29.3096 126.662 30.5027 122.434Z" fill="url(#paint71_linear_438_8872)"/>
<path d="M69.9296 107.87L64.4991 107.228C63.8516 107.131 63.1827 107.472 62.7828 108.102L59.2103 115.191C58.5376 116.25 59.0162 117.656 60.1044 117.818L64.4651 118.32C64.8826 118.382 65.3116 118.146 65.5466 117.724L70.3781 109.066C70.6577 108.566 70.4247 107.944 69.9296 107.87Z" fill="url(#paint72_linear_438_8872)"/>
<path d="M34.0295 103.186C34.0295 103.186 19.2291 122.867 31.7627 127.384L34.0295 121.894C34.0295 121.894 32.5316 118.854 36.9457 111.223C37.5272 110.217 37.8068 109.09 37.7553 107.957C37.6058 104.659 36.9447 98.5314 34.0295 103.186Z" fill="url(#paint73_linear_438_8872)"/>
<path d="M34.0286 122.132C33.9267 122.132 33.8306 122.08 33.7869 121.991C33.7238 121.863 32.288 118.758 36.7099 111.114C36.7778 110.998 36.937 110.952 37.0681 111.012C37.1982 111.073 37.2487 111.217 37.1817 111.334C32.9015 118.732 34.2597 121.77 34.2732 121.8C34.3305 121.92 34.2694 122.06 34.1354 122.113C34.1004 122.126 34.0645 122.132 34.0286 122.132Z" fill="url(#paint74_linear_438_8872)"/>
<path d="M66.2252 117.433C66.2252 117.433 69.8762 112.662 69.453 112.075C69.0287 111.487 65.8281 110.645 65.0758 110.448C64.3234 110.249 62.909 114.575 66.2252 117.433Z" fill="url(#paint75_linear_438_8872)"/>
</g>
<defs>
<linearGradient id="paint0_linear_438_8872" x1="310.575" y1="320.444" x2="100.311" y2="29.5869" gradientUnits="userSpaceOnUse">
<stop stop-color="#FF42D8"/>
<stop offset="1" stop-color="#8D07E0"/>
</linearGradient>
<linearGradient id="paint1_linear_438_8872" x1="202.299" y1="138.954" x2="281.544" y2="138.954" gradientUnits="userSpaceOnUse">
<stop stop-color="#1BE060"/>
<stop offset="1" stop-color="#009433"/>
</linearGradient>
<linearGradient id="paint2_linear_438_8872" x1="213.974" y1="80.361" x2="237.362" y2="80.361" gradientUnits="userSpaceOnUse">
<stop stop-color="#C24965"/>
<stop offset="1" stop-color="#C21D17"/>
</linearGradient>
<linearGradient id="paint3_linear_438_8872" x1="213.942" y1="88.6654" x2="237.426" y2="88.6654" gradientUnits="userSpaceOnUse">
<stop stop-color="#C24965"/>
<stop offset="1" stop-color="#C21D17"/>
</linearGradient>
<linearGradient id="paint4_linear_438_8872" x1="213.909" y1="97.0382" x2="237.49" y2="97.0382" gradientUnits="userSpaceOnUse">
<stop stop-color="#C24965"/>
<stop offset="1" stop-color="#C21D17"/>
</linearGradient>
<linearGradient id="paint5_linear_438_8872" x1="213.877" y1="105.481" x2="237.556" y2="105.481" gradientUnits="userSpaceOnUse">
<stop stop-color="#C24965"/>
<stop offset="1" stop-color="#C21D17"/>
</linearGradient>
<linearGradient id="paint6_linear_438_8872" x1="213.844" y1="113.994" x2="237.621" y2="113.994" gradientUnits="userSpaceOnUse">
<stop stop-color="#C24965"/>
<stop offset="1" stop-color="#C21D17"/>
</linearGradient>
<linearGradient id="paint7_linear_438_8872" x1="213.778" y1="131.233" x2="237.755" y2="131.233" gradientUnits="userSpaceOnUse">
<stop stop-color="#C24965"/>
<stop offset="1" stop-color="#C21D17"/>
</linearGradient>
<linearGradient id="paint8_linear_438_8872" x1="213.676" y1="157.641" x2="237.958" y2="157.641" gradientUnits="userSpaceOnUse">
<stop stop-color="#C24965"/>
<stop offset="1" stop-color="#C21D17"/>
</linearGradient>
<linearGradient id="paint9_linear_438_8872" x1="213.811" y1="122.577" x2="237.688" y2="122.577" gradientUnits="userSpaceOnUse">
<stop stop-color="#C24965"/>
<stop offset="1" stop-color="#C21D17"/>
</linearGradient>
<linearGradient id="paint10_linear_438_8872" x1="213.744" y1="139.962" x2="237.822" y2="139.962" gradientUnits="userSpaceOnUse">
<stop stop-color="#C24965"/>
<stop offset="1" stop-color="#C21D17"/>
</linearGradient>
<linearGradient id="paint11_linear_438_8872" x1="213.71" y1="148.764" x2="237.89" y2="148.764" gradientUnits="userSpaceOnUse">
<stop stop-color="#C24965"/>
<stop offset="1" stop-color="#C21D17"/>
</linearGradient>
<linearGradient id="paint12_linear_438_8872" x1="213.641" y1="166.594" x2="238.028" y2="166.594" gradientUnits="userSpaceOnUse">
<stop stop-color="#C24965"/>
<stop offset="1" stop-color="#C21D17"/>
</linearGradient>
<linearGradient id="paint13_linear_438_8872" x1="213.606" y1="175.623" x2="238.097" y2="175.623" gradientUnits="userSpaceOnUse">
<stop stop-color="#C24965"/>
<stop offset="1" stop-color="#C21D17"/>
</linearGradient>
<linearGradient id="paint14_linear_438_8872" x1="213.571" y1="184.731" x2="238.168" y2="184.731" gradientUnits="userSpaceOnUse">
<stop stop-color="#C24965"/>
<stop offset="1" stop-color="#C21D17"/>
</linearGradient>
<linearGradient id="paint15_linear_438_8872" x1="213.536" y1="193.917" x2="238.239" y2="193.917" gradientUnits="userSpaceOnUse">
<stop stop-color="#C24965"/>
<stop offset="1" stop-color="#C21D17"/>
</linearGradient>
<linearGradient id="paint16_linear_438_8872" x1="244.465" y1="80.4394" x2="268.025" y2="80.4394" gradientUnits="userSpaceOnUse">
<stop stop-color="#C24965"/>
<stop offset="1" stop-color="#C21D17"/>
</linearGradient>
<linearGradient id="paint17_linear_438_8872" x1="244.558" y1="88.77" x2="268.216" y2="88.77" gradientUnits="userSpaceOnUse">
<stop stop-color="#C24965"/>
<stop offset="1" stop-color="#C21D17"/>
</linearGradient>
<linearGradient id="paint18_linear_438_8872" x1="244.652" y1="97.1699" x2="268.408" y2="97.1699" gradientUnits="userSpaceOnUse">
<stop stop-color="#C24965"/>
<stop offset="1" stop-color="#C21D17"/>
</linearGradient>
<linearGradient id="paint19_linear_438_8872" x1="244.747" y1="105.639" x2="268.602" y2="105.639" gradientUnits="userSpaceOnUse">
<stop stop-color="#C24965"/>
<stop offset="1" stop-color="#C21D17"/>
</linearGradient>
<linearGradient id="paint20_linear_438_8872" x1="244.843" y1="114.18" x2="268.798" y2="114.18" gradientUnits="userSpaceOnUse">
<stop stop-color="#C24965"/>
<stop offset="1" stop-color="#C21D17"/>
</linearGradient>
<linearGradient id="paint21_linear_438_8872" x1="245.037" y1="131.476" x2="269.195" y2="131.476" gradientUnits="userSpaceOnUse">
<stop stop-color="#C24965"/>
<stop offset="1" stop-color="#C21D17"/>
</linearGradient>
<linearGradient id="paint22_linear_438_8872" x1="245.333" y1="157.973" x2="269.802" y2="157.973" gradientUnits="userSpaceOnUse">
<stop stop-color="#C24965"/>
<stop offset="1" stop-color="#C21D17"/>
</linearGradient>
<linearGradient id="paint23_linear_438_8872" x1="244.939" y1="122.792" x2="268.996" y2="122.792" gradientUnits="userSpaceOnUse">
<stop stop-color="#C24965"/>
<stop offset="1" stop-color="#C21D17"/>
</linearGradient>
<linearGradient id="paint24_linear_438_8872" x1="245.135" y1="140.234" x2="269.395" y2="140.234" gradientUnits="userSpaceOnUse">
<stop stop-color="#C24965"/>
<stop offset="1" stop-color="#C21D17"/>
</linearGradient>
<linearGradient id="paint25_linear_438_8872" x1="245.233" y1="149.066" x2="269.598" y2="149.066" gradientUnits="userSpaceOnUse">
<stop stop-color="#C24965"/>
<stop offset="1" stop-color="#C21D17"/>
</linearGradient>
<linearGradient id="paint26_linear_438_8872" x1="245.434" y1="166.957" x2="270.008" y2="166.957" gradientUnits="userSpaceOnUse">
<stop stop-color="#C24965"/>
<stop offset="1" stop-color="#C21D17"/>
</linearGradient>
<linearGradient id="paint27_linear_438_8872" x1="245.535" y1="176.017" x2="270.215" y2="176.017" gradientUnits="userSpaceOnUse">
<stop stop-color="#C24965"/>
<stop offset="1" stop-color="#C21D17"/>
</linearGradient>
<linearGradient id="paint28_linear_438_8872" x1="245.638" y1="185.157" x2="270.425" y2="185.157" gradientUnits="userSpaceOnUse">
<stop stop-color="#C24965"/>
<stop offset="1" stop-color="#C21D17"/>
</linearGradient>
<linearGradient id="paint29_linear_438_8872" x1="245.741" y1="194.375" x2="270.636" y2="194.375" gradientUnits="userSpaceOnUse">
<stop stop-color="#C24965"/>
<stop offset="1" stop-color="#C21D17"/>
</linearGradient>
<linearGradient id="paint30_linear_438_8872" x1="76.4445" y1="288.31" x2="67.7276" y2="172.224" gradientUnits="userSpaceOnUse">
<stop stop-color="#C21D17"/>
<stop offset="1" stop-color="#7A0803"/>
</linearGradient>
<linearGradient id="paint31_linear_438_8872" x1="169.23" y1="260.407" x2="144.032" y2="-14.0216" gradientUnits="userSpaceOnUse">
<stop offset="0.1262" stop-color="#7443F7"/>
<stop offset="0.3953" stop-color="#5C40F7"/>
<stop offset="0.7807" stop-color="#3E3CF7"/>
<stop offset="1" stop-color="#333BF7"/>
</linearGradient>
<linearGradient id="paint32_linear_438_8872" x1="88.177" y1="35.4474" x2="384.047" y2="457.017" gradientUnits="userSpaceOnUse">
<stop stop-color="#19D1E0"/>
<stop offset="0.2592" stop-color="#19CEDF"/>
<stop offset="0.4185" stop-color="#18C6DD"/>
<stop offset="0.5509" stop-color="#18B7DA"/>
<stop offset="0.6684" stop-color="#17A3D5"/>
<stop offset="0.7762" stop-color="#1588CE"/>
<stop offset="0.8768" stop-color="#1468C6"/>
<stop offset="0.9701" stop-color="#1242BC"/>
<stop offset="1" stop-color="#1134B9"/>
</linearGradient>
<linearGradient id="paint33_linear_438_8872" x1="125.218" y1="52.3992" x2="261.24" y2="31.2762" gradientUnits="userSpaceOnUse">
<stop stop-color="#C24965"/>
<stop offset="1" stop-color="#C21D17"/>
</linearGradient>
<linearGradient id="paint34_linear_438_8872" x1="128.424" y1="73.2753" x2="264.465" y2="52.1493" gradientUnits="userSpaceOnUse">
<stop stop-color="#C24965"/>
<stop offset="1" stop-color="#C21D17"/>
</linearGradient>
<linearGradient id="paint35_linear_438_8872" x1="165.455" y1="117.502" x2="128.595" y2="190.198" gradientUnits="userSpaceOnUse">
<stop stop-color="#047EE0"/>
<stop offset="1" stop-color="#221AF7"/>
</linearGradient>
<linearGradient id="paint36_linear_438_8872" x1="152.113" y1="4.84326" x2="138.468" y2="128.832" gradientUnits="userSpaceOnUse">
<stop stop-color="#564DF7"/>
<stop offset="1" stop-color="#2205F7"/>
</linearGradient>
<linearGradient id="paint37_linear_438_8872" x1="169.089" y1="6.71153" x2="155.443" y2="130.7" gradientUnits="userSpaceOnUse">
<stop stop-color="#564DF7"/>
<stop offset="1" stop-color="#2205F7"/>
</linearGradient>
<linearGradient id="paint38_linear_438_8872" x1="183.595" y1="8.30804" x2="169.95" y2="132.296" gradientUnits="userSpaceOnUse">
<stop stop-color="#564DF7"/>
<stop offset="1" stop-color="#2205F7"/>
</linearGradient>
<linearGradient id="paint39_linear_438_8872" x1="197.381" y1="9.82532" x2="183.735" y2="133.814" gradientUnits="userSpaceOnUse">
<stop stop-color="#564DF7"/>
<stop offset="1" stop-color="#2205F7"/>
</linearGradient>
<linearGradient id="paint40_linear_438_8872" x1="217.478" y1="190.129" x2="240.774" y2="231.378" gradientUnits="userSpaceOnUse">
<stop stop-color="#564DF7"/>
<stop offset="1" stop-color="#2205F7"/>
</linearGradient>
<linearGradient id="paint41_linear_438_8872" x1="518.004" y1="643.477" x2="584.082" y2="749.365" gradientUnits="userSpaceOnUse">
<stop stop-color="#FF42D8"/>
<stop offset="1" stop-color="#8D07E0"/>
</linearGradient>
<linearGradient id="paint42_linear_438_8872" x1="345.739" y1="559.867" x2="326.148" y2="498.042" gradientUnits="userSpaceOnUse">
<stop stop-color="#62ACFF"/>
<stop offset="1" stop-color="#0071CA"/>
</linearGradient>
<linearGradient id="paint43_linear_438_8872" x1="496.513" y1="656.887" x2="562.591" y2="762.775" gradientUnits="userSpaceOnUse">
<stop stop-color="#FF42D8"/>
<stop offset="1" stop-color="#8D07E0"/>
</linearGradient>
<linearGradient id="paint44_linear_438_8872" x1="169.513" y1="234.91" x2="206.137" y2="201.589" gradientUnits="userSpaceOnUse">
<stop stop-color="#E0CD4E"/>
<stop offset="1" stop-color="#F76025"/>
</linearGradient>
<linearGradient id="paint45_linear_438_8872" x1="158.622" y1="256.022" x2="195.245" y2="222.701" gradientUnits="userSpaceOnUse">
<stop stop-color="#E0CD4E"/>
<stop offset="1" stop-color="#F76025"/>
</linearGradient>
<linearGradient id="paint46_linear_438_8872" x1="203.576" y1="196.2" x2="229.869" y2="196.2" gradientUnits="userSpaceOnUse">
<stop stop-color="#F9B776"/>
<stop offset="1" stop-color="#F47960"/>
</linearGradient>
<linearGradient id="paint47_linear_438_8872" x1="179.869" y1="226.364" x2="237.766" y2="226.364" gradientUnits="userSpaceOnUse">
<stop stop-color="#43C4C5"/>
<stop offset="1" stop-color="#003CCA"/>
</linearGradient>
<linearGradient id="paint48_linear_438_8872" x1="257.283" y1="188.68" x2="199.646" y2="216.499" gradientUnits="userSpaceOnUse">
<stop stop-color="#E0CD4E"/>
<stop offset="1" stop-color="#F76025"/>
</linearGradient>
<linearGradient id="paint49_linear_438_8872" x1="240.409" y1="181.352" x2="239.639" y2="173.627" gradientUnits="userSpaceOnUse">
<stop stop-color="#F9B776"/>
<stop offset="1" stop-color="#F47960"/>
</linearGradient>
<linearGradient id="paint50_linear_438_8872" x1="235.322" y1="174.629" x2="238.767" y2="161.973" gradientUnits="userSpaceOnUse">
<stop stop-color="#F9B776"/>
<stop offset="1" stop-color="#F47960"/>
</linearGradient>
<linearGradient id="paint51_linear_438_8872" x1="239.116" y1="151.769" x2="235.947" y2="171.902" gradientUnits="userSpaceOnUse">
<stop stop-color="#CB236D"/>
<stop offset="1" stop-color="#4C246D"/>
</linearGradient>
<linearGradient id="paint52_linear_438_8872" x1="239.677" y1="175.814" x2="243.122" y2="163.158" gradientUnits="userSpaceOnUse">
<stop stop-color="#F9B776"/>
<stop offset="1" stop-color="#F47960"/>
</linearGradient>
<linearGradient id="paint53_linear_438_8872" x1="240.237" y1="163.9" x2="237.693" y2="180.065" gradientUnits="userSpaceOnUse">
<stop stop-color="#CB236D"/>
<stop offset="1" stop-color="#4C246D"/>
</linearGradient>
<linearGradient id="paint54_linear_438_8872" x1="211.967" y1="163.757" x2="253.615" y2="245.325" gradientUnits="userSpaceOnUse">
<stop stop-color="#FDF53F"/>
<stop offset="0.6645" stop-color="#E57A58"/>
<stop offset="1" stop-color="#D93C65"/>
</linearGradient>
<linearGradient id="paint55_linear_438_8872" x1="219.213" y1="160.058" x2="260.861" y2="241.626" gradientUnits="userSpaceOnUse">
<stop stop-color="#FDF53F"/>
<stop offset="0.6645" stop-color="#E57A58"/>
<stop offset="1" stop-color="#D93C65"/>
</linearGradient>
<linearGradient id="paint56_linear_438_8872" x1="224.083" y1="157.571" x2="265.731" y2="239.139" gradientUnits="userSpaceOnUse">
<stop stop-color="#FDF53F"/>
<stop offset="0.6645" stop-color="#E57A58"/>
<stop offset="1" stop-color="#D93C65"/>
</linearGradient>
<linearGradient id="paint57_linear_438_8872" x1="199.863" y1="190.04" x2="211.094" y2="190.04" gradientUnits="userSpaceOnUse">
<stop stop-color="#2B3582"/>
<stop offset="1" stop-color="#150E42"/>
</linearGradient>
<linearGradient id="paint58_linear_438_8872" x1="226.238" y1="213.399" x2="224.907" y2="200.056" gradientUnits="userSpaceOnUse">
<stop stop-color="#F9B776"/>
<stop offset="1" stop-color="#F47960"/>
</linearGradient>
<linearGradient id="paint59_linear_438_8872" x1="87.7834" y1="130.436" x2="66.6126" y2="173.874" gradientUnits="userSpaceOnUse">
<stop stop-color="#F9B776"/>
<stop offset="1" stop-color="#F47960"/>
</linearGradient>
<linearGradient id="paint60_linear_438_8872" x1="93.448" y1="160.033" x2="78.8571" y2="199.366" gradientUnits="userSpaceOnUse">
<stop stop-color="#FF42D8"/>
<stop offset="1" stop-color="#8D07E0"/>
</linearGradient>
<linearGradient id="paint61_linear_438_8872" x1="94.7751" y1="145.015" x2="219.904" y2="57.7668" gradientUnits="userSpaceOnUse">
<stop stop-color="#F9B776"/>
<stop offset="1" stop-color="#F47960"/>
</linearGradient>
<linearGradient id="paint62_linear_438_8872" x1="86.6266" y1="170.004" x2="64.4442" y2="206.459" gradientUnits="userSpaceOnUse">
<stop stop-color="#FF42D8"/>
<stop offset="1" stop-color="#8D07E0"/>
</linearGradient>
<linearGradient id="paint63_linear_438_8872" x1="69.2773" y1="117.968" x2="0.808241" y2="172.915" gradientUnits="userSpaceOnUse">
<stop stop-color="#564DF7"/>
<stop offset="1" stop-color="#2205F7"/>
</linearGradient>
<linearGradient id="paint64_linear_438_8872" x1="59.2934" y1="78.8634" x2="20.6322" y2="133.556" gradientUnits="userSpaceOnUse">
<stop stop-color="#2B3582"/>
<stop offset="1" stop-color="#150E42"/>
</linearGradient>
<linearGradient id="paint65_linear_438_8872" x1="60.9492" y1="104.997" x2="55.5323" y2="127.321" gradientUnits="userSpaceOnUse">
<stop stop-color="#F9B776"/>
<stop offset="1" stop-color="#F47960"/>
</linearGradient>
<linearGradient id="paint66_linear_438_8872" x1="51.3946" y1="102.049" x2="13.9338" y2="150.243" gradientUnits="userSpaceOnUse">
<stop stop-color="#E0CD4E"/>
<stop offset="1" stop-color="#F76025"/>
</linearGradient>
<linearGradient id="paint67_linear_438_8872" x1="45.9924" y1="111.799" x2="45.2671" y2="99.2094" gradientUnits="userSpaceOnUse">
<stop stop-color="#F9B776"/>
<stop offset="1" stop-color="#F47960"/>
</linearGradient>
<linearGradient id="paint68_linear_438_8872" x1="44.6683" y1="101.155" x2="58.9039" y2="70.8104" gradientUnits="userSpaceOnUse">
<stop stop-color="#F9B776"/>
<stop offset="1" stop-color="#F47960"/>
</linearGradient>
<linearGradient id="paint69_linear_438_8872" x1="59.4392" y1="78.9663" x2="20.778" y2="133.659" gradientUnits="userSpaceOnUse">
<stop stop-color="#2B3582"/>
<stop offset="1" stop-color="#150E42"/>
</linearGradient>
<linearGradient id="paint70_linear_438_8872" x1="40.7942" y1="99.337" x2="55.0295" y2="68.993" gradientUnits="userSpaceOnUse">
<stop stop-color="#F9B776"/>
<stop offset="1" stop-color="#F47960"/>
</linearGradient>
<linearGradient id="paint71_linear_438_8872" x1="48.1249" y1="120.418" x2="76.9232" y2="120.418" gradientUnits="userSpaceOnUse">
<stop stop-color="#F9B776"/>
<stop offset="1" stop-color="#F47960"/>
</linearGradient>
<linearGradient id="paint72_linear_438_8872" x1="62.423" y1="108.569" x2="66.9402" y2="114.362" gradientUnits="userSpaceOnUse">
<stop stop-color="#2B3582"/>
<stop offset="1" stop-color="#150E42"/>
</linearGradient>
<linearGradient id="paint73_linear_438_8872" x1="48.048" y1="99.4484" x2="10.5871" y2="147.642" gradientUnits="userSpaceOnUse">
<stop stop-color="#E0CD4E"/>
<stop offset="1" stop-color="#F76025"/>
</linearGradient>
<linearGradient id="paint74_linear_438_8872" x1="77.2286" y1="87.9278" x2="28.3774" y2="129.497" gradientUnits="userSpaceOnUse">
<stop stop-color="#FDF53F"/>
<stop offset="0.6645" stop-color="#E57A58"/>
<stop offset="1" stop-color="#D93C65"/>
</linearGradient>
<linearGradient id="paint75_linear_438_8872" x1="68.2769" y1="107.326" x2="65.4221" y2="119.091" gradientUnits="userSpaceOnUse">
<stop stop-color="#F9B776"/>
<stop offset="1" stop-color="#F47960"/>
</linearGradient>
<clipPath id="clip0_438_8872">
<rect width="287" height="255.111" fill="white"/>
</clipPath>
</defs>
</svg>
