<svg width="288" height="256" viewBox="0 0 288 256" fill="none" xmlns="http://www.w3.org/2000/svg">
<g clip-path="url(#clip0_438_9168)">
<path opacity="0.16" d="M222.199 21.021C237.381 46.9777 293.282 21.9797 291.378 68.2474C289.161 122.433 234.537 135.536 250.997 174.595C267.457 213.619 246.876 255.342 176.392 250.832C105.934 246.287 -6.10404 192.456 22.6947 141.963C51.4933 91.4699 33.3637 87.8126 32.6855 64.803C32.0073 41.758 47.2674 -7.84748 100.665 36.9998C154.063 81.8471 183.774 -44.7054 222.199 21.021Z" fill="url(#paint0_linear_438_9168)"/>
<path opacity="0.16" d="M169.714 8.20261C188.026 23.8619 229.45 -19.4586 237.876 20.0625C247.71 66.3301 204.799 99.1755 226.998 125.274C249.223 151.373 240.98 194.552 180.983 218.981C120.986 243.411 15.521 243.163 28.7204 189.332C41.9198 135.501 25.9814 139.726 20.4251 120.729C14.8689 101.732 16.9296 54.0086 71.3707 70.2361C125.812 86.4635 123.334 -31.4605 169.714 8.20261Z" fill="url(#paint1_linear_438_9168)"/>
<path d="M76.6661 82.9127C76.64 81.1728 75.5183 79.7524 74.1358 79.7524H22.1468C20.7643 79.7524 19.3817 81.2438 19.3817 82.9837V239.399C19.3817 240.251 19.773 241.032 20.2425 241.636C20.7121 242.24 21.4164 242.559 22.0946 242.559L76.4574 242.382C77.1356 242.382 77.7878 242.027 78.2573 241.423C78.7268 240.819 78.9877 239.967 78.9877 239.115L76.6661 82.9127Z" fill="url(#paint2_linear_438_9168)"/>
<g opacity="0.5">
<path d="M38.3722 98.2167L23.5555 98.1812L23.4512 88.6294H38.2679L38.3722 98.2167Z" fill="white"/>
<path d="M54.9627 98.1812H40.1721L40.0677 88.6294H54.8845L54.9627 98.1812Z" fill="white"/>
<path d="M71.5533 98.1812H56.7627L56.6844 88.6294H71.4751L71.5533 98.1812Z" fill="white"/>
<path d="M38.5548 115.332H23.7641L23.6598 105.852H38.4504L38.5548 115.332Z" fill="white"/>
<path d="M55.1193 115.296L40.3547 115.332L40.2504 105.851H55.041L55.1193 115.296Z" fill="white"/>
<path d="M71.6836 115.296H56.9191L56.8408 105.851L71.6054 105.815L71.6836 115.296Z" fill="white"/>
<path d="M38.7374 132.306L23.9729 132.341L23.8685 122.896L38.6331 122.86L38.7374 132.306Z" fill="white"/>
<path d="M55.2758 132.27L40.5373 132.305L40.433 122.86H55.1975L55.2758 132.27Z" fill="white"/>
<path d="M71.8142 132.269H57.0757L56.9974 122.86L71.7359 122.824L71.8142 132.269Z" fill="white"/>
<path d="M38.92 149.243L24.1815 149.279L24.0771 139.869L38.8156 139.833L38.92 149.243Z" fill="white"/>
<path d="M55.4322 149.207L40.7198 149.243L40.6155 139.833L55.3539 139.797L55.4322 149.207Z" fill="white"/>
<path d="M71.9446 149.172L57.2322 149.207L57.1539 139.797H71.8663L71.9446 149.172Z" fill="white"/>
<path d="M39.1026 166.109L24.3902 166.145L24.2859 156.77L38.9983 156.735L39.1026 166.109Z" fill="white"/>
<path d="M55.5889 166.073L40.9026 166.109L40.7982 156.735L55.5106 156.699L55.5889 166.073Z" fill="white"/>
<path d="M72.049 166.038L57.3888 166.073L57.2844 156.699L71.9968 156.664L72.049 166.038Z" fill="white"/>
<path d="M39.2853 182.94L24.599 182.975L24.4946 173.637L39.1809 173.601L39.2853 182.94Z" fill="white"/>
<path d="M55.7454 182.869L41.0852 182.94L40.9808 173.601L55.6671 173.565L55.7454 182.869Z" fill="white"/>
<path d="M72.1794 182.833L57.5453 182.869L57.4409 173.53L72.1272 173.495L72.1794 182.833Z" fill="white"/>
<path d="M39.4678 199.7L24.8076 199.736L24.7032 190.432L39.3635 190.397L39.4678 199.7Z" fill="white"/>
<path d="M55.9018 199.629L41.2677 199.665L41.1633 190.397L55.8235 190.326L55.9018 199.629Z" fill="white"/>
<path d="M72.3098 199.558L57.6757 199.629L57.5974 190.326L72.2315 190.291L72.3098 199.558Z" fill="white"/>
<path d="M39.6505 216.389L25.0163 216.425L24.912 207.157L39.5461 207.122L39.6505 216.389Z" fill="white"/>
<path d="M56.0584 216.319L41.4243 216.39L41.3461 207.122L55.9541 207.051L56.0584 216.319Z" fill="white"/>
<path d="M72.4403 216.247L57.8323 216.318L57.754 207.051L72.3621 207.015L72.4403 216.247Z" fill="white"/>
<path d="M39.833 233.043L25.2249 233.078L25.1206 223.846L39.7286 223.775L39.833 233.043Z" fill="white"/>
<path d="M56.1887 232.972L41.6068 233.007L41.5024 223.775L56.1105 223.704L56.1887 232.972Z" fill="white"/>
<path d="M72.5445 232.901L57.9886 232.936L57.8843 223.704L72.4923 223.668L72.5445 232.901Z" fill="white"/>
</g>
<path d="M202.165 6.99536C207.147 27.2707 232.555 146.899 154.376 199.558C154.376 199.558 122.734 126.659 199.895 6.39172C200.6 5.32646 201.852 5.68155 202.165 6.99536Z" fill="url(#paint3_linear_438_9168)"/>
<path opacity="0.86" d="M197.261 27.4126C197.208 31.3185 196.974 35.189 196.713 39.0949C196.452 42.9653 196.113 46.8358 195.721 50.7062C194.939 58.4471 193.974 66.1169 192.8 73.7513C191.626 81.3856 190.296 88.9489 188.783 96.4767C187.27 104.005 185.6 111.461 183.774 118.847L183.096 121.617L182.366 124.386C181.87 126.233 181.4 128.079 180.905 129.89C179.887 133.512 178.896 137.17 177.774 140.791L176.966 143.49L176.575 144.839L176.157 146.189L174.462 151.55L174.044 152.9L173.601 154.249L172.714 156.912L171.827 159.575L171.383 160.889L170.914 162.203C165.984 176.264 160.48 189.971 154.428 203.215C154.271 203.535 153.958 203.642 153.697 203.428C153.463 203.215 153.384 202.789 153.541 202.434C159.619 189.296 165.149 175.661 170.105 161.635L170.575 160.321L171.018 159.007L171.905 156.344L172.792 153.681L173.236 152.367L173.679 151.018L175.401 145.692L175.818 144.342L176.235 142.993L177.044 140.294C178.14 136.708 179.157 133.086 180.2 129.464C180.722 127.653 181.192 125.807 181.661 123.996L182.392 121.262L183.096 118.492C184.974 111.142 186.644 103.72 188.183 96.2282C189.722 88.7359 191.078 81.1725 192.278 73.5737C193.452 65.9749 194.469 58.305 195.252 50.5997C195.643 46.7648 196.008 42.8943 196.269 39.0239C196.53 35.1535 196.765 31.283 196.843 27.4126C196.843 27.235 196.948 27.1285 197.078 27.1285C197.156 27.093 197.261 27.235 197.261 27.4126Z" fill="white"/>
<path d="M266.284 32.0995C266.518 30.1111 264.64 29.0103 263.727 30.6082C255.119 46.1964 231.537 86.1435 208.425 101.732C170.784 127.085 134.942 181.626 142.35 223.704C142.35 223.668 240.589 249.376 266.284 32.0995Z" fill="url(#paint4_linear_438_9168)"/>
<path opacity="0.43" d="M256.475 55.6775C256.293 56.2102 256.084 56.6363 255.902 57.1334L255.302 58.5182L254.076 61.2879C253.241 63.1343 252.406 64.9453 251.571 66.7917C249.876 70.4491 248.154 74.0354 246.38 77.6573C242.859 84.8301 239.207 91.8963 235.476 98.8914C231.746 105.887 227.885 112.74 223.92 119.486L222.433 122.008L220.921 124.529C219.903 126.198 218.912 127.902 217.895 129.535L214.816 134.507L211.686 139.407C203.313 152.403 194.47 164.795 184.974 176.3C184.687 176.655 184.4 177.01 184.087 177.365L183.174 178.431L181.374 180.526L179.575 182.621C178.975 183.331 178.349 183.97 177.722 184.68L175.87 186.704C175.244 187.379 174.644 188.089 174.018 188.728L170.236 192.634C165.097 197.747 159.802 202.505 154.297 206.802C154.245 206.837 154.167 206.802 154.115 206.731C154.089 206.66 154.089 206.553 154.167 206.482C159.619 202.079 164.836 197.215 169.897 192.03L173.653 188.089C174.279 187.45 174.879 186.74 175.505 186.065L177.331 184.005C177.931 183.331 178.557 182.656 179.157 181.946L180.957 179.815L182.757 177.685L183.644 176.62C183.931 176.265 184.218 175.91 184.531 175.519L188.026 171.151C189.2 169.696 190.322 168.169 191.47 166.713C192.044 165.967 192.617 165.221 193.191 164.476L194.861 162.203L196.53 159.931L197.365 158.794L198.2 157.623L201.487 152.971C202.582 151.409 203.652 149.811 204.721 148.248C205.269 147.467 205.817 146.686 206.339 145.869L207.93 143.455C208.973 141.857 210.069 140.259 211.086 138.626C219.46 125.7 227.338 112.172 234.902 98.3233C238.685 91.3991 242.337 84.3684 245.911 77.2312C247.685 73.6804 249.458 70.094 251.18 66.4721C252.041 64.6612 252.902 62.8503 253.736 61.0393L254.989 58.3052L255.615 56.9203C255.823 56.4587 256.032 55.9971 256.188 55.5355V55.5C256.215 55.429 256.293 55.3935 256.371 55.429C256.475 55.5 256.502 55.6065 256.475 55.6775Z" fill="white"/>
<path d="M143.185 232.652C143.185 232.652 151.454 212.27 174.723 202.292C196.322 193.025 248.337 173.069 265.918 154.001C266.701 153.149 267.77 154.32 267.327 155.528C262.475 168.453 248.415 199.558 219.72 219.976C182.705 246.323 143.185 232.652 143.185 232.652Z" fill="url(#paint5_linear_438_9168)"/>
<path opacity="0.45" d="M251.519 173.14C250.162 175.767 248.571 178.146 246.876 180.419C246.667 180.703 246.458 180.987 246.25 181.271L245.597 182.088L244.293 183.721L242.937 185.283C242.493 185.816 242.05 186.349 241.58 186.81C237.876 190.787 233.911 194.374 229.763 197.463C228.746 198.28 227.677 198.954 226.607 199.7C225.537 200.41 224.494 201.191 223.425 201.795L220.164 203.748C219.616 204.103 219.068 204.352 218.52 204.636L216.851 205.488L215.181 206.34L214.347 206.766L213.512 207.121L210.147 208.613C209.573 208.861 209.025 209.145 208.451 209.358L206.756 210.033L203.365 211.382L199.947 212.661C198.8 213.087 197.678 213.513 196.53 213.939C194.261 214.756 191.965 215.572 189.67 216.353C187.374 217.135 185.078 217.88 182.783 218.626L175.896 220.792C171.305 222.212 166.714 223.668 162.149 225.302C161.001 225.692 159.88 226.154 158.758 226.58C158.184 226.793 157.636 227.041 157.062 227.29C156.515 227.539 155.941 227.752 155.393 228.036C154.297 228.604 153.176 229.101 152.106 229.776L151.297 230.237C151.167 230.308 151.037 230.379 150.906 230.486L150.515 230.77L148.95 231.871C148.898 231.906 148.819 231.871 148.767 231.8C148.741 231.729 148.767 231.622 148.819 231.551C150.854 229.918 153.019 228.568 155.236 227.432C155.784 227.148 156.358 226.899 156.906 226.615C157.454 226.367 158.028 226.083 158.575 225.834C159.697 225.373 160.819 224.84 161.966 224.449C166.505 222.674 171.096 221.218 175.688 219.656C180.279 218.129 184.844 216.602 189.409 215.04C193.974 213.442 198.513 211.773 203.052 210.068L206.443 208.719L208.138 208.044C208.712 207.831 209.26 207.547 209.808 207.334L213.173 205.878L214.008 205.523L214.842 205.097L216.486 204.245C220.894 202.079 225.172 199.416 229.346 196.433C233.52 193.486 237.485 190.042 241.241 186.171C241.711 185.71 242.154 185.177 242.624 184.68L244.006 183.188L245.337 181.626L245.989 180.845C246.197 180.561 246.406 180.312 246.641 180.028C247.058 179.46 247.502 178.927 247.919 178.359L249.145 176.655C249.98 175.554 250.789 174.382 251.519 173.14C251.493 173.104 251.519 173.104 251.519 173.104C251.519 173.104 251.519 173.104 251.519 173.14Z" fill="white"/>
<path d="M57.0495 158.759C57.0235 158.155 56.3713 157.693 55.5627 157.693H6.36489C5.55623 157.693 4.66931 158.19 4.66931 158.794V243.482C4.66931 243.944 5.00843 244.37 5.45188 244.689C5.89534 245.009 6.5214 245.186 7.14746 245.186L56.8669 245.08C57.493 245.08 58.093 244.902 58.5364 244.583C58.9799 244.263 59.2147 243.802 59.2147 243.34L57.0495 158.759Z" fill="url(#paint6_linear_438_9168)"/>
<path d="M28.7988 163.694L12.7039 163.659L12.7299 162.167L28.7988 162.203V163.694Z" fill="white"/>
<path d="M28.8508 169.162L12.7037 169.091V167.6L28.8247 167.671L28.8508 169.162Z" fill="white"/>
<path d="M28.9031 174.666L12.6777 174.595V173.104L28.877 173.175L28.9031 174.666Z" fill="white"/>
<path d="M28.9291 180.241L12.6516 180.17V178.644L28.9291 178.715V180.241Z" fill="white"/>
<path d="M28.9813 185.852L12.6255 185.745V184.218L28.9813 184.289V185.852Z" fill="white"/>
<path d="M29.0596 197.214L12.5734 197.072V195.51L29.0596 195.652V197.214Z" fill="white"/>
<path d="M29.216 214.614L12.5211 214.436V212.838L29.1899 213.016L29.216 214.614Z" fill="white"/>
<path d="M29.0335 191.498L12.5995 191.391V189.829L29.0074 189.935L29.0335 191.498Z" fill="white"/>
<path d="M29.1117 202.967L12.5472 202.825L12.5733 201.262L29.1117 201.369V202.967Z" fill="white"/>
<path d="M29.1638 208.755L12.5211 208.613L12.5472 207.015L29.1638 207.157V208.755Z" fill="white"/>
<path d="M29.2681 220.508L12.4689 220.331L12.495 218.697L29.242 218.875L29.2681 220.508Z" fill="white"/>
<path d="M29.3203 226.473L12.4689 226.26V224.627L29.2942 224.84L29.3203 226.473Z" fill="white"/>
<path d="M29.3463 232.474L12.4427 232.226V230.592L29.3463 230.805V232.474Z" fill="white"/>
<path d="M29.3987 238.511L12.4169 238.262V236.629L29.3987 236.842V238.511Z" fill="white"/>
<path d="M49.9021 163.73L33.7028 163.694L33.6768 162.203L49.8499 162.239L49.9021 163.73Z" fill="white"/>
<path d="M50.0325 169.234L33.7811 169.163L33.755 167.671L49.9804 167.742L50.0325 169.234Z" fill="white"/>
<path d="M50.163 174.773L33.8333 174.702L33.8073 173.175L50.1369 173.246L50.163 174.773Z" fill="white"/>
<path d="M50.2935 180.348L33.9116 180.277L33.8855 178.75L50.2674 178.821L50.2935 180.348Z" fill="white"/>
<path d="M50.4238 185.958L33.9637 185.887L33.9376 184.325L50.3977 184.431L50.4238 185.958Z" fill="white"/>
<path d="M50.7108 197.356L34.0941 197.25V195.688L50.6586 195.794L50.7108 197.356Z" fill="white"/>
<path d="M51.1281 214.827L34.3028 214.649L34.2767 213.051L51.076 213.229L51.1281 214.827Z" fill="white"/>
<path d="M50.5803 191.64L34.042 191.533L34.0159 189.971L50.5282 190.077L50.5803 191.64Z" fill="white"/>
<path d="M50.8411 203.144L34.1723 203.002L34.1462 201.404L50.8151 201.546L50.8411 203.144Z" fill="white"/>
<path d="M50.9717 208.968L34.2246 208.79V207.192L50.9456 207.37L50.9717 208.968Z" fill="white"/>
<path d="M51.2586 220.757L34.3811 220.579L34.355 218.946L51.2325 219.123L51.2586 220.757Z" fill="white"/>
<path d="M51.4151 226.722L34.4593 226.509L34.4332 224.875L51.3629 225.089L51.4151 226.722Z" fill="white"/>
<path d="M51.5455 232.758L34.5114 232.51L34.4854 230.876L51.5194 231.09L51.5455 232.758Z" fill="white"/>
<path d="M51.702 238.795L34.5897 238.582L34.5636 236.913L51.6498 237.162L51.702 238.795Z" fill="white"/>
<path d="M19.46 173.388C25.851 175.909 62.6059 192.669 57.2583 242.452C57.2583 242.452 30.9639 239.896 18.7557 174.311C18.6514 173.743 19.0427 173.211 19.46 173.388Z" fill="url(#paint7_linear_438_9168)"/>
<path opacity="0.86" d="M23.5816 180.49C27.4945 184.467 31.0421 188.977 34.4072 193.735L35.6593 195.546C36.0767 196.149 36.468 196.789 36.8853 197.392L38.0853 199.239L38.6853 200.162L39.2591 201.121C40.0417 202.399 40.8243 203.677 41.5808 204.956L43.7981 208.897L44.3459 209.891L44.8676 210.885L45.911 212.909C46.6153 214.259 47.3196 215.608 47.9718 216.993L49.9543 221.183C50.1108 221.538 50.2673 221.893 50.4239 222.248L50.8934 223.313L51.8064 225.444C53.0846 228.285 54.1541 231.232 55.3019 234.179L55.7193 235.28C55.8758 235.635 55.9801 236.026 56.1106 236.416L56.867 238.653L58.4061 243.163C58.5365 243.518 58.4061 243.944 58.1452 244.121C57.8844 244.299 57.5714 244.121 57.4409 243.766V243.731L55.954 239.221L55.1976 236.984C55.0671 236.629 54.9628 236.239 54.8063 235.848L54.3889 234.747C53.2672 231.836 52.2238 228.853 50.9977 226.048L50.1108 223.917L49.6674 222.852C49.5109 222.497 49.3804 222.142 49.1978 221.787L47.2675 217.597C46.6414 216.176 45.9371 214.862 45.2589 213.513L44.2415 211.489L43.7198 210.459L43.172 209.465L41.0069 205.524C40.2504 204.245 39.4939 202.967 38.7374 201.689L38.1635 200.73L37.5636 199.807L36.3636 197.96C35.9723 197.357 35.5811 196.718 35.1637 196.114L33.9377 194.303C30.6248 189.509 27.1032 184.929 23.2686 180.987C23.1642 180.881 23.1642 180.703 23.2164 180.561C23.3468 180.419 23.4773 180.384 23.5816 180.49Z" fill="white"/>
<path d="M53.9454 43.427C53.3194 77.4797 51.3108 194.942 52.2759 236.558C52.3803 240.961 54.9889 244.512 58.2235 244.654C74.2402 245.364 120.334 247.175 146.55 245.684C152.002 245.364 156.358 239.363 156.463 231.906C157.01 196.149 158.21 95.6246 155.367 49.57C155.028 44.0662 151.845 39.6631 147.802 39.095C130.351 36.7159 84.0223 30.8925 61.3799 32.9165C57.2583 33.3071 54.0498 37.8522 53.9454 43.427Z" fill="url(#paint8_linear_438_9168)"/>
<path d="M60.4669 54.0087C59.5799 81.883 56.8409 174.667 57.7018 208.968C57.8322 213.975 60.7277 218.023 64.4058 218.342C79.5616 219.55 118.429 222.213 140.628 219.798C144.62 219.372 147.776 214.969 147.985 209.501C149.106 181.058 152.341 94.666 151.506 60.7199C151.376 55.3226 148.298 50.884 144.333 50.3869C127.951 48.3984 85.8483 43.6047 66.9622 45.0251C63.4406 45.3092 60.6234 49.1796 60.4669 54.0087Z" fill="#59BAFB"/>
<path opacity="0.5" d="M93.5436 38.8818C93.5436 39.9116 94.1435 40.7993 94.9 40.8348C98.6825 41.1189 109.352 41.8646 114.099 42.2552C115.038 42.3262 115.769 41.1899 115.586 39.9116L115.56 39.6985C115.43 38.8463 114.908 38.2072 114.282 38.1007C111.047 37.7101 101.343 36.5738 94.9 36.8934C94.1435 36.9644 93.5436 37.8521 93.5436 38.8818Z" fill="white"/>
<path opacity="0.6" d="M73.3531 64.8385C73.3531 66.2588 75.1531 67.3951 77.4747 67.5016C88.9003 67.8567 121.116 68.8864 135.516 69.4191C138.359 69.5256 140.576 67.9632 140.054 66.2588L139.976 65.9747C139.611 64.803 138.02 63.9508 136.089 63.8442C126.359 63.3116 96.9869 61.7847 77.553 62.2108C75.1791 62.2108 73.3531 63.4181 73.3531 64.8385Z" fill="white"/>
<path opacity="0.6" d="M73.3531 75.7755C73.3531 77.1958 75.1531 78.3321 77.4747 78.4386C88.9003 78.7937 121.116 79.8235 135.516 80.3561C138.359 80.4626 140.576 78.9002 140.054 77.1958L139.976 76.9118C139.611 75.74 138.02 74.8878 136.089 74.7812C126.359 74.2486 96.9869 72.7217 77.553 73.1479C75.1791 73.1834 73.3531 74.3551 73.3531 75.7755Z" fill="white"/>
<path d="M75.8573 162.061C90.1784 161.138 126.881 159.008 140.472 160.534C142.872 160.818 144.698 163.553 144.698 166.855C144.698 166.926 144.698 166.997 144.698 167.068C144.646 173.957 140.68 179.638 135.62 180.064C121.534 181.307 92.3957 183.437 77.1616 181.555C73.3792 181.094 70.3272 177.152 69.8055 172.039C69.8055 171.968 69.8055 171.897 69.7794 171.862C69.2837 166.819 72.1271 162.31 75.8573 162.061Z" fill="url(#paint9_linear_438_9168)"/>
<path d="M75.8052 170.725C83.6832 171.293 136.063 173.388 143.967 163.481C143.237 161.848 141.933 160.712 140.446 160.57C126.855 159.007 90.1524 161.138 75.8313 162.097C73.0402 162.274 70.7446 164.866 69.962 168.275C70.849 169.482 72.5706 170.477 75.8052 170.725Z" fill="#F7D33E"/>
<path d="M71.475 153.291C81.5963 152.474 121.325 149.527 139.298 152.367C140.681 152.58 141.567 154.427 141.202 156.238C140.915 157.623 140.446 159.291 139.689 160.889C139.22 161.919 138.359 162.239 137.498 162.594C124.794 168.027 95.2131 170.69 73.5879 164.085C73.5879 164.085 70.8229 163.801 69.5447 156.983C69.2316 155.173 70.1446 153.397 71.475 153.291Z" fill="url(#paint10_linear_438_9168)"/>
<path d="M88.7178 144.023L70.7707 151.338C70.3795 151.515 70.4055 152.261 70.7968 152.367C75.8836 153.965 93.1263 159.611 102.83 164.937C106.9 167.175 111.438 167.317 115.586 165.293C125.16 160.641 140.941 152.9 141.672 151.906C142.715 150.485 138.568 146.438 128.499 145.585C118.429 144.698 88.7178 144.023 88.7178 144.023Z" fill="#F7D33E"/>
<path d="M72.2575 133.725C71.475 136.744 70.7706 142.105 73.927 148.071C74.9965 150.059 76.6921 151.231 78.492 151.267C88.0133 151.338 121.429 151.551 132.855 150.698C135.75 150.485 138.385 148.106 139.533 144.484C140.367 141.857 140.498 138.554 138.489 134.862C137.55 133.122 136.037 132.092 134.42 132.056L74.8922 131.24C73.7183 131.204 72.6488 132.198 72.2575 133.725Z" fill="url(#paint11_linear_438_9168)"/>
<path d="M83.318 130.636C83.318 130.636 90.8046 134.862 94.561 138.199C98.3173 141.537 99.4651 139.265 102.961 139.797C106.456 140.33 111.986 144.91 114.464 141.218C116.916 137.525 112.404 132.092 118.586 131.027C124.742 129.961 83.318 130.636 83.318 130.636Z" fill="url(#paint12_linear_438_9168)"/>
<path d="M121.299 130.813C121.299 130.813 137.211 126.943 141.776 128.718C146.341 130.494 146.55 131.701 143.159 134.684C139.768 137.667 138.594 138.377 133.011 138.199C127.481 138.022 112.56 136.459 121.299 130.813Z" fill="url(#paint13_linear_438_9168)"/>
<path d="M90.9089 131.879C90.9089 131.879 74.9966 128.008 70.4316 129.784C65.8666 131.559 65.6579 132.767 69.049 135.749C72.4402 138.732 73.614 139.442 79.1964 139.265C84.7266 139.087 99.6476 137.489 90.9089 131.879Z" fill="url(#paint14_linear_438_9168)"/>
<path d="M102.282 87.5997C80.4224 88.8425 70.4837 110.574 69.1012 124.316C71.4228 126.162 79.2746 128.115 104.604 126.801C128.29 125.558 136.976 124.564 140.289 122.789C138.985 110.645 132.594 85.8598 102.282 87.5997Z" fill="url(#paint15_linear_438_9168)"/>
<path d="M69.1012 124.315C68.9447 125.913 68.8925 127.405 68.9708 128.754C69.1012 131.417 69.9099 133.867 71.8402 134.08C82.6397 135.358 115.925 138.377 137.42 130.529C139.402 129.819 140.681 127.263 140.472 124.493C140.42 123.96 140.368 123.357 140.315 122.753C137.002 124.528 128.316 125.523 104.63 126.765C79.2747 128.115 71.4228 126.162 69.1012 124.315Z" fill="#F7D33E"/>
<path d="M90.022 92.1447C92.1089 90.9729 92.0828 93.2099 90.022 95.1274C87.9613 97.0803 86.5265 94.0976 90.022 92.1447Z" fill="#F7D33E"/>
<path d="M96.9869 90.9375C94.6392 90.9375 91.9524 94.6304 94.9261 94.0978C97.8999 93.5651 99.1781 90.9375 96.9869 90.9375Z" fill="#F7D33E"/>
<path d="M93.6479 96.3699C91.6132 97.0446 91.9784 99.5302 94.1696 98.6425C96.3608 97.7903 95.1869 95.8373 93.6479 96.3699Z" fill="#F7D33E"/>
<path d="M101.891 89.6945C100.352 89.9075 99.3085 93.0323 101.891 92.4997C104.474 91.967 104.343 89.3394 101.891 89.6945Z" fill="#F7D33E"/>
<path d="M99.439 97.2579C97.7956 97.7195 96.4652 103.046 99.439 102.549C102.413 102.016 102.021 96.5477 99.439 97.2579Z" fill="#F7D33E"/>
<path d="M106.169 97.6128C105.126 97.7904 103.717 102.726 105.647 102.016C107.578 101.306 108.099 97.2577 106.169 97.6128Z" fill="#F7D33E"/>
<path d="M107.578 90.9375C106.143 90.9375 104.734 92.8905 108.099 93.21C111.464 93.5651 109.769 90.9375 107.578 90.9375Z" fill="#F7D33E"/>
<path d="M113.917 90.9372C112.247 90.5111 111.073 92.8902 113.264 93.0322C115.456 93.2098 115.977 91.4699 113.917 90.9372Z" fill="#F7D33E"/>
<path d="M110.03 96.1926C109.273 95.5177 109.247 97.2582 110.682 97.6134C112.091 97.9686 110.813 96.903 110.03 96.1926Z" fill="#F7D33E"/>
<path d="M119.212 94.9853C117.569 93.4939 114.177 94.4527 118.299 96.9382C122.421 99.3528 120.751 96.3701 119.212 94.9853Z" fill="#F7D33E"/>
<path d="M83.8136 98.8558C85.6917 97.1514 86.9178 99.566 84.9874 100.951C83.0571 102.336 81.8832 100.596 83.8136 98.8558Z" fill="#F7D33E"/>
<path d="M107.291 123.57C107.082 123.57 106.926 123.357 106.899 123.108C106.873 122.824 107.03 122.54 107.239 122.504C108.021 122.362 108.804 122.22 109.56 122.078C109.769 122.043 109.978 122.22 110.004 122.54C110.03 122.824 109.899 123.108 109.665 123.143C108.908 123.286 108.125 123.428 107.343 123.57C107.317 123.57 107.291 123.57 107.291 123.57Z" fill="white"/>
<path d="M97.613 123.783C84.9614 123.783 73.9793 122.362 73.8488 122.327C73.6402 122.291 73.4836 122.043 73.4836 121.759C73.5097 121.475 73.6923 121.262 73.901 121.262C74.0575 121.297 89.3438 123.286 104.656 122.54C104.865 122.54 105.047 122.753 105.047 123.073C105.047 123.357 104.891 123.605 104.656 123.605C102.308 123.747 99.9346 123.783 97.613 123.783Z" fill="white"/>
<path d="M147.828 96.1571C161.673 96.1571 172.896 80.8794 172.896 62.0334C172.896 43.1874 161.673 27.9097 147.828 27.9097C133.983 27.9097 122.76 43.1874 122.76 62.0334C122.76 80.8794 133.983 96.1571 147.828 96.1571Z" fill="url(#paint16_linear_438_9168)"/>
<path d="M167.992 71.5855C167.471 74.1066 166.688 76.5922 165.671 78.8293C165.54 79.1133 165.41 79.3974 165.279 79.6815L164.862 80.4982C164.575 81.0308 164.288 81.5634 163.949 82.0605C163.636 82.5577 163.297 83.0548 162.984 83.5519C162.801 83.8005 162.645 84.0135 162.462 84.2621L162.201 84.6171L161.94 84.9367C159.045 88.4876 155.367 90.9022 151.506 91.7899C147.645 92.6776 143.576 92.0029 139.95 89.9079L139.272 89.5173L138.62 89.0557C138.411 88.9137 138.176 88.7361 137.968 88.5941C137.759 88.4166 137.524 88.2745 137.315 88.097C136.481 87.4223 135.672 86.6056 134.889 85.7889C134.133 84.9367 133.403 84.0135 132.75 83.0193C132.098 82.025 131.472 80.9953 130.898 79.859C128.655 75.4204 127.351 70.1297 127.22 64.7679C127.064 59.4061 128.055 53.9733 130.064 49.3572C130.298 48.789 130.585 48.2209 130.846 47.6527L131.264 46.836C131.394 46.552 131.551 46.3034 131.707 46.0549C132.333 45.0251 132.985 44.0309 133.69 43.1076C135.124 41.2967 136.742 39.6988 138.489 38.527C139.35 37.9234 140.263 37.3908 141.202 36.9647C142.115 36.5386 143.08 36.1835 144.046 35.9349C145.976 35.4378 147.932 35.3668 149.863 35.6153C150.124 35.6509 150.28 35.9349 150.254 36.29C150.228 36.6096 150.019 36.8581 149.784 36.8581C147.932 36.7161 146.054 36.8937 144.254 37.4618C143.341 37.7459 142.454 38.1009 141.594 38.527C140.733 38.9531 139.898 39.4858 139.063 40.0894C135.802 42.4685 133.09 46.0904 131.264 50.4224C130.82 51.5232 130.403 52.6239 130.064 53.7957C129.725 54.9675 129.438 56.1393 129.229 57.3466C129.02 58.5539 128.838 59.7967 128.759 61.0395L128.733 61.5011L128.707 61.9627C128.707 62.2823 128.681 62.6018 128.681 62.8859C128.681 63.5251 128.655 64.1287 128.681 64.7679C128.811 69.7391 130.011 74.6748 132.072 78.7937C132.594 79.8235 133.168 80.7822 133.768 81.741C134.394 82.6642 135.046 83.5164 135.75 84.3331C136.455 85.1143 137.211 85.86 137.994 86.4991C138.176 86.6766 138.385 86.8187 138.594 86.9607C138.802 87.1027 138.985 87.2803 139.194 87.4223L139.794 87.8484L140.42 88.239L140.733 88.4166L141.046 88.5941C141.254 88.7006 141.463 88.8072 141.698 88.9137C142.141 89.0912 142.559 89.3043 143.002 89.4818C143.889 89.8369 144.802 90.05 145.689 90.2275C146.602 90.405 147.515 90.4406 148.428 90.4761C149.341 90.4406 150.254 90.3695 151.167 90.192C154.819 89.4463 158.315 87.2803 161.132 84.0135L161.393 83.6939L161.653 83.3744C161.836 83.1613 161.993 82.9482 162.175 82.7352C162.488 82.2736 162.827 81.8475 163.14 81.3504C163.453 80.8888 163.74 80.3916 164.027 79.8945L164.445 79.1133C164.575 78.8648 164.706 78.5807 164.836 78.3321C165.853 76.2371 166.662 73.8936 167.236 71.479C167.288 71.2304 167.497 71.0884 167.679 71.1594C167.94 71.0884 168.045 71.337 167.992 71.5855Z" fill="white"/>
<path d="M147.463 39.2727L148.976 36.0414L148.324 32.313L153.958 37.1777L147.463 39.2727Z" fill="white"/>
<path d="M134.368 73.0412V69.7389L136.533 67.1823C140.42 62.4596 142.063 60.1161 142.115 57.6305C142.115 55.7485 141.359 54.2216 139.376 54.2216C137.915 54.2216 136.611 55.3224 135.698 56.3166L134.524 52.4107C135.829 50.8838 137.837 49.7476 140.159 49.7476C143.733 49.7476 145.924 52.6593 145.924 57.0978C145.924 60.7907 144.046 63.7734 141.62 66.6496L140.002 68.4606V68.5316H146.263V73.0767H134.368V73.0412Z" fill="white"/>
<path d="M155.654 73.0412V67.5729H148.219V63.9865L154.375 50.1382H159.306V63.4539H161.262V67.5729H159.306V73.0412H155.654ZM155.654 63.4894V58.3052C155.654 56.8493 155.706 55.429 155.758 53.8666H155.654C155.106 55.429 154.636 56.8493 154.089 58.3407L151.871 63.4184L151.845 63.4894H155.654Z" fill="white"/>
<path d="M84.9092 193.167H125.394C128.29 193.167 130.507 196.682 130.09 200.588L129.385 207.015C129.046 210.175 127.038 212.519 124.69 212.519H84.9092C82.3007 212.519 80.1616 209.642 80.1616 206.056V199.629C80.1616 196.043 82.2746 193.167 84.9092 193.167Z" fill="url(#paint17_linear_438_9168)"/>
<path d="M90.4655 208.471C87.9091 208.471 86.2917 206.091 86.2917 202.967C86.2917 199.629 88.0395 197.214 90.5959 197.214C93.2306 197.214 94.8218 199.593 94.8218 202.754C94.8218 206.127 93.074 208.471 90.4655 208.471ZM90.5698 206.482C91.9785 206.482 92.8393 204.92 92.8393 202.86C92.8393 200.907 92.0045 199.238 90.5698 199.238C89.1351 199.238 88.3004 200.872 88.3004 202.896C88.3004 204.884 89.1873 206.482 90.5698 206.482Z" fill="white"/>
<path d="M96.0999 197.534C96.726 197.392 97.6651 197.285 98.7346 197.285C100.039 197.285 100.874 197.569 101.474 198.173C101.943 198.67 102.256 199.451 102.256 200.481C102.256 201.937 101.421 202.86 100.795 203.144V203.215C101.343 203.535 101.682 204.245 101.891 205.168C102.152 206.411 102.413 207.831 102.569 208.293H100.639C100.508 207.973 100.3 207.192 100.039 205.772C99.778 204.422 99.4128 204.067 98.6042 204.032H97.952V208.293H96.0739L96.0999 197.534ZM97.9781 202.221H98.8389C99.8041 202.221 100.404 201.653 100.404 200.694C100.404 199.664 99.8302 199.203 98.9694 199.203C98.4477 199.203 98.1607 199.238 98.0042 199.274L97.9781 202.221Z" fill="white"/>
<path d="M103.613 197.534C104.369 197.356 105.334 197.285 106.326 197.285C108.021 197.285 109.117 197.676 109.978 198.528C110.865 199.38 111.412 200.658 111.412 202.54C111.412 204.6 110.812 205.985 110.03 206.872C109.091 207.938 107.63 208.399 105.908 208.399C104.839 208.399 104.082 208.328 103.613 208.222V197.534ZM105.517 206.375C105.7 206.411 106.013 206.411 106.273 206.411C108.23 206.446 109.43 205.133 109.43 202.647C109.43 200.374 108.282 199.238 106.508 199.238C106.013 199.238 105.7 199.309 105.517 199.345V206.375Z" fill="white"/>
<path d="M117.882 203.748H114.569V206.198H118.273V208.293H112.691V197.427H118.09V199.522H114.569V201.688H117.882V203.748Z" fill="white"/>
<path d="M119.577 197.534C120.203 197.392 121.142 197.285 122.212 197.285C123.516 197.285 124.351 197.569 124.951 198.173C125.42 198.67 125.733 199.451 125.733 200.481C125.733 201.937 124.899 202.86 124.273 203.144V203.215C124.82 203.535 125.16 204.245 125.368 205.168C125.629 206.411 125.89 207.831 126.047 208.293H124.116C123.986 207.973 123.777 207.192 123.516 205.772C123.255 204.422 122.89 204.067 122.081 204.032H121.429V208.293H119.551L119.577 197.534ZM121.429 202.221H122.29C123.255 202.221 123.855 201.653 123.855 200.694C123.855 199.664 123.281 199.203 122.421 199.203C121.899 199.203 121.612 199.238 121.455 199.274L121.429 202.221Z" fill="white"/>
<path d="M248.78 139.087C246.119 146.437 242.937 148.994 239.911 149.242C234.563 149.704 229.816 142.851 229.816 142.851L226.033 155.492C230.52 158.972 237.902 159.895 240.746 159.327C249.797 157.48 251.493 140.33 251.493 140.33L248.78 139.087Z" fill="url(#paint18_linear_438_9168)"/>
<path d="M173.94 224.982C173.497 225.338 173.262 226.119 173.366 226.9C173.784 229.883 175.166 237.801 178.557 242.488C178.766 242.808 179.105 242.772 179.288 242.488C178.427 241.281 177.383 239.221 176.131 235.706C174.227 230.273 173.862 226.971 173.94 224.982Z" fill="url(#paint19_linear_438_9168)"/>
<path d="M178.27 224.876C178.27 224.876 176.105 223.278 173.94 224.982C173.94 224.982 173.94 224.982 173.914 224.982C173.862 226.935 174.227 230.273 176.105 235.671C177.331 239.186 178.401 241.245 179.262 242.453C179.314 242.382 179.366 242.24 179.392 242.098C180.044 239.15 181.374 230.841 178.27 224.876Z" fill="url(#paint20_linear_438_9168)"/>
<path d="M181.427 225.053L179.47 227.61C179.131 228.072 178.583 228.143 178.192 227.788C177.853 227.468 177.462 226.935 177.201 226.119C177.044 225.622 177.122 225.018 177.383 224.627L179.34 221.68C179.809 220.97 180.644 221.076 181.009 221.929L181.635 223.349C181.844 223.882 181.766 224.592 181.427 225.053Z" fill="url(#paint21_linear_438_9168)"/>
<path d="M245.05 212.164C245.519 212.519 246.119 212.412 246.563 211.915C248.258 209.927 252.641 204.387 253.945 198.067C254.023 197.641 253.867 197.286 253.58 197.179C253.241 198.777 252.432 201.05 250.789 204.281C248.284 209.181 246.354 211.241 245.05 212.164Z" fill="url(#paint22_linear_438_9168)"/>
<path d="M242.833 207.05C242.833 207.05 242.885 210.424 245.05 212.128C245.05 212.128 245.05 212.128 245.076 212.128C246.354 211.205 248.311 209.145 250.815 204.245C252.458 201.049 253.241 198.777 253.606 197.143C253.528 197.108 253.423 197.108 253.319 197.143C251.076 197.925 245.102 200.446 242.833 207.05Z" fill="url(#paint23_linear_438_9168)"/>
<path d="M242.676 201.475L244.737 203.925C245.102 204.352 245.206 205.062 244.972 205.665C244.763 206.163 244.424 206.731 243.824 207.157C243.459 207.405 243.041 207.37 242.702 207.05L240.38 204.636C239.833 204.068 239.833 202.931 240.407 202.363L241.398 201.404C241.789 201.014 242.337 201.049 242.676 201.475Z" fill="url(#paint24_linear_438_9168)"/>
<path d="M201.408 176.797C201.408 176.797 197.391 195.403 194.809 203.606C194.809 203.606 190.27 204.565 187.452 206.766C184.635 209.003 178.583 221.396 178.583 221.396C178.583 221.396 180.174 225.479 182.079 226.118L199.295 209.891L213.043 188.124L212.39 178.04L201.408 176.797Z" fill="url(#paint25_linear_438_9168)"/>
<path d="M201.643 175.27L200.469 180.383C200.469 180.383 201.539 193.734 213.929 191.497C226.32 189.26 227.859 186.491 227.859 186.491C227.859 186.491 226.79 195.013 240.328 205.31C240.328 205.31 242.389 203.18 242.832 200.801L233.337 179.531C232.007 176.726 230.781 176.016 228.381 176.513C223.059 177.649 213.069 179.14 211.556 178.785L201.643 175.27Z" fill="url(#paint26_linear_438_9168)"/>
<path d="M208.347 147.893L211.634 146.935L208.347 147.893Z" fill="url(#paint27_linear_438_9168)"/>
<path d="M248.415 141.395C248.415 141.395 247.502 137.951 248.415 137.56C249.328 137.17 260.884 137.56 260.884 137.56C260.884 137.56 257.336 141.36 256.11 141.395C254.884 141.431 252.51 140.792 252.51 140.792L248.415 141.395Z" fill="url(#paint28_linear_438_9168)"/>
<path d="M266.623 105.176L265.005 104.75L265.527 101.128C265.71 99.8855 265.162 98.6072 264.249 98.2521C260.91 96.9383 257.519 97.6485 255.249 98.4297C254.336 98.7492 253.762 99.9565 253.919 101.235L254.362 104.75L252.745 105.141L252.302 101.625C251.989 99.1753 253.084 96.8673 254.832 96.2636C257.284 95.3759 260.988 94.6302 264.692 96.0861C266.414 96.7607 267.484 99.1753 267.144 101.554L266.623 105.176Z" fill="#F7D33E"/>
<path d="M237.328 135.927C237.876 135.678 281.544 135.927 281.544 135.927C281.544 135.927 282.274 102.655 259.345 102.797C236.415 102.904 237.328 135.927 237.328 135.927Z" fill="url(#paint29_linear_438_9168)"/>
<path d="M236.963 134.4H282.326C283.239 134.4 283.683 135.891 283.004 136.743L281.831 138.27C281.648 138.519 281.387 138.625 281.152 138.625H237.824C237.511 138.625 237.224 138.412 237.041 138.093L236.18 136.566C235.659 135.714 236.128 134.4 236.963 134.4Z" fill="url(#paint30_linear_438_9168)"/>
<path d="M240.902 128.825C240.746 128.825 240.641 128.647 240.641 128.434C240.641 128.399 241.059 122.93 243.302 117.462C245.389 112.384 249.484 106.241 257.31 105.78C257.467 105.78 257.571 105.922 257.571 106.135C257.571 106.312 257.467 106.49 257.31 106.49C251.232 106.845 246.667 110.644 243.745 117.782C241.554 123.143 241.163 128.434 241.137 128.505C241.163 128.683 241.033 128.825 240.902 128.825Z" fill="white"/>
<path d="M211.321 137.383C207.721 137.631 202.008 139.975 198.33 144.591C194.104 149.917 192.539 158.262 199.921 169.909C200.808 169.553 201.356 169.127 201.721 168.666C200.939 166.464 198.148 157.374 202.504 151.799C203.678 150.308 205.321 149.101 207.669 148.284C205.634 158.617 203.234 168.417 200.313 177.578C200.13 178.147 200.339 178.821 200.782 178.999C203.052 180.064 209.704 182.621 215.051 178.502L226.894 155.386C228.172 152.9 229.007 150.059 229.346 147.041L229.816 142.887C229.816 142.887 219.173 136.815 211.321 137.383Z" fill="url(#paint31_linear_438_9168)"/>
<path d="M204.852 172.323C204.33 170.76 202.582 169.34 201.721 168.701C201.721 168.665 201.695 168.665 201.695 168.63C201.356 169.091 200.782 169.553 199.895 169.873C199.921 169.908 199.921 169.944 199.947 169.944C199.53 172.82 200.86 176.193 201.591 176.655C201.93 176.903 205.53 174.382 204.852 172.323Z" fill="url(#paint32_linear_438_9168)"/>
<path d="M217.242 116.077C217.477 115.793 223.425 112.491 222.199 110.467C221.86 109.899 221.599 109.189 221.546 108.443C221.39 106.81 220.633 104.466 217.477 105.531C215.26 106.277 214.321 107.662 213.929 108.869C213.512 110.218 212.651 111.177 211.582 111.426C210.33 111.71 209.025 112.669 209.286 115.332C209.338 115.829 209.312 116.326 209.234 116.788C208.869 119.025 208.217 125.132 213.486 120.765C213.669 120.622 213.851 120.445 214.008 120.232L217.242 116.077Z" fill="url(#paint33_linear_438_9168)"/>
<path d="M212.156 120.125L217.477 128.008L223.425 121.652L220.607 112.526C220.216 111.284 219.225 110.609 218.286 110.929C215.808 111.816 213.747 113.698 212.077 116.574C211.451 117.64 211.503 119.131 212.156 120.125Z" fill="url(#paint34_linear_438_9168)"/>
<path d="M219.329 131.24L216.225 139.478C216.042 139.975 216.094 140.578 216.355 141.005C217.112 142.141 218.886 143.987 221.964 142.673C222.303 142.531 222.538 142.105 222.59 141.644L223.399 134.151L219.329 131.24Z" fill="url(#paint35_linear_438_9168)"/>
<path d="M224.494 121.652C224.494 121.652 226.32 127.334 226.425 130.316C226.555 133.299 227.024 135.217 224.494 135.82C221.964 136.424 219.825 134.719 218.677 131.737C218.677 131.737 216.877 127.156 217.268 125.274C217.66 123.428 224.494 121.652 224.494 121.652Z" fill="url(#paint36_linear_438_9168)"/>
<path d="M219.538 129.606L219.668 129.535C219.851 129.429 219.929 129.145 219.851 128.896C219.486 127.973 218.807 125.807 219.694 125.31C220.842 124.671 225.433 123.392 226.425 121.191C227.39 119.06 226.529 116.291 225.277 115.509C225.198 115.474 225.094 115.509 225.042 115.616L224.938 115.9C224.859 116.078 224.677 116.042 224.625 115.864C224.572 115.687 224.39 115.651 224.312 115.793C223.999 116.468 223.19 117.533 220.999 118.102C217.868 118.883 215.808 120.623 215.755 123.534C215.755 123.712 215.599 123.818 215.495 123.712C215.26 123.534 214.895 123.428 214.399 123.996C213.538 124.99 213.903 127.511 215.782 129.606C215.86 129.713 215.86 129.89 215.782 129.997C215.442 130.316 214.921 131.027 216.251 131.985C217.608 132.98 218.625 132.909 219.016 132.802C219.121 132.767 219.173 132.66 219.147 132.518L218.729 129.926C218.703 129.784 218.781 129.642 218.886 129.642L219.538 129.606Z" fill="black"/>
<path d="M219.616 130.139C219.616 130.139 218.912 126.517 217.738 127.511C216.538 128.541 218.364 131.595 219.329 131.701L219.616 130.139Z" fill="url(#paint37_linear_438_9168)"/>
<path d="M81.9875 222.035L83.5005 206.624C83.5527 206.198 83.1614 205.808 82.8744 205.95L72.1532 211.347C71.9184 211.453 71.9184 211.915 72.1793 212.199L73.6662 213.833C73.8488 214.046 73.927 214.365 73.7966 214.578L67.223 225.763C67.0925 225.976 67.1708 226.296 67.3534 226.509L72.1793 231.764C72.3619 231.977 72.6227 231.977 72.7271 231.8L79.3007 220.615C79.4311 220.402 79.6659 220.437 79.8485 220.65L81.3354 222.284C81.6223 222.461 81.9353 222.39 81.9875 222.035Z" fill="white"/>
<path d="M72.4924 232.475C72.2837 232.475 72.075 232.368 71.8924 232.191L67.0665 226.935C66.91 226.758 66.7796 226.509 66.7274 226.225C66.6753 225.906 66.7013 225.586 66.8578 225.337L73.3793 214.259L71.8924 212.625C71.6315 212.341 71.5011 211.915 71.5272 211.489C71.5794 211.134 71.7359 210.85 71.9967 210.743L82.718 205.346C83.0049 205.204 83.318 205.275 83.5788 205.595C83.8397 205.879 83.9701 206.305 83.944 206.695L82.4311 222.106C82.405 222.461 82.2224 222.745 81.9876 222.887C81.7007 223.029 81.3615 222.958 81.1007 222.674L79.6138 221.041L73.0924 232.12C72.9358 232.368 72.7271 232.475 72.4924 232.475ZM67.6143 225.977L72.4402 231.232L78.9617 220.153C79.2225 219.692 79.7442 219.656 80.1355 220.082L81.5702 221.645L83.0571 206.553C83.0571 206.518 83.031 206.482 83.0049 206.482L72.5185 211.773L73.9532 213.336C74.3445 213.762 74.4227 214.472 74.1619 214.933L67.6143 225.977Z" fill="#0A5794"/>
<path d="M143.289 188.799C143.185 188.799 143.081 188.799 142.95 188.799C142.82 188.799 142.689 188.621 142.689 188.444C142.689 188.266 142.82 188.089 142.95 188.089C143.081 188.089 143.185 188.089 143.289 188.089C143.42 188.089 143.576 188.089 143.707 188.089C143.837 188.089 143.967 188.231 143.967 188.444C143.967 188.621 143.863 188.799 143.707 188.799C143.602 188.764 143.446 188.799 143.289 188.799ZM141.15 188.586H141.124C140.863 188.55 140.602 188.479 140.342 188.408C140.211 188.373 140.107 188.195 140.133 187.982C140.159 187.769 140.289 187.663 140.446 187.698C140.707 187.769 140.968 187.805 141.202 187.876C141.333 187.911 141.437 188.089 141.437 188.266C141.385 188.479 141.255 188.586 141.15 188.586ZM145.559 188.586C145.428 188.586 145.324 188.444 145.298 188.266C145.272 188.089 145.376 187.911 145.533 187.876C145.793 187.84 146.054 187.769 146.289 187.734C146.42 187.698 146.576 187.84 146.602 188.018C146.628 188.195 146.524 188.408 146.393 188.444C146.133 188.515 145.872 188.55 145.611 188.586C145.585 188.586 145.559 188.586 145.559 188.586ZM148.115 187.911C148.011 187.911 147.906 187.805 147.854 187.627C147.828 187.45 147.906 187.237 148.037 187.201C148.298 187.13 148.532 187.024 148.767 186.917C148.898 186.846 149.054 186.953 149.08 187.166C149.132 187.343 149.054 187.556 148.898 187.592C148.637 187.698 148.402 187.805 148.141 187.876C148.167 187.911 148.141 187.911 148.115 187.911ZM138.594 187.876C138.568 187.876 138.542 187.876 138.516 187.876C138.255 187.769 137.994 187.663 137.759 187.556C137.629 187.485 137.55 187.272 137.603 187.095C137.655 186.917 137.811 186.811 137.942 186.882C138.176 186.988 138.437 187.095 138.672 187.201C138.802 187.272 138.881 187.45 138.855 187.627C138.802 187.769 138.698 187.876 138.594 187.876ZM150.593 186.811C150.489 186.811 150.385 186.74 150.358 186.597C150.306 186.42 150.358 186.207 150.515 186.136C150.75 185.994 150.985 185.887 151.219 185.745C151.35 185.674 151.506 185.745 151.558 185.923C151.611 186.1 151.558 186.313 151.428 186.384C151.193 186.526 150.932 186.668 150.698 186.811C150.645 186.811 150.619 186.811 150.593 186.811ZM152.967 185.355C152.863 185.355 152.784 185.284 152.732 185.177C152.68 185 152.706 184.787 152.837 184.716C153.071 184.538 153.306 184.396 153.515 184.218C153.645 184.112 153.802 184.183 153.88 184.36C153.958 184.538 153.906 184.751 153.776 184.858C153.541 185.035 153.306 185.213 153.071 185.355C153.045 185.355 152.993 185.355 152.967 185.355ZM155.21 183.544C155.132 183.544 155.028 183.473 155.002 183.366C154.923 183.189 154.95 182.976 155.08 182.869C155.289 182.692 155.523 182.478 155.732 182.265C155.863 182.159 156.019 182.194 156.097 182.336C156.176 182.478 156.15 182.727 156.045 182.834C155.836 183.047 155.602 183.224 155.393 183.437C155.315 183.544 155.263 183.544 155.21 183.544ZM157.323 181.484C157.245 181.484 157.167 181.449 157.115 181.342C157.036 181.2 157.036 180.952 157.167 180.845C157.376 180.632 157.558 180.419 157.767 180.17C157.871 180.028 158.054 180.064 158.132 180.206C158.21 180.348 158.21 180.561 158.106 180.703C157.897 180.916 157.689 181.165 157.506 181.378C157.454 181.449 157.376 181.484 157.323 181.484ZM159.306 179.176C159.228 179.176 159.175 179.141 159.123 179.07C159.019 178.928 159.019 178.715 159.123 178.573C159.306 178.324 159.488 178.075 159.671 177.827C159.775 177.685 159.932 177.685 160.036 177.827C160.141 177.969 160.141 178.182 160.036 178.324C159.854 178.573 159.671 178.821 159.462 179.07C159.436 179.141 159.358 179.176 159.306 179.176ZM161.132 176.62C161.08 176.62 161.001 176.584 160.949 176.549C160.845 176.407 160.819 176.193 160.923 176.051C161.106 175.803 161.262 175.519 161.445 175.27C161.523 175.128 161.706 175.093 161.81 175.235C161.914 175.377 161.941 175.59 161.836 175.732C161.654 176.016 161.497 176.264 161.315 176.549C161.262 176.584 161.184 176.62 161.132 176.62ZM162.775 173.85C162.723 173.85 162.671 173.814 162.619 173.779C162.514 173.672 162.488 173.424 162.567 173.282C162.723 172.998 162.88 172.714 163.01 172.43C163.088 172.252 163.245 172.216 163.375 172.359C163.506 172.465 163.532 172.678 163.427 172.856C163.271 173.14 163.114 173.424 162.958 173.743C162.932 173.814 162.854 173.85 162.775 173.85ZM164.236 170.903C164.184 170.903 164.132 170.903 164.106 170.867C163.975 170.761 163.949 170.548 164.027 170.37C164.158 170.086 164.288 169.766 164.419 169.482C164.497 169.305 164.653 169.269 164.784 169.34C164.914 169.411 164.94 169.66 164.862 169.837C164.732 170.157 164.601 170.441 164.445 170.761C164.393 170.867 164.314 170.903 164.236 170.903ZM165.54 167.849C165.488 167.849 165.462 167.849 165.41 167.813C165.28 167.707 165.227 167.494 165.306 167.316C165.436 166.997 165.54 166.677 165.671 166.393C165.723 166.216 165.906 166.145 166.01 166.251C166.114 166.358 166.193 166.571 166.114 166.748C165.984 167.068 165.88 167.387 165.749 167.707C165.723 167.778 165.619 167.849 165.54 167.849ZM166.688 164.653C166.662 164.653 166.61 164.653 166.584 164.618C166.453 164.547 166.401 164.334 166.453 164.156C166.558 163.836 166.662 163.517 166.766 163.197C166.819 163.02 166.975 162.949 167.106 163.02C167.236 163.091 167.288 163.304 167.236 163.481C167.132 163.801 167.027 164.121 166.923 164.44C166.897 164.582 166.793 164.653 166.688 164.653ZM167.732 161.422C167.706 161.422 167.679 161.422 167.627 161.386C167.497 161.315 167.419 161.102 167.497 160.925C167.601 160.605 167.706 160.286 167.784 159.931C167.836 159.753 167.992 159.646 168.123 159.717C168.253 159.789 168.332 160.002 168.279 160.179C168.175 160.499 168.097 160.854 167.992 161.173C167.94 161.315 167.836 161.422 167.732 161.422ZM168.671 158.084C168.645 158.084 168.619 158.084 168.592 158.049C168.462 157.978 168.384 157.765 168.436 157.587C168.514 157.267 168.619 156.912 168.697 156.593C168.749 156.415 168.905 156.309 169.036 156.38C169.166 156.451 169.245 156.664 169.192 156.841C169.114 157.196 169.01 157.516 168.932 157.836C168.879 158.013 168.775 158.084 168.671 158.084ZM169.532 154.746C169.505 154.746 169.479 154.746 169.453 154.746C169.323 154.675 169.245 154.498 169.297 154.285C169.375 153.93 169.453 153.61 169.532 153.255C169.584 153.077 169.714 152.971 169.871 153.042C170.027 153.113 170.079 153.29 170.053 153.468C169.975 153.823 169.897 154.143 169.818 154.498C169.74 154.64 169.636 154.746 169.532 154.746ZM170.314 151.337C170.288 151.337 170.262 151.337 170.236 151.337C170.105 151.266 170.027 151.089 170.053 150.911C170.131 150.556 170.21 150.237 170.262 149.882C170.314 149.704 170.445 149.598 170.575 149.633C170.705 149.704 170.784 149.882 170.758 150.059C170.679 150.414 170.601 150.734 170.549 151.089C170.523 151.266 170.418 151.337 170.314 151.337ZM171.018 147.929C170.992 147.929 170.966 147.929 170.94 147.929C170.81 147.893 170.731 147.68 170.758 147.503L170.966 146.473C171.018 146.295 171.149 146.189 171.279 146.224C171.41 146.26 171.488 146.473 171.462 146.65L171.253 147.68C171.253 147.858 171.149 147.929 171.018 147.929ZM171.723 144.52C171.697 144.52 171.671 144.52 171.644 144.52C171.514 144.484 171.436 144.271 171.462 144.094L171.671 143.064C171.697 142.886 171.853 142.744 171.984 142.815C172.114 142.851 172.192 143.064 172.166 143.242L171.957 144.271C171.931 144.413 171.827 144.52 171.723 144.52ZM172.375 141.076C172.349 141.076 172.323 141.076 172.297 141.076C172.166 141.04 172.088 140.827 172.114 140.649L172.323 139.62C172.349 139.442 172.505 139.3 172.636 139.371C172.766 139.407 172.844 139.62 172.818 139.797L172.61 140.827C172.61 140.969 172.505 141.076 172.375 141.076ZM173.053 137.667C173.027 137.667 173.001 137.667 172.975 137.667C172.844 137.631 172.766 137.418 172.792 137.241L173.001 136.211C173.053 136.033 173.184 135.891 173.314 135.962C173.444 135.998 173.523 136.211 173.497 136.388L173.288 137.418C173.288 137.56 173.184 137.667 173.053 137.667ZM173.757 134.222C173.731 134.222 173.705 134.222 173.679 134.222C173.549 134.187 173.47 133.974 173.497 133.796L173.705 132.766C173.757 132.589 173.888 132.482 174.018 132.518C174.149 132.553 174.227 132.766 174.201 132.944L173.992 133.974C173.966 134.116 173.862 134.222 173.757 134.222ZM174.488 130.814C174.462 130.814 174.436 130.814 174.41 130.814C174.279 130.743 174.201 130.565 174.227 130.387C174.305 130.032 174.383 129.713 174.462 129.358C174.514 129.18 174.644 129.074 174.775 129.109C174.905 129.18 174.983 129.358 174.957 129.535C174.879 129.89 174.801 130.21 174.723 130.565C174.696 130.707 174.592 130.814 174.488 130.814ZM175.244 127.44C175.218 127.44 175.192 127.44 175.166 127.44C175.036 127.369 174.957 127.192 174.983 126.979C175.062 126.624 175.14 126.304 175.218 125.949C175.27 125.771 175.401 125.665 175.557 125.736C175.688 125.807 175.766 125.984 175.714 126.197C175.636 126.552 175.557 126.872 175.479 127.227C175.453 127.334 175.349 127.44 175.244 127.44ZM176.079 124.067C176.053 124.067 176.027 124.067 176.001 124.067C175.87 123.996 175.792 123.818 175.844 123.605C175.923 123.25 176.001 122.931 176.105 122.611C176.157 122.434 176.314 122.327 176.444 122.398C176.575 122.469 176.653 122.682 176.601 122.86C176.523 123.179 176.418 123.534 176.34 123.854C176.288 123.96 176.183 124.067 176.079 124.067ZM176.914 120.694C176.888 120.694 176.862 120.694 176.836 120.658C176.705 120.587 176.627 120.374 176.679 120.196C176.757 119.877 176.862 119.522 176.94 119.202C176.992 119.025 177.149 118.918 177.279 118.989C177.409 119.06 177.488 119.273 177.436 119.451C177.357 119.77 177.253 120.125 177.175 120.445C177.122 120.623 177.018 120.694 176.914 120.694ZM177.827 117.356C177.801 117.356 177.775 117.356 177.749 117.32C177.618 117.249 177.54 117.036 177.592 116.859C177.67 116.539 177.775 116.184 177.879 115.864C177.931 115.687 178.088 115.58 178.218 115.651C178.349 115.722 178.427 115.935 178.375 116.113C178.27 116.433 178.192 116.788 178.088 117.107C178.035 117.285 177.931 117.356 177.827 117.356ZM178.766 114.053C178.74 114.053 178.714 114.053 178.662 114.018C178.531 113.947 178.453 113.734 178.505 113.556C178.609 113.237 178.688 112.882 178.792 112.562C178.844 112.385 179.001 112.278 179.131 112.385C179.262 112.456 179.34 112.669 179.262 112.846C179.157 113.166 179.079 113.521 178.975 113.84C178.975 113.982 178.87 114.053 178.766 114.053ZM179.731 110.751C179.705 110.751 179.653 110.751 179.627 110.716C179.496 110.645 179.418 110.432 179.496 110.254C179.601 109.934 179.705 109.579 179.809 109.26C179.861 109.082 180.018 108.976 180.148 109.082C180.279 109.153 180.357 109.366 180.279 109.544C180.175 109.863 180.07 110.183 179.966 110.538C179.94 110.68 179.835 110.751 179.731 110.751ZM180.774 107.484C180.748 107.484 180.696 107.484 180.67 107.449C180.54 107.378 180.488 107.165 180.54 106.987C180.644 106.668 180.748 106.348 180.853 105.993C180.905 105.816 181.061 105.744 181.192 105.816C181.322 105.887 181.374 106.1 181.322 106.277C181.218 106.597 181.114 106.916 181.009 107.236C180.957 107.413 180.853 107.484 180.774 107.484ZM181.818 104.253C181.792 104.253 181.74 104.253 181.714 104.218C181.583 104.147 181.531 103.934 181.583 103.756C181.687 103.436 181.792 103.117 181.922 102.797C181.974 102.62 182.131 102.549 182.261 102.62C182.392 102.691 182.444 102.904 182.392 103.081C182.287 103.401 182.183 103.72 182.079 104.04C182.027 104.182 181.922 104.253 181.818 104.253ZM182.94 101.057C182.887 101.057 182.861 101.057 182.835 101.022C182.705 100.951 182.653 100.738 182.705 100.56C182.809 100.241 182.94 99.9211 183.044 99.6015C183.096 99.424 183.253 99.3529 183.383 99.424C183.513 99.495 183.566 99.7435 183.513 99.8856C183.409 100.205 183.279 100.525 183.174 100.844C183.122 100.986 183.044 101.057 182.94 101.057ZM184.113 97.8616C184.061 97.8616 184.035 97.8616 183.983 97.8261C183.853 97.7196 183.8 97.5065 183.879 97.329C184.009 97.0094 184.14 96.6898 184.244 96.3702C184.322 96.1927 184.479 96.1217 184.609 96.2282C184.74 96.3347 184.792 96.5478 184.713 96.7253C184.583 97.0449 184.453 97.3645 184.348 97.6485C184.296 97.7906 184.218 97.8616 184.113 97.8616ZM185.392 94.7723C185.339 94.7723 185.313 94.7723 185.261 94.7368C185.131 94.6303 185.105 94.4173 185.183 94.2397C185.313 93.9201 185.444 93.6361 185.6 93.3165C185.679 93.1389 185.835 93.1034 185.966 93.21C186.096 93.3165 186.122 93.5295 186.044 93.7071C185.913 93.9912 185.783 94.3107 185.626 94.5948C185.574 94.7013 185.47 94.7723 185.392 94.7723ZM186.8 91.7896C186.748 91.7896 186.696 91.7541 186.644 91.7186C186.513 91.6121 186.487 91.399 186.592 91.2215C186.748 90.9374 186.905 90.6534 187.061 90.3338C187.139 90.1917 187.322 90.1562 187.426 90.2628C187.531 90.3693 187.557 90.5823 187.479 90.7599C187.322 91.0439 187.166 91.328 187.035 91.6121C186.983 91.7541 186.879 91.7896 186.8 91.7896ZM188.392 88.9845C188.339 88.9845 188.261 88.9489 188.209 88.9134C188.105 88.7714 188.079 88.5583 188.183 88.4163C188.365 88.1322 188.522 87.8837 188.705 87.5996C188.809 87.4576 188.965 87.4576 189.07 87.5641C189.174 87.7061 189.174 87.9192 189.096 88.0612C188.913 88.3098 188.757 88.5939 188.574 88.8424C188.548 88.9489 188.47 88.9845 188.392 88.9845ZM190.191 86.3923C190.113 86.3923 190.061 86.3568 190.009 86.2858C189.905 86.1438 189.905 85.9307 190.009 85.7887C190.191 85.5401 190.4 85.2916 190.583 85.043C190.687 84.901 190.844 84.9365 190.948 85.0785C191.052 85.2205 191.026 85.4691 190.922 85.5756C190.739 85.7887 190.531 86.0372 190.348 86.2858C190.322 86.3568 190.244 86.3923 190.191 86.3923ZM192.174 84.1198C192.096 84.1198 192.017 84.0843 191.965 83.9777C191.887 83.8357 191.913 83.5872 192.017 83.4806C192.2 83.3031 192.383 83.1255 192.591 82.948L192.67 82.877C192.8 82.7705 192.957 82.806 193.035 82.9835C193.113 83.161 193.087 83.3741 192.957 83.4806L192.878 83.5516C192.696 83.7292 192.513 83.9067 192.33 84.0843C192.304 84.1198 192.226 84.1198 192.174 84.1198ZM194.391 82.2378C194.287 82.2378 194.209 82.1668 194.156 82.0603C194.078 81.8827 194.13 81.6697 194.261 81.5632C194.496 81.3856 194.73 81.2436 194.965 81.066C195.096 80.995 195.252 81.066 195.304 81.2436C195.356 81.4211 195.304 81.6342 195.174 81.7052C194.939 81.8472 194.704 82.0248 194.496 82.2023C194.47 82.2378 194.443 82.2378 194.391 82.2378ZM196.765 80.7465C196.661 80.7465 196.556 80.6754 196.53 80.5334C196.478 80.3559 196.53 80.1428 196.687 80.0718C196.922 79.9298 197.182 79.8232 197.417 79.6812C197.548 79.6102 197.704 79.7167 197.756 79.8943C197.808 80.0718 197.73 80.2849 197.6 80.3559C197.365 80.4624 197.13 80.6044 196.869 80.7465C196.817 80.7465 196.791 80.7465 196.765 80.7465ZM199.217 79.5747C199.113 79.5747 199.008 79.4682 198.956 79.3261C198.904 79.1486 198.982 78.9355 199.139 78.9C199.4 78.7935 199.634 78.687 199.895 78.5804C200.026 78.5449 200.182 78.6515 200.208 78.829C200.261 79.0065 200.156 79.2196 200.026 79.2551C199.765 79.3616 199.53 79.4682 199.295 79.5392C199.269 79.5747 199.243 79.5747 199.217 79.5747ZM201.721 78.6515C201.591 78.6515 201.487 78.5449 201.461 78.3674C201.434 78.1898 201.513 77.9768 201.643 77.9413C201.904 77.8703 202.165 77.7637 202.4 77.6927C202.53 77.6572 202.687 77.7637 202.713 77.9768C202.739 78.1898 202.66 78.3674 202.504 78.4029C202.243 78.4739 202.008 78.5804 201.747 78.6515C201.774 78.6515 201.747 78.6515 201.721 78.6515ZM204.278 77.8348C204.147 77.8348 204.043 77.7282 204.017 77.5507C203.991 77.3731 204.069 77.1601 204.226 77.1246C204.486 77.0536 204.747 76.9826 204.982 76.9115C205.113 76.876 205.269 76.9826 205.295 77.1956C205.321 77.3731 205.243 77.5862 205.086 77.6217C204.826 77.6927 204.565 77.7637 204.33 77.8348C204.304 77.8348 204.304 77.8348 204.278 77.8348ZM206.834 77.1246C206.704 77.1246 206.599 77.0181 206.573 76.8405C206.547 76.663 206.625 76.4499 206.782 76.4144C207.043 76.3434 207.304 76.2724 207.538 76.2014C207.669 76.1659 207.825 76.2724 207.852 76.4854C207.878 76.663 207.799 76.876 207.643 76.9115C207.382 76.9826 207.121 77.0536 206.886 77.1246C206.86 77.1246 206.834 77.1246 206.834 77.1246ZM209.364 76.3789C209.234 76.3789 209.13 76.2724 209.104 76.0948C209.078 75.9173 209.156 75.7043 209.312 75.6687C209.573 75.5977 209.808 75.4912 210.069 75.4202C210.199 75.3847 210.356 75.4912 210.382 75.6687C210.408 75.8463 210.33 76.0593 210.199 76.0948C209.938 76.1659 209.678 76.2724 209.443 76.3434C209.417 76.3434 209.391 76.3789 209.364 76.3789ZM211.895 75.4912C211.79 75.4912 211.686 75.3847 211.634 75.2426C211.582 75.0651 211.686 74.852 211.817 74.8165C212.077 74.71 212.312 74.6035 212.573 74.5325C212.703 74.4614 212.86 74.568 212.886 74.781C212.912 74.9941 212.86 75.1716 212.703 75.2071C212.443 75.3137 212.208 75.4202 211.947 75.5267C211.947 75.4912 211.921 75.4912 211.895 75.4912ZM214.373 74.3904C214.269 74.3904 214.164 74.3194 214.138 74.1419C214.086 73.9643 214.164 73.7513 214.295 73.6803C214.529 73.5737 214.79 73.4317 215.025 73.2897C215.156 73.2186 215.312 73.3252 215.364 73.5027C215.416 73.6803 215.364 73.8933 215.208 73.9643C214.973 74.1064 214.712 74.2129 214.477 74.3549C214.451 74.3904 214.425 74.3904 214.373 74.3904ZM216.799 73.0056C216.695 73.0056 216.616 72.9346 216.564 72.7925C216.512 72.615 216.564 72.402 216.695 72.3309L216.747 72.2954C216.955 72.1534 217.164 72.0114 217.399 71.8693C217.529 71.7628 217.686 71.8338 217.738 72.0114C217.816 72.1889 217.764 72.402 217.634 72.5085C217.425 72.6505 217.19 72.8281 216.982 72.9701L216.929 73.0056C216.877 73.0056 216.825 73.0056 216.799 73.0056ZM219.068 71.3012C218.99 71.3012 218.886 71.2302 218.86 71.1236C218.781 70.9461 218.808 70.7331 218.938 70.6265C219.147 70.449 219.381 70.2359 219.59 70.0229C219.721 69.9164 219.877 69.9519 219.955 70.0939C220.034 70.2359 220.007 70.4845 219.903 70.591C219.694 70.8041 219.46 70.9816 219.251 71.1947C219.173 71.2657 219.121 71.3012 219.068 71.3012ZM221.155 69.1707C221.077 69.1707 220.999 69.1352 220.947 69.0286C220.842 68.8866 220.868 68.638 220.973 68.5315C221.181 68.3185 221.364 68.0699 221.547 67.8214C221.651 67.6793 221.807 67.6793 221.912 67.8569C222.016 68.0344 221.99 68.2119 221.886 68.354C221.703 68.6025 221.494 68.8511 221.286 69.0641C221.286 69.1352 221.207 69.1707 221.155 69.1707ZM223.033 66.6851C222.981 66.6851 222.903 66.6496 222.851 66.6141C222.746 66.472 222.72 66.259 222.825 66.1169C223.007 65.8684 223.164 65.5843 223.32 65.3358C223.399 65.1937 223.581 65.1582 223.686 65.3002C223.79 65.4423 223.816 65.6553 223.738 65.7974C223.581 66.0814 223.399 66.3655 223.216 66.6141C223.164 66.6496 223.086 66.6851 223.033 66.6851ZM224.599 63.8799C224.546 63.8799 224.494 63.8444 224.468 63.8089C224.338 63.7024 224.312 63.4893 224.39 63.3118C224.52 63.0277 224.651 62.7081 224.781 62.4241C224.859 62.2465 225.016 62.211 225.146 62.282C225.277 62.3885 225.303 62.6016 225.251 62.7791C225.12 63.0987 224.99 63.4183 224.833 63.7024C224.781 63.8089 224.677 63.8799 224.599 63.8799ZM225.825 60.7551C225.799 60.7551 225.746 60.7551 225.72 60.7196C225.59 60.6486 225.538 60.4356 225.59 60.258C225.694 59.9384 225.799 59.6189 225.877 59.2993C225.929 59.1218 226.085 59.0152 226.216 59.0862C226.346 59.1573 226.425 59.3703 226.372 59.5479C226.294 59.8674 226.19 60.2225 226.085 60.5421C226.033 60.6486 225.929 60.7551 225.825 60.7551ZM226.633 57.3818C226.607 57.3818 226.607 57.3818 226.581 57.3818C226.451 57.3463 226.346 57.1688 226.372 56.9557C226.425 56.6362 226.477 56.2811 226.503 55.926C226.529 55.7129 226.659 55.6064 226.79 55.6419C226.92 55.6774 227.025 55.855 226.998 56.0325C226.946 56.3876 226.92 56.7427 226.868 57.0978C226.842 57.2398 226.738 57.3818 226.633 57.3818ZM226.92 53.831C226.764 53.831 226.659 53.6534 226.659 53.4759V53.2628C226.659 52.9788 226.659 52.6947 226.633 52.4106C226.633 52.1976 226.738 52.0556 226.894 52.02C227.051 52.02 227.155 52.1621 227.155 52.3396C227.155 52.6237 227.181 52.9078 227.181 53.2273V53.4404C227.181 53.6889 227.051 53.831 226.92 53.831ZM226.685 50.3156C226.555 50.3156 226.451 50.2091 226.425 50.0316C226.372 49.6765 226.32 49.3569 226.268 49.0018C226.242 48.8243 226.32 48.6112 226.451 48.5757C226.581 48.5402 226.738 48.6467 226.764 48.8243C226.816 49.1794 226.894 49.5344 226.946 49.8895C226.972 50.0671 226.868 50.2801 226.738 50.3156C226.712 50.3156 226.712 50.3156 226.685 50.3156ZM225.955 46.9068C225.851 46.9068 225.746 46.8358 225.72 46.6938C225.616 46.3742 225.512 46.0546 225.407 45.735C225.355 45.5575 225.407 45.3444 225.538 45.2734C225.668 45.2024 225.825 45.2734 225.877 45.451C225.981 45.7705 226.112 46.0901 226.19 46.4452C226.242 46.6227 226.19 46.8358 226.059 46.9068C226.033 46.9068 225.981 46.9068 225.955 46.9068ZM214.529 46.3032C214.451 46.3032 214.373 46.2677 214.321 46.1611C214.164 45.8416 214.034 45.522 213.929 45.1314C213.877 44.9538 213.956 44.7408 214.086 44.6698C214.216 44.5988 214.373 44.7053 214.425 44.8828C214.503 45.2024 214.634 45.4865 214.764 45.735C214.843 45.8771 214.816 46.1256 214.712 46.2321C214.634 46.3032 214.582 46.3032 214.529 46.3032ZM224.729 43.7821C224.651 43.7821 224.573 43.711 224.52 43.64C224.364 43.356 224.207 43.0719 224.051 42.8233C223.973 42.6813 223.973 42.4327 224.077 42.3262C224.181 42.2197 224.364 42.2197 224.442 42.3617C224.599 42.6458 224.781 42.9299 224.912 43.2139C224.99 43.356 224.964 43.6045 224.859 43.711C224.807 43.7821 224.781 43.7821 224.729 43.7821ZM213.956 42.9299H213.929C213.799 42.8943 213.695 42.7168 213.695 42.5393C213.721 42.1487 213.773 41.7936 213.877 41.4385C213.93 41.261 214.06 41.1544 214.19 41.1899C214.321 41.261 214.399 41.4385 214.373 41.616C214.295 41.9356 214.243 42.2552 214.216 42.5748C214.216 42.7878 214.086 42.9299 213.956 42.9299ZM222.981 41.1544C222.929 41.1544 222.851 41.1189 222.799 41.0834C222.616 40.8704 222.407 40.6573 222.199 40.4443C222.068 40.3377 222.068 40.1247 222.147 39.9471C222.225 39.8051 222.407 39.7696 222.512 39.8761C222.72 40.0892 222.929 40.3022 223.138 40.5508C223.242 40.6928 223.268 40.9059 223.164 41.0479C223.112 41.1189 223.033 41.1544 222.981 41.1544ZM215.077 39.8051C214.999 39.8051 214.921 39.7696 214.869 39.6986C214.764 39.5565 214.79 39.308 214.895 39.2015C214.947 39.1304 214.999 39.0594 215.077 39.0239C215.234 38.8464 215.416 38.7043 215.599 38.5623C215.729 38.4558 215.886 38.5268 215.964 38.7043C216.042 38.8819 215.99 39.0949 215.86 39.2015C215.703 39.308 215.547 39.45 215.416 39.592C215.364 39.6276 215.312 39.6986 215.26 39.7341C215.208 39.8051 215.156 39.8051 215.077 39.8051ZM220.764 39.2725C220.738 39.2725 220.686 39.2725 220.66 39.237C220.425 39.0949 220.19 38.9884 219.955 38.8819C219.825 38.8109 219.747 38.6333 219.773 38.4558C219.825 38.2782 219.955 38.1717 220.086 38.2072C220.347 38.3137 220.607 38.4558 220.842 38.5978C220.973 38.6688 221.025 38.8819 220.973 39.0594C220.973 39.2015 220.868 39.2725 220.764 39.2725ZM217.477 38.4913C217.347 38.4913 217.242 38.3492 217.216 38.1717C217.19 37.9587 217.295 37.8166 217.451 37.7811C217.66 37.7456 217.842 37.7456 218.051 37.7456C218.129 37.7456 218.181 37.7456 218.26 37.7456C218.39 37.7456 218.521 37.9231 218.521 38.1007C218.521 38.3137 218.39 38.4558 218.26 38.4558C218.181 38.4558 218.129 38.4558 218.051 38.4558C217.868 38.4558 217.686 38.4558 217.529 38.4913C217.477 38.4913 217.477 38.4913 217.477 38.4913Z" fill="white"/>
</g>
<defs>
<linearGradient id="paint0_linear_438_9168" x1="289.585" y1="131.615" x2="19.0402" y2="123.917" gradientUnits="userSpaceOnUse">
<stop stop-color="#564DF7"/>
<stop offset="1" stop-color="#2205F7"/>
</linearGradient>
<linearGradient id="paint1_linear_438_9168" x1="250.045" y1="73.8733" x2="10.9656" y2="128.001" gradientUnits="userSpaceOnUse">
<stop stop-color="#FF42D8"/>
<stop offset="1" stop-color="#8D07E0"/>
</linearGradient>
<linearGradient id="paint2_linear_438_9168" x1="19.3843" y1="161.197" x2="78.9855" y2="161.197" gradientUnits="userSpaceOnUse">
<stop stop-color="#E0CD4E"/>
<stop offset="1" stop-color="#F76025"/>
</linearGradient>
<linearGradient id="paint3_linear_438_9168" x1="147.97" y1="102.662" x2="210.076" y2="102.662" gradientUnits="userSpaceOnUse">
<stop stop-color="#047EE0"/>
<stop offset="0.239" stop-color="#057BE1"/>
<stop offset="0.4313" stop-color="#0871E3"/>
<stop offset="0.6074" stop-color="#0D60E7"/>
<stop offset="0.7738" stop-color="#1448EC"/>
<stop offset="0.932" stop-color="#1D2AF3"/>
<stop offset="1" stop-color="#221AF7"/>
</linearGradient>
<linearGradient id="paint4_linear_438_9168" x1="228.044" y1="36.8155" x2="122.116" y2="252.312" gradientUnits="userSpaceOnUse">
<stop offset="0.3976" stop-color="#1BE060"/>
<stop offset="0.5644" stop-color="#0AAF43"/>
<stop offset="0.6729" stop-color="#009433"/>
</linearGradient>
<linearGradient id="paint5_linear_438_9168" x1="202.281" y1="180.191" x2="219.725" y2="222.451" gradientUnits="userSpaceOnUse">
<stop stop-color="#047EE0"/>
<stop offset="1" stop-color="#221AF7"/>
</linearGradient>
<linearGradient id="paint6_linear_438_9168" x1="4.67975" y1="201.438" x2="59.1994" y2="201.438" gradientUnits="userSpaceOnUse">
<stop stop-color="#8F1A15"/>
<stop offset="1" stop-color="#372B29"/>
</linearGradient>
<linearGradient id="paint7_linear_438_9168" x1="56.8586" y1="208.232" x2="23.8263" y2="207.921" gradientUnits="userSpaceOnUse">
<stop stop-color="#047EE0"/>
<stop offset="1" stop-color="#221AF7"/>
</linearGradient>
<linearGradient id="paint8_linear_438_9168" x1="52.0206" y1="139.393" x2="157.165" y2="139.393" gradientUnits="userSpaceOnUse">
<stop stop-color="#27368C"/>
<stop offset="1" stop-color="#60349D"/>
</linearGradient>
<linearGradient id="paint9_linear_438_9168" x1="106.792" y1="201.046" x2="108.562" y2="124.342" gradientUnits="userSpaceOnUse">
<stop offset="0.1173" stop-color="#E0CD67"/>
<stop offset="0.1684" stop-color="#E5B762"/>
<stop offset="0.2654" stop-color="#ED9259"/>
<stop offset="0.3559" stop-color="#F27852"/>
<stop offset="0.4365" stop-color="#F6684E"/>
<stop offset="0.4993" stop-color="#F7624D"/>
</linearGradient>
<linearGradient id="paint10_linear_438_9168" x1="105.404" y1="147.162" x2="105.404" y2="157.533" gradientUnits="userSpaceOnUse">
<stop offset="0.2911" stop-color="#8F1A15"/>
<stop offset="1" stop-color="#372B29"/>
</linearGradient>
<linearGradient id="paint11_linear_438_9168" x1="102.805" y1="159.244" x2="114.193" y2="119.504" gradientUnits="userSpaceOnUse">
<stop stop-color="#C21D17"/>
<stop offset="0.0933" stop-color="#BD1B16"/>
<stop offset="0.2078" stop-color="#AE1711"/>
<stop offset="0.3328" stop-color="#95100B"/>
<stop offset="0.4393" stop-color="#7A0803"/>
</linearGradient>
<linearGradient id="paint12_linear_438_9168" x1="83.305" y1="136.525" x2="119.191" y2="136.525" gradientUnits="userSpaceOnUse">
<stop stop-color="#1BE060"/>
<stop offset="1" stop-color="#009433"/>
</linearGradient>
<linearGradient id="paint13_linear_438_9168" x1="118.622" y1="133.248" x2="145.5" y2="133.248" gradientUnits="userSpaceOnUse">
<stop stop-color="#1BE060"/>
<stop offset="1" stop-color="#009433"/>
</linearGradient>
<linearGradient id="paint14_linear_438_9168" x1="93.5903" y1="134.303" x2="66.7131" y2="134.303" gradientUnits="userSpaceOnUse">
<stop stop-color="#1BE060"/>
<stop offset="1" stop-color="#009433"/>
</linearGradient>
<linearGradient id="paint15_linear_438_9168" x1="56.7243" y1="142.283" x2="172.932" y2="104.158" gradientUnits="userSpaceOnUse">
<stop stop-color="#E0CD67"/>
<stop offset="0.1847" stop-color="#E6B260"/>
<stop offset="0.7429" stop-color="#F7624D"/>
</linearGradient>
<linearGradient id="paint16_linear_438_9168" x1="109.241" y1="62.0191" x2="187.797" y2="62.0191" gradientUnits="userSpaceOnUse">
<stop stop-color="#E0CD4E"/>
<stop offset="1" stop-color="#F76025"/>
</linearGradient>
<linearGradient id="paint17_linear_438_9168" x1="97.8771" y1="188.641" x2="131.337" y2="223.943" gradientUnits="userSpaceOnUse">
<stop stop-color="#E0CD4E"/>
<stop offset="1" stop-color="#F76025"/>
</linearGradient>
<linearGradient id="paint18_linear_438_9168" x1="256.451" y1="137.45" x2="190.394" y2="160.958" gradientUnits="userSpaceOnUse">
<stop stop-color="#C24965"/>
<stop offset="1" stop-color="#C21D17"/>
</linearGradient>
<linearGradient id="paint19_linear_438_9168" x1="173.327" y1="233.839" x2="179.275" y2="233.839" gradientUnits="userSpaceOnUse">
<stop stop-color="#53D8FF"/>
<stop offset="1" stop-color="#3840F7"/>
</linearGradient>
<linearGradient id="paint20_linear_438_9168" x1="173.922" y1="233.331" x2="180.251" y2="233.331" gradientUnits="userSpaceOnUse">
<stop stop-color="#047EE0"/>
<stop offset="1" stop-color="#221AF7"/>
</linearGradient>
<linearGradient id="paint21_linear_438_9168" x1="177.081" y1="224.617" x2="181.736" y2="224.617" gradientUnits="userSpaceOnUse">
<stop stop-color="#F9B776"/>
<stop offset="1" stop-color="#F47960"/>
</linearGradient>
<linearGradient id="paint22_linear_438_9168" x1="245.06" y1="204.772" x2="253.976" y2="204.772" gradientUnits="userSpaceOnUse">
<stop stop-color="#53D8FF"/>
<stop offset="1" stop-color="#3840F7"/>
</linearGradient>
<linearGradient id="paint23_linear_438_9168" x1="242.838" y1="204.66" x2="253.585" y2="204.66" gradientUnits="userSpaceOnUse">
<stop stop-color="#047EE0"/>
<stop offset="1" stop-color="#221AF7"/>
</linearGradient>
<linearGradient id="paint24_linear_438_9168" x1="239.988" y1="204.234" x2="245.102" y2="204.234" gradientUnits="userSpaceOnUse">
<stop stop-color="#F9B776"/>
<stop offset="1" stop-color="#F47960"/>
</linearGradient>
<linearGradient id="paint25_linear_438_9168" x1="178.588" y1="201.443" x2="213.04" y2="201.443" gradientUnits="userSpaceOnUse">
<stop stop-color="#8F1A15"/>
<stop offset="1" stop-color="#372B29"/>
</linearGradient>
<linearGradient id="paint26_linear_438_9168" x1="200.477" y1="190.281" x2="242.838" y2="190.281" gradientUnits="userSpaceOnUse">
<stop stop-color="#8F1A15"/>
<stop offset="1" stop-color="#372B29"/>
</linearGradient>
<linearGradient id="paint27_linear_438_9168" x1="208.357" y1="147.409" x2="211.652" y2="147.409" gradientUnits="userSpaceOnUse">
<stop stop-color="#53D8FF"/>
<stop offset="1" stop-color="#3840F7"/>
</linearGradient>
<linearGradient id="paint28_linear_438_9168" x1="248.019" y1="139.395" x2="260.899" y2="139.395" gradientUnits="userSpaceOnUse">
<stop stop-color="#F9B776"/>
<stop offset="1" stop-color="#F47960"/>
</linearGradient>
<linearGradient id="paint29_linear_438_9168" x1="258.556" y1="113.21" x2="263.885" y2="185.633" gradientUnits="userSpaceOnUse">
<stop stop-color="#E0CD4E"/>
<stop offset="1" stop-color="#F76025"/>
</linearGradient>
<linearGradient id="paint30_linear_438_9168" x1="259.687" y1="132.339" x2="259.177" y2="155.185" gradientUnits="userSpaceOnUse">
<stop stop-color="#E0CD4E"/>
<stop offset="1" stop-color="#F76025"/>
</linearGradient>
<linearGradient id="paint31_linear_438_9168" x1="221.653" y1="176.479" x2="160.173" y2="96.6517" gradientUnits="userSpaceOnUse">
<stop offset="0.046" stop-color="#C24965"/>
<stop offset="0.0984" stop-color="#C24055"/>
<stop offset="0.2228" stop-color="#C22D33"/>
<stop offset="0.326" stop-color="#C2211E"/>
<stop offset="0.3945" stop-color="#C21D17"/>
</linearGradient>
<linearGradient id="paint32_linear_438_9168" x1="201.496" y1="170.665" x2="166.781" y2="125.59" gradientUnits="userSpaceOnUse">
<stop stop-color="#F9B776"/>
<stop offset="1" stop-color="#F47960"/>
</linearGradient>
<linearGradient id="paint33_linear_438_9168" x1="216.867" y1="117.317" x2="197.05" y2="96.5203" gradientUnits="userSpaceOnUse">
<stop stop-color="#C21D17"/>
<stop offset="1" stop-color="#7A0803"/>
</linearGradient>
<linearGradient id="paint34_linear_438_9168" x1="217.903" y1="103.896" x2="216.454" y2="137.068" gradientUnits="userSpaceOnUse">
<stop stop-color="#C21D17"/>
<stop offset="1" stop-color="#7A0803"/>
</linearGradient>
<linearGradient id="paint35_linear_438_9168" x1="218.13" y1="145.583" x2="222.14" y2="137.182" gradientUnits="userSpaceOnUse">
<stop stop-color="#F9B776"/>
<stop offset="1" stop-color="#F47960"/>
</linearGradient>
<linearGradient id="paint36_linear_438_9168" x1="224.869" y1="126.646" x2="212.36" y2="133.677" gradientUnits="userSpaceOnUse">
<stop stop-color="#F9B776"/>
<stop offset="1" stop-color="#F47960"/>
</linearGradient>
<linearGradient id="paint37_linear_438_9168" x1="223.581" y1="124.354" x2="211.071" y2="131.386" gradientUnits="userSpaceOnUse">
<stop stop-color="#F9B776"/>
<stop offset="1" stop-color="#F47960"/>
</linearGradient>
<clipPath id="clip0_438_9168">
<rect width="287.1" height="255.2" fill="white"/>
</clipPath>
</defs>
</svg>
