<svg width="288" height="256" viewBox="0 0 288 256" fill="none" xmlns="http://www.w3.org/2000/svg">
<path opacity="0.2" d="M249.827 212.568C244.191 217.786 238.86 221.152 234.647 223.811C185.127 255.065 126.532 245.955 114.079 243.73C95.6899 240.444 60.1439 234.094 34.4448 207.51C-4.43622 167.29 1.61795 103.925 31.7768 62.0976C37.2936 54.4465 66.4328 11.9818 125.659 5.17178C161.502 1.05072 203.284 9.36314 233.541 31.6609C297.052 78.4664 292.53 173.022 249.827 212.568Z" fill="url(#paint0_linear_438_9055)"/>
<path d="M45.2752 4.54304C45.7703 3.25325 47.898 3.40688 48.1426 4.75221C50.5022 17.7568 57.8982 51.6861 73.5784 70.8862C99.1094 102.148 112.568 150.065 90.7556 171.957C90.7556 171.956 -8.66225 145.118 45.2752 4.54304Z" fill="url(#paint1_linear_438_9055)"/>
<path opacity="0.43" d="M46.1701 22.8516C46.1691 23.1823 46.1956 23.5581 46.2133 23.9165L46.287 25.0041L46.4618 27.1783C46.5876 28.6278 46.731 30.0756 46.8793 31.5242C47.1848 34.4197 47.5306 37.3109 47.9069 40.1994C48.6505 45.9774 49.5179 51.7424 50.512 57.4891C52.5219 68.98 54.9414 80.417 58.0171 91.7196C59.58 97.3639 61.2048 102.997 63.0801 108.567C63.3011 109.266 63.5418 109.961 63.7884 110.653L64.5173 112.735L65.2472 114.816C65.4957 115.508 65.7639 116.194 66.0222 116.884C66.5478 118.26 67.0507 119.643 67.5949 121.014L69.259 125.115C69.5272 125.802 69.8209 126.479 70.1196 127.156L71.0056 129.189L71.8917 131.222C72.1962 131.896 72.5214 132.563 72.8357 133.234L73.7857 135.244C74.1089 135.912 74.4036 136.59 74.7542 137.247L76.7916 141.215C79.5834 146.474 82.6601 151.614 86.0639 156.59L86.0649 156.591C86.1121 156.661 86.0875 156.75 86.0089 156.792C85.9323 156.833 85.8321 156.812 85.784 156.746C82.2338 151.835 79.0726 146.71 76.1727 141.475L74.0813 137.513C73.7218 136.857 73.4183 136.179 73.0862 135.512L72.1098 133.504C71.7866 132.834 71.4526 132.167 71.1383 131.494L70.2247 129.463L69.3111 127.431C69.0036 126.755 68.7011 126.077 68.424 125.39C63.8149 114.465 60.0928 103.262 57.0426 91.927L55.9237 87.6706L54.8776 83.4002C54.518 81.9785 54.2145 80.5472 53.8824 79.1212L53.3942 76.9799L52.9374 74.8335C51.7085 69.111 50.6132 63.366 49.6878 57.5993C48.7556 51.8344 47.9255 46.0564 47.2664 40.2619C46.9412 37.3647 46.6465 34.4648 46.3931 31.5624C46.2713 30.1103 46.1534 28.6591 46.0532 27.2052L45.9166 25.0241L45.8626 23.9322C45.8528 23.5642 45.8282 23.2126 45.841 22.816C45.8439 22.7361 45.9196 22.6728 46.01 22.6754C46.0994 22.678 46.1701 22.7422 46.1691 22.8203L46.1701 22.8516Z" fill="white"/>
<path d="M72.318 203.093C72.318 203.093 82.5855 181.639 69.2679 150.542C56.911 121.69 25.0743 53.6565 25.3012 23.0498C25.3111 21.694 23.2383 21.2757 22.5978 22.5073C15.7175 35.7211 1.42936 70.0088 10.626 113.354C22.4858 169.248 72.318 203.093 72.318 203.093Z" fill="url(#paint2_linear_438_9055)"/>
<path opacity="0.45" d="M22.0664 50.2907C21.5939 51.8391 21.2795 53.4232 21.0005 55.0063C20.7245 56.5903 20.5202 58.1839 20.363 59.7801C20.197 61.3754 20.1145 62.9768 20.0447 64.5773C19.9985 66.1786 19.9848 67.78 20.0103 69.3805C20.1174 75.7843 20.8679 82.1742 22.1734 88.4686C22.4789 90.0457 22.8571 91.6106 23.2128 93.179C23.6224 94.7379 23.9927 96.3037 24.4584 97.8504C25.3218 100.958 26.3602 104.025 27.4339 107.08L28.2865 109.359L28.7148 110.497L29.1726 111.627L30.0882 113.887C30.3996 114.638 30.7365 115.38 31.0587 116.129C31.3878 116.874 31.7041 117.622 32.044 118.366L33.0637 120.597L35.103 125.059C37.883 130.987 40.7132 136.897 43.6779 142.756C45.1386 145.694 46.6544 148.611 48.1495 151.535L52.6663 160.301C54.1722 163.223 55.6939 166.14 57.1772 169.074L58.2941 171.273L59.3865 173.482C59.748 174.22 60.1203 174.953 60.4729 175.694L61.5132 177.925C62.2245 179.404 62.8541 180.916 63.5113 182.416C63.8502 183.163 64.1322 183.93 64.4337 184.689C64.7265 185.452 65.0418 186.207 65.3149 186.976C66.4132 190.048 67.2983 193.185 67.7973 196.381C67.8101 196.461 67.7462 196.534 67.6558 196.546C67.5684 196.556 67.4869 196.504 67.4702 196.429L67.4682 196.421L66.9584 194.064L66.8307 193.476C66.7865 193.28 66.7197 193.088 66.6646 192.894L66.3189 191.734C65.9033 190.177 65.2982 188.665 64.7599 187.138C64.4721 186.379 64.141 185.633 63.8345 184.88C63.5182 184.13 63.2225 183.374 62.8689 182.636C62.1822 181.152 61.5241 179.66 60.7824 178.197C57.9071 172.311 54.8009 166.506 51.7105 160.694L47.0817 151.969C45.5748 149.045 44.0502 146.129 42.5786 143.19C39.5933 137.329 36.7406 131.416 33.9399 125.483L31.8839 121.018L30.8564 118.785C30.5125 118.041 30.2021 117.281 29.873 116.531C29.5518 115.777 29.2158 115.029 28.9064 114.271L27.9958 111.993L27.54 110.853L27.1146 109.705L26.2678 107.407C25.1941 104.328 24.1794 101.231 23.3473 98.0925C22.8964 96.5311 22.5399 94.9497 22.145 93.3769C21.807 91.7938 21.4318 90.2167 21.1577 88.6231C19.9661 82.2653 19.3364 75.8242 19.3541 69.3831C19.3639 66.163 19.5781 62.9438 19.9868 59.7462C20.4042 56.5521 20.9858 53.3624 22.0281 50.2794C22.031 50.2699 22.0428 50.2647 22.0536 50.2673C22.0634 50.2707 22.0693 50.282 22.0664 50.2907Z" fill="white"/>
<path d="M193.347 45.6487L108.694 37.897L24.0399 46.6625V233.118L108.694 228.503L193.347 233.619L277.896 225.81V41.3141L193.347 45.6487Z" fill="#66C3F7"/>
<path d="M110.51 224.252L30.0784 228.631V51.7515L110.51 43.4365V224.252Z" fill="url(#paint3_linear_438_9055)"/>
<path d="M190.944 229.106L110.51 224.252V43.4365L190.944 50.7898V229.106Z" fill="url(#paint4_linear_438_9055)"/>
<path d="M271.276 221.697L190.944 229.106V50.7897L271.276 46.6782V221.697Z" fill="url(#paint5_linear_438_9055)"/>
<path opacity="0.47" d="M110.51 43.4365H108.689V224.302H110.51V43.4365Z" fill="white"/>
<g opacity="0.69">
<path d="M214.23 52.5752L235.083 66.6725L220.87 78.4472L204.119 64.6771L214.23 52.5752Z" fill="url(#paint6_linear_438_9055)"/>
<path d="M77.5038 80.247L79.2435 64.6768L109.6 72.4623V92.2161L77.5038 80.247Z" fill="url(#paint7_linear_438_9055)"/>
<path d="M251.328 177.12L268.163 169.692L270.443 184.76L255.727 188.937L251.328 177.12Z" fill="url(#paint8_linear_438_9055)"/>
<path d="M92.6958 189.11L109.6 196.793L126.452 194.332L124.929 184.15L109.6 181.018L92.6958 189.11Z" fill="url(#paint9_linear_438_9055)"/>
<path d="M75.4586 80.6948L29.5881 94.9649L30.5685 98.2961L37.1924 96.2356L79.6384 108.094L80.3487 105.407L42.0796 94.7149L74.9193 84.4991L105.556 105.284L101.34 135.279L67.8356 137.726L38.3712 178.598L41.0904 180.67L69.6274 141.085L104.299 138.553L109.213 103.595L75.4586 80.6948Z" fill="white"/>
<path d="M61.1419 201.137L26.1176 170.598L28.3062 167.943L63.3306 198.482L61.1419 201.137Z" fill="white"/>
<path d="M195.534 170.704L174.633 117.765L171.497 119.075L182.493 146.927L129.09 163.816L130.086 167.144L183.771 150.164L192.398 172.013L195.534 170.704Z" fill="white"/>
<path d="M240.183 160.404L230.006 171.79L209.908 131.216L207.495 132.481L228.04 173.953L228.103 173.92L220.265 182.689L222.757 185.044L242.675 162.76L240.183 160.404Z" fill="white"/>
<path d="M227.944 90.0549L225.98 87.2201C225.894 87.2826 225.841 87.3356 225.837 87.339C226.913 86.2567 241.495 68.106 251.035 56.1681L252.226 54.6787L273.926 77.2221L271.521 79.6715L252.459 59.8682C250.364 62.4877 245.806 68.1798 241.241 73.8553C228.6 89.5732 228.251 89.8292 227.944 90.0549Z" fill="white"/>
<path d="M184.22 108.505L177.42 84.5642L169.11 62.7412L131.911 65.0161L131.71 61.5408L171.364 59.1157L180.648 83.514L187.468 107.529L184.22 108.505Z" fill="white"/>
<path d="M77.2926 80.985L74.5931 80.7723L76.0028 61.8179L109.874 69.0184L109.326 71.7456L78.4675 65.1855L77.2926 80.985Z" fill="white"/>
<path d="M220.445 80.479L218.757 78.303L232.844 66.7297L213.324 52.2782L214.906 50.0181L237.323 66.6151L220.445 80.479Z" fill="white"/>
<path d="M275.072 188.157L252.618 106.279L249.361 107.223L266.308 169.02L250.456 176.014L251.524 178.573L266.756 171.852L268.581 183.922L256.72 187.288L257.44 189.972L270.998 186.124L271.816 189.103L275.072 188.157Z" fill="white"/>
<path d="M110.179 220.732L60.3796 200.354L61.6311 197.119L108.968 216.49L122.443 197.106L110.331 200.082L89.6996 190.209L91.1269 187.053L110.69 196.414L130.461 191.557L110.179 220.732Z" fill="white"/>
<path d="M218.358 183.358L184.47 221.086L150.039 188.163L130.649 162.989L128.527 164.718L147.98 189.975L148.044 190.058L182.632 223.132L177.259 229.114L179.744 231.476L220.844 185.721L218.358 183.358Z" fill="white"/>
</g>
<path d="M120.557 107.016L108.729 93.5613C82.2249 83.9513 52.0366 74.0158 28.6195 72.8745L28.7639 69.7446C52.6829 70.9112 83.3055 81.0116 110.107 90.7388L110.471 90.8707L122.816 104.914L120.557 107.016Z" fill="#0A5794"/>
<path d="M269.307 214.204C243.488 197.901 214.285 179.956 193.995 173.017L128.04 198.057L126.985 195.118L193.935 169.7L194.438 169.869C215.062 176.787 244.72 195.003 270.9 211.534L269.307 214.204Z" fill="#0A5794"/>
<path d="M140.523 95.7816L120.274 44.2233L123.098 43.0498L143.347 94.6082L140.523 95.7816Z" fill="#0A5794"/>
<path d="M232.28 110.053C227.043 89.1546 216.952 74.7613 201.432 66.0513L202.891 63.3008C211.454 68.1067 218.554 74.6615 223.994 82.7829C228.937 90.1597 232.612 98.8245 235.229 109.27L232.28 110.053Z" fill="#0A5794"/>
<path d="M74.1688 195.957L71.6265 194.203L101.549 146.825L104.091 148.578L74.1688 195.957Z" fill="#0A5794"/>
<path d="M240.684 111.834L152.781 108.229L152.902 105.099L240.142 108.676L272.146 95.1812L273.301 98.0801L240.684 111.834Z" fill="#0A5794"/>
<path d="M30.6264 214.03L29.5302 211.107L109.391 179.422L125.08 181.025L124.779 184.143L109.81 182.614L30.6264 214.03Z" fill="#0A5794"/>
<path d="M133.542 150.427C99.2548 150.054 67.1214 148.262 50.7321 130.672L52.9315 128.503C68.5026 145.215 99.9631 146.928 133.575 147.294L133.542 150.427Z" fill="#0A5794"/>
<path d="M130.534 224.56L123.367 180.646L123.476 180.287L144.12 112.592L153.373 96.4801L189.991 76.124L214.417 48.4761L216.671 50.5835L191.895 78.6263L155.566 98.8227L146.921 113.875L126.491 180.867L133.537 224.042L130.534 224.56Z" fill="#0A5794"/>
<path d="M272.837 221.196L230.051 141.561L150.955 111.757L136.876 108.304L85.7809 104.33L29.3612 146.856L27.5615 144.328L84.888 101.12L85.4499 101.163L137.348 105.198L151.835 108.752L151.919 108.784L232.167 139.022L232.442 139.535L275.503 219.681L272.837 221.196Z" fill="#0A5794"/>
<path opacity="0.69" d="M145.521 113.234C151.163 113.234 155.738 109.196 155.738 104.215C155.738 99.2337 151.163 95.1958 145.521 95.1958C139.879 95.1958 135.305 99.2337 135.305 104.215C135.305 109.196 139.879 113.234 145.521 113.234Z" fill="white"/>
<path d="M145.521 110.678C149.564 110.678 152.841 107.784 152.841 104.215C152.841 100.645 149.564 97.752 145.521 97.752C141.478 97.752 138.201 100.645 138.201 104.215C138.201 107.784 141.478 110.678 145.521 110.678Z" fill="#0A5794"/>
<path d="M70.763 198.781C70.4575 198.781 70.1638 198.632 70.0204 198.373C69.818 198.011 69.987 197.572 70.3966 197.393L73.0696 196.229C73.4802 196.05 73.9763 196.198 74.1786 196.561C74.381 196.923 74.212 197.362 73.8024 197.541L71.1294 198.706C71.0106 198.757 70.8858 198.781 70.763 198.781ZM126.387 197.903C126.244 197.903 126.101 197.87 125.974 197.805C125.745 197.689 125.592 197.483 125.564 197.25L125.366 195.651C125.317 195.249 125.645 194.888 126.099 194.844C126.555 194.802 126.963 195.091 127.012 195.492L127.087 196.098L127.112 196.087C127.531 195.925 128.019 196.091 128.203 196.46C128.388 196.83 128.199 197.261 127.781 197.425L126.721 197.839C126.614 197.882 126.5 197.903 126.387 197.903ZM76.1079 196.451C75.8024 196.451 75.5087 196.302 75.3653 196.043C75.1629 195.681 75.3319 195.242 75.7415 195.063L78.4145 193.898C78.8251 193.719 79.3212 193.869 79.5236 194.231C79.7259 194.593 79.5569 195.032 79.1473 195.211L76.4744 196.375C76.3565 196.427 76.2307 196.451 76.1079 196.451ZM130.173 196.426C129.855 196.426 129.552 196.263 129.416 195.99C129.231 195.62 129.421 195.189 129.838 195.026L132.564 193.962C132.983 193.798 133.471 193.966 133.655 194.335C133.84 194.704 133.651 195.136 133.233 195.299L130.507 196.363C130.399 196.406 130.285 196.426 130.173 196.426ZM135.625 194.298C135.307 194.298 135.004 194.136 134.868 193.863C134.683 193.493 134.873 193.061 135.29 192.898L138.016 191.834C138.435 191.671 138.923 191.838 139.107 192.207C139.292 192.577 139.103 193.009 138.685 193.172L135.959 194.236C135.85 194.278 135.737 194.298 135.625 194.298ZM81.4529 194.121C81.1474 194.121 80.8536 193.972 80.7102 193.713C80.5079 193.351 80.6768 192.913 81.0865 192.733L83.7594 191.569C84.17 191.39 84.6661 191.539 84.8685 191.901C85.0708 192.263 84.9019 192.702 84.4922 192.881L81.8193 194.046C81.7014 194.097 81.5757 194.121 81.4529 194.121ZM125.865 193.686C125.449 193.686 125.089 193.409 125.043 193.035L124.72 190.417C124.671 190.015 124.999 189.654 125.453 189.61C125.91 189.567 126.316 189.857 126.365 190.258L126.689 192.876C126.738 193.278 126.41 193.639 125.956 193.682C125.925 193.685 125.895 193.686 125.865 193.686ZM141.077 192.17C140.759 192.17 140.456 192.008 140.32 191.734C140.135 191.365 140.324 190.933 140.742 190.77L143.468 189.706C143.887 189.543 144.375 189.71 144.559 190.079C144.744 190.449 144.556 190.88 144.137 191.043L141.411 192.108C141.302 192.15 141.189 192.17 141.077 192.17ZM86.7978 191.792C86.4923 191.792 86.1986 191.642 86.0551 191.384C85.8528 191.022 86.0217 190.583 86.4314 190.404L89.1043 189.239C89.514 189.06 90.011 189.209 90.2134 189.571C90.4157 189.933 90.2468 190.373 89.8371 190.551L87.1642 191.716C87.0463 191.767 86.9206 191.792 86.7978 191.792ZM146.529 190.043C146.211 190.043 145.908 189.88 145.772 189.607C145.587 189.237 145.777 188.806 146.194 188.643L148.92 187.579C149.339 187.415 149.827 187.583 150.011 187.952C150.196 188.322 150.007 188.753 149.589 188.916L146.863 189.98C146.754 190.023 146.641 190.043 146.529 190.043ZM92.1427 189.462C91.8372 189.462 91.5435 189.313 91.4 189.054C91.1977 188.692 91.3667 188.253 91.7763 188.074L94.4492 186.909C94.8589 186.731 95.355 186.879 95.5583 187.242C95.7607 187.604 95.5917 188.043 95.1821 188.222L92.5091 189.387C92.3912 189.438 92.2665 189.462 92.1427 189.462ZM125.219 188.451C124.803 188.451 124.443 188.173 124.397 187.799L124.074 185.181C124.025 184.779 124.353 184.418 124.807 184.375C125.259 184.332 125.67 184.621 125.719 185.022L126.042 187.64C126.091 188.042 125.763 188.403 125.309 188.447C125.279 188.449 125.25 188.451 125.219 188.451ZM151.981 187.914C151.663 187.914 151.36 187.752 151.224 187.479C151.039 187.109 151.229 186.678 151.646 186.514L154.372 185.451C154.791 185.288 155.279 185.456 155.463 185.824C155.648 186.194 155.459 186.626 155.041 186.789L152.315 187.853C152.206 187.895 152.093 187.914 151.981 187.914ZM97.4886 187.132C97.1831 187.132 96.8894 186.982 96.7459 186.724C96.5436 186.362 96.7125 185.923 97.1222 185.744L99.7951 184.579C100.205 184.4 100.702 184.549 100.904 184.911C101.107 185.273 100.938 185.712 100.528 185.891L97.855 187.056C97.7362 187.107 97.6114 187.132 97.4886 187.132ZM157.433 185.787C157.115 185.787 156.812 185.625 156.676 185.351C156.491 184.982 156.681 184.55 157.098 184.387L159.824 183.324C160.243 183.161 160.731 183.328 160.915 183.697C161.1 184.067 160.91 184.498 160.493 184.661L157.767 185.725C157.658 185.767 157.544 185.787 157.433 185.787ZM102.834 184.802C102.528 184.802 102.234 184.653 102.091 184.394C101.889 184.032 102.057 183.593 102.467 183.414L105.14 182.249C105.55 182.071 106.047 182.22 106.249 182.582C106.451 182.944 106.283 183.383 105.873 183.562L103.2 184.726C103.081 184.778 102.956 184.802 102.834 184.802ZM122.915 184.615C122.872 184.615 122.828 184.613 122.785 184.607L119.841 184.198C119.389 184.135 119.08 183.76 119.152 183.362C119.223 182.964 119.645 182.691 120.098 182.754L123.042 183.162C123.494 183.225 123.803 183.6 123.731 183.998C123.667 184.358 123.315 184.615 122.915 184.615ZM117.027 183.797C116.985 183.797 116.941 183.794 116.898 183.788L113.954 183.379C113.502 183.317 113.193 182.942 113.265 182.544C113.336 182.144 113.758 181.873 114.211 181.935L117.155 182.344C117.607 182.406 117.915 182.781 117.844 183.18C117.78 183.54 117.427 183.797 117.027 183.797ZM162.885 183.66C162.567 183.66 162.264 183.497 162.128 183.224C161.943 182.854 162.133 182.423 162.55 182.26L165.276 181.196C165.694 181.032 166.183 181.199 166.367 181.569C166.552 181.939 166.362 182.37 165.945 182.533L163.219 183.597C163.11 183.639 162.996 183.66 162.885 183.66ZM111.139 182.979C111.097 182.979 111.053 182.977 111.01 182.971L108.065 182.562C107.614 182.499 107.305 182.124 107.377 181.726C107.448 181.328 107.871 181.056 108.323 181.117L111.267 181.526C111.719 181.589 112.027 181.964 111.957 182.362C111.892 182.721 111.54 182.979 111.139 182.979ZM168.337 181.532C168.019 181.532 167.716 181.369 167.58 181.096C167.395 180.726 167.585 180.295 168.002 180.132L170.728 179.067C171.146 178.904 171.635 179.072 171.819 179.441C172.004 179.81 171.814 180.242 171.397 180.405L168.671 181.469C168.562 181.512 168.448 181.532 168.337 181.532ZM173.788 179.404C173.47 179.404 173.167 179.242 173.031 178.968C172.846 178.599 173.036 178.167 173.453 178.004L176.179 176.94C176.597 176.777 177.086 176.944 177.27 177.313C177.455 177.683 177.265 178.114 176.848 178.278L174.122 179.341C174.014 179.384 173.9 179.404 173.788 179.404ZM179.24 177.276C178.922 177.276 178.619 177.114 178.483 176.84C178.298 176.47 178.488 176.039 178.905 175.876L181.631 174.812C182.049 174.649 182.538 174.816 182.722 175.185C182.907 175.555 182.717 175.986 182.3 176.149L179.574 177.213C179.465 177.256 179.352 177.276 179.24 177.276ZM184.692 175.149C184.374 175.149 184.071 174.986 183.935 174.713C183.75 174.343 183.94 173.912 184.357 173.749L187.083 172.684C187.501 172.521 187.99 172.689 188.174 173.058C188.359 173.427 188.169 173.859 187.752 174.022L185.026 175.086C184.917 175.129 184.804 175.149 184.692 175.149ZM190.144 173.02C189.826 173.02 189.523 172.858 189.387 172.585C189.202 172.215 189.392 171.783 189.809 171.62L192.535 170.556C192.953 170.394 193.442 170.561 193.626 170.929C193.811 171.299 193.621 171.731 193.204 171.894L190.478 172.958C190.369 173 190.256 173.02 190.144 173.02ZM193.364 170.041C193.023 170.041 192.704 169.854 192.583 169.554L191.59 167.071C191.438 166.69 191.664 166.273 192.095 166.138C192.526 166.004 192.999 166.203 193.151 166.584L194.144 169.067C194.296 169.448 194.07 169.865 193.639 170C193.549 170.028 193.455 170.041 193.364 170.041ZM191.378 165.077C191.037 165.077 190.718 164.889 190.598 164.589L189.605 162.107C189.452 161.726 189.678 161.308 190.11 161.174C190.541 161.038 191.013 161.239 191.166 161.62L192.159 164.102C192.311 164.483 192.085 164.901 191.654 165.035C191.562 165.063 191.47 165.077 191.378 165.077ZM189.392 160.111C189.052 160.111 188.732 159.924 188.613 159.623L187.619 157.141C187.467 156.76 187.693 156.343 188.124 156.208C188.556 156.073 189.028 156.273 189.18 156.654L190.173 159.136C190.326 159.518 190.1 159.935 189.669 160.07C189.577 160.098 189.484 160.111 189.392 160.111ZM187.406 155.146C187.065 155.146 186.746 154.959 186.626 154.659L185.633 152.176C185.481 151.795 185.707 151.378 186.138 151.243C186.569 151.108 187.042 151.308 187.194 151.689L188.187 154.172C188.339 154.553 188.113 154.97 187.682 155.105C187.591 155.133 187.499 155.146 187.406 155.146ZM185.421 150.181C185.08 150.181 184.761 149.993 184.641 149.693L183.648 147.211C183.495 146.83 183.721 146.412 184.153 146.278C184.584 146.142 185.056 146.343 185.209 146.724L186.202 149.206C186.354 149.587 186.128 150.005 185.697 150.139C185.606 150.168 185.512 150.181 185.421 150.181ZM183.435 145.216C183.094 145.216 182.774 145.029 182.655 144.728L181.661 142.246C181.509 141.865 181.735 141.448 182.166 141.313C182.598 141.178 183.07 141.378 183.222 141.759L184.216 144.241C184.368 144.623 184.142 145.04 183.711 145.175C183.619 145.202 183.526 145.216 183.435 145.216ZM181.449 140.251C181.108 140.251 180.789 140.063 180.669 139.763L179.676 137.28C179.524 136.899 179.75 136.482 180.181 136.347C180.612 136.212 181.085 136.413 181.237 136.794L182.23 139.276C182.383 139.657 182.157 140.074 181.725 140.209C181.634 140.238 181.541 140.251 181.449 140.251ZM179.463 135.286C179.122 135.286 178.803 135.098 178.683 134.798L177.69 132.316C177.538 131.935 177.764 131.517 178.195 131.383C178.626 131.247 179.099 131.448 179.251 131.829L180.244 134.311C180.396 134.692 180.17 135.11 179.739 135.244C179.648 135.272 179.554 135.286 179.463 135.286ZM177.478 130.32C177.137 130.32 176.818 130.133 176.698 129.833L175.705 127.35C175.552 126.969 175.778 126.552 176.209 126.417C176.641 126.283 177.113 126.482 177.265 126.863L178.259 129.346C178.411 129.727 178.185 130.144 177.754 130.279C177.662 130.307 177.569 130.32 177.478 130.32ZM175.491 125.356C175.151 125.356 174.831 125.168 174.711 124.868L173.718 122.385C173.566 122.004 173.792 121.587 174.223 121.452C174.654 121.317 175.127 121.518 175.279 121.899L176.272 124.381C176.425 124.762 176.199 125.179 175.767 125.314C175.676 125.342 175.583 125.356 175.491 125.356ZM173.506 120.39C173.165 120.39 172.846 120.203 172.726 119.902L172.545 119.451L170.965 118.795C170.551 118.623 170.373 118.187 170.568 117.822C170.762 117.456 171.256 117.298 171.669 117.471L173.563 118.257C173.763 118.341 173.918 118.491 173.991 118.676L174.287 119.415C174.439 119.796 174.213 120.214 173.782 120.348C173.691 120.377 173.597 120.39 173.506 120.39ZM168.619 117.745C168.501 117.745 168.381 117.723 168.267 117.676L165.57 116.556C165.156 116.384 164.978 115.949 165.173 115.583C165.367 115.218 165.861 115.061 166.274 115.233L168.972 116.352C169.385 116.524 169.563 116.96 169.368 117.325C169.227 117.59 168.929 117.745 168.619 117.745ZM163.224 115.506C163.106 115.506 162.986 115.483 162.872 115.437L160.175 114.317C159.761 114.145 159.583 113.709 159.778 113.344C159.972 112.979 160.465 112.821 160.879 112.993L163.577 114.113C163.99 114.285 164.168 114.721 163.973 115.086C163.833 115.351 163.534 115.506 163.224 115.506ZM157.83 113.267C157.712 113.267 157.592 113.244 157.478 113.197L154.781 112.078C154.367 111.906 154.189 111.47 154.384 111.105C154.578 110.739 155.071 110.582 155.485 110.754L158.183 111.874C158.596 112.046 158.774 112.481 158.579 112.847C158.438 113.111 158.14 113.267 157.83 113.267ZM152.711 110.699C152.427 110.699 152.152 110.571 151.997 110.339C151.687 109.877 151.524 109.339 151.524 108.785C151.524 108.181 151.714 107.59 152.071 107.076C152.311 106.733 152.822 106.625 153.21 106.838C153.599 107.05 153.72 107.5 153.48 107.844C153.286 108.122 153.179 108.457 153.179 108.785C153.179 109.077 153.264 109.357 153.423 109.595C153.656 109.943 153.524 110.392 153.13 110.597C152.999 110.666 152.854 110.699 152.711 110.699ZM217.773 110.268C217.763 110.268 217.754 110.268 217.744 110.267L214.765 110.176C214.309 110.162 213.951 109.824 213.967 109.42C213.982 109.016 214.365 108.703 214.822 108.714L217.801 108.805C218.258 108.819 218.615 109.158 218.599 109.561C218.585 109.956 218.217 110.268 217.773 110.268ZM211.817 110.085C211.808 110.085 211.798 110.085 211.788 110.084L208.809 109.993C208.353 109.979 207.995 109.64 208.011 109.237C208.027 108.833 208.407 108.519 208.866 108.531L211.845 108.622C212.302 108.636 212.659 108.975 212.644 109.378C212.629 109.774 212.261 110.085 211.817 110.085ZM205.861 109.902C205.852 109.902 205.842 109.902 205.832 109.901L202.854 109.81C202.397 109.796 202.039 109.457 202.055 109.054C202.071 108.65 202.451 108.338 202.91 108.348L205.889 108.439C206.346 108.453 206.703 108.792 206.688 109.195C206.672 109.591 206.304 109.902 205.861 109.902ZM199.905 109.719C199.895 109.719 199.885 109.719 199.875 109.718L196.897 109.626C196.44 109.612 196.082 109.273 196.098 108.87C196.114 108.466 196.495 108.15 196.954 108.164L199.932 108.256C200.389 108.27 200.746 108.608 200.731 109.012C200.716 109.408 200.349 109.719 199.905 109.719ZM193.948 109.535C193.938 109.535 193.928 109.535 193.918 109.535L190.94 109.443C190.483 109.43 190.125 109.091 190.141 108.687C190.157 108.284 190.532 107.968 190.997 107.982L193.975 108.073C194.432 108.087 194.789 108.425 194.774 108.829C194.759 109.225 194.392 109.535 193.948 109.535ZM187.992 109.352C187.982 109.352 187.972 109.352 187.962 109.351L184.984 109.26C184.527 109.246 184.169 108.908 184.185 108.504C184.201 108.101 184.583 107.787 185.041 107.799L188.019 107.89C188.476 107.904 188.834 108.242 188.818 108.646C188.803 109.042 188.436 109.352 187.992 109.352ZM182.042 109.076C182.018 109.076 181.995 109.075 181.972 109.074L179.002 108.855C178.546 108.821 178.209 108.468 178.246 108.065C178.284 107.662 178.685 107.363 179.14 107.397L182.109 107.615C182.565 107.649 182.903 108.003 182.866 108.405C182.829 108.787 182.468 109.076 182.042 109.076ZM176.102 108.638C176.079 108.638 176.056 108.637 176.033 108.635L173.063 108.417C172.607 108.383 172.269 108.029 172.307 107.627C172.345 107.224 172.746 106.927 173.201 106.958L176.17 107.177C176.626 107.211 176.964 107.564 176.927 107.967C176.89 108.349 176.529 108.638 176.102 108.638ZM218.185 108.279C217.772 108.279 217.415 108.007 217.365 107.636L217.005 105.023C216.95 104.622 217.273 104.257 217.727 104.209C218.182 104.161 218.594 104.446 218.649 104.847L219.008 107.46C219.063 107.861 218.74 108.226 218.286 108.274C218.252 108.278 218.218 108.279 218.185 108.279ZM170.163 108.2C170.14 108.2 170.117 108.199 170.093 108.197L167.124 107.978C166.668 107.944 166.33 107.591 166.367 107.188C166.406 106.786 166.807 106.488 167.261 106.52L170.231 106.739C170.687 106.773 171.025 107.126 170.987 107.529C170.951 107.911 170.589 108.2 170.163 108.2ZM164.224 107.761C164.2 107.761 164.178 107.76 164.154 107.759L161.185 107.54C160.729 107.506 160.391 107.153 160.428 106.75C160.466 106.347 160.868 106.05 161.322 106.082L164.292 106.301C164.748 106.334 165.085 106.688 165.048 107.09C165.012 107.473 164.65 107.761 164.224 107.761ZM158.285 107.323C158.261 107.323 158.239 107.322 158.215 107.32L155.245 107.102C154.79 107.068 154.452 106.715 154.489 106.312C154.526 105.909 154.928 105.611 155.383 105.643L158.352 105.862C158.808 105.896 159.146 106.249 159.109 106.652C159.073 107.035 158.71 107.323 158.285 107.323ZM217.465 103.052C217.052 103.052 216.695 102.78 216.644 102.409L216.284 99.7952C216.229 99.3942 216.552 99.0297 217.006 98.981C217.462 98.9324 217.873 99.218 217.928 99.619L218.287 102.232C218.342 102.633 218.019 102.998 217.565 103.047C217.532 103.05 217.498 103.052 217.465 103.052ZM216.746 97.8249C216.333 97.8249 215.976 97.5524 215.926 97.1818L215.654 95.2132C215.599 94.8123 215.923 94.4477 216.376 94.3991C216.831 94.3522 217.243 94.6361 217.298 95.037L217.569 97.0056C217.624 97.4066 217.301 97.7711 216.847 97.8197C216.813 97.8232 216.779 97.8249 216.746 97.8249Z" fill="url(#paint10_linear_438_9055)"/>
<path d="M215.606 97.9733C218.895 97.9733 221.561 95.6176 221.561 92.7118C221.561 89.8059 218.895 87.4502 215.606 87.4502C212.317 87.4502 209.651 89.8059 209.651 92.7118C209.651 95.6176 212.317 97.9733 215.606 97.9733Z" fill="url(#paint11_linear_438_9055)"/>
<path d="M245.613 34.6221C245.613 44.6287 228.555 70.1571 219.67 82.7494C218.981 83.7267 217.495 84.3204 214.745 84.3204C213.441 84.3204 213.954 83.7241 213.264 82.7477C204.378 70.1545 187.323 44.6279 187.323 34.6229C187.323 21.575 200.371 10.998 216.468 10.998C232.564 10.9972 245.613 21.5741 245.613 34.6221Z" fill="url(#paint12_linear_438_9055)"/>
<path d="M243.89 34.6221C243.89 44.6287 226.832 70.1571 217.946 82.7494C217.257 83.7267 216.045 84.3204 214.742 84.3204C213.438 84.3204 212.23 83.7241 211.54 82.7477C202.654 70.1545 185.599 44.6279 185.599 34.6229C185.599 21.575 198.647 10.998 214.744 10.998C230.841 10.9972 243.89 21.5741 243.89 34.6221Z" fill="url(#paint13_linear_438_9055)"/>
<path d="M214.745 54.8514C226.438 54.8514 235.918 46.4756 235.918 36.1435C235.918 25.8114 226.438 17.4355 214.745 17.4355C203.051 17.4355 193.571 25.8114 193.571 36.1435C193.571 46.4756 203.051 54.8514 214.745 54.8514Z" fill="url(#paint14_linear_438_9055)"/>
<path d="M214.745 55.6421C202.823 55.6421 193.124 47.0728 193.124 36.5393C193.124 36.35 193.297 36.1973 193.511 36.1973C193.726 36.1973 193.898 36.3509 193.898 36.5393C193.898 46.6952 203.249 54.9582 214.744 54.9582C226.238 54.9582 235.59 46.6952 235.59 36.5393C235.59 26.3833 226.238 18.1204 214.744 18.1204C208.097 18.1204 202.003 20.824 198.023 25.5371C197.896 25.6889 197.652 25.7202 197.481 25.6065C197.309 25.4937 197.274 25.2793 197.402 25.1274C201.529 20.239 207.851 17.4355 214.744 17.4355C226.665 17.4355 236.364 26.0049 236.364 36.5384C236.365 47.0728 226.666 55.6421 214.745 55.6421Z" fill="white"/>
<path d="M215.672 20.8696L199.999 30.793H231.316L215.672 20.8696Z" fill="white"/>
<path d="M201.755 32.4004V46.4535H229.589V32.4004H201.755ZM214.17 40.8847H205.821V35.4018H214.17V40.8847ZM224.756 44.9858H218.617V35.4018H224.756V44.9858Z" fill="white"/>
<path d="M208.845 158.196L223.659 237.18C223.919 238.562 225.057 239.688 226.585 240.064C232.227 241.453 246.51 244.119 260.522 239.919C262.451 239.341 263.855 237.857 264.205 236.084L279.898 156.488L208.845 158.196Z" fill="url(#paint15_linear_438_9055)"/>
<path d="M208.845 152.881L212.227 146.29C212.557 145.646 213.254 145.21 214.051 145.15C220.635 144.655 250.925 142.597 270.771 144.998C271.962 145.142 272.978 145.829 273.443 146.808L276.077 152.345L208.845 152.881Z" fill="url(#paint16_linear_438_9055)"/>
<path d="M206.175 153.053L205.543 158.494C205.388 159.83 206.516 161.014 208.032 161.105C219.497 161.793 263.451 164.023 281.294 159.038C282.578 158.679 283.309 157.486 282.966 156.336L282.13 153.539C281.663 151.974 280.059 150.886 278.227 150.891L208.634 151.086C207.365 151.089 206.304 151.938 206.175 153.053Z" fill="url(#paint17_linear_438_9055)"/>
<path d="M212.485 177.606C212.485 177.606 253.15 183.308 275.733 177.606L276.077 175.862L277.281 176.969C277.861 177.503 278.116 178.252 277.963 178.981L271.657 209.053C271.471 209.941 270.695 210.64 269.694 210.82C263.416 211.951 240.367 215.508 218.8 211.226C217.813 211.03 217.055 210.328 216.877 209.448L210.748 178.988C210.542 178.11 210.78 177.197 211.398 176.487L212.119 175.658L212.485 177.606Z" fill="url(#paint18_linear_438_9055)"/>
<path d="M218.86 180.817L221.779 210.397C221.795 210.557 221.66 210.699 221.478 210.713C221.303 210.726 221.147 210.616 221.121 210.464L216.2 181.092C216.092 180.445 216.596 179.844 217.328 179.747C218.06 179.652 218.741 180.098 218.85 180.745C218.854 180.768 218.858 180.794 218.86 180.817Z" fill="white"/>
<path d="M225.557 181.59L226.986 210.827C226.994 210.988 226.852 211.124 226.669 211.131C226.493 211.138 226.344 211.022 226.326 210.869L222.886 181.763C222.81 181.113 223.344 180.531 224.08 180.463C224.816 180.395 225.475 180.867 225.551 181.518C225.554 181.541 225.556 181.567 225.557 181.59Z" fill="white"/>
<path d="M275.496 180.93L269.332 209.849C269.298 210.008 269.124 210.112 268.944 210.082C268.772 210.054 268.656 209.91 268.677 209.758L272.85 180.562C272.943 179.914 273.614 179.455 274.347 179.536C275.081 179.618 275.601 180.211 275.508 180.859C275.506 180.882 275.501 180.908 275.496 180.93Z" fill="white"/>
<path d="M267.76 182.138L263.657 210.876C263.634 211.037 263.468 211.151 263.286 211.13C263.111 211.111 262.987 210.974 262.997 210.821L265.094 181.914C265.141 181.262 265.777 180.767 266.516 180.809C267.255 180.85 267.815 181.413 267.768 182.065C267.766 182.09 267.763 182.116 267.76 182.138Z" fill="white"/>
<path d="M231.805 182.12L232.665 211.459C232.669 211.62 232.525 211.755 232.342 211.759C232.166 211.763 232.019 211.644 232.003 211.492L229.131 182.253C229.067 181.602 229.612 181.028 230.35 180.972C231.087 180.915 231.736 181.397 231.8 182.049C231.802 182.071 231.804 182.098 231.805 182.12Z" fill="white"/>
<path d="M239.607 182.625L239.21 211.469C239.208 211.63 239.058 211.76 238.875 211.758C238.699 211.756 238.557 211.633 238.548 211.48L236.93 182.669C236.894 182.017 237.462 181.461 238.201 181.428C238.94 181.396 239.569 181.899 239.606 182.551C239.606 182.576 239.607 182.603 239.607 182.625Z" fill="white"/>
<path d="M247.406 182.865L247.002 211.384C247 211.546 246.85 211.675 246.666 211.673C246.49 211.672 246.349 211.548 246.339 211.396L244.728 182.91C244.69 182.257 245.26 181.701 245.999 181.669C246.738 181.636 247.366 182.139 247.404 182.792C247.406 182.815 247.406 182.842 247.406 182.865Z" fill="white"/>
<path d="M256.672 182.846L254.904 211.483C254.894 211.645 254.738 211.769 254.555 211.759C254.379 211.75 254.244 211.622 254.242 211.469L253.995 182.79C253.989 182.137 254.585 181.603 255.324 181.598C256.064 181.592 256.668 182.118 256.674 182.772C256.674 182.795 256.674 182.822 256.672 182.846Z" fill="white"/>
<path d="M169.111 231.469C184.522 230.82 223.98 229.329 238.595 230.41C241.176 230.601 243.154 232.524 243.127 234.812C243.126 234.863 243.126 234.915 243.125 234.967C243.057 239.782 238.802 243.738 233.364 244.047C218.223 244.906 186.875 246.394 170.491 245.078C166.431 244.752 163.128 242.012 162.578 238.443C162.572 238.399 162.566 238.356 162.559 238.312C162.05 234.788 165.093 231.639 169.111 231.469Z" fill="url(#paint19_linear_438_9055)"/>
<path d="M169.071 237.512C177.534 237.911 233.859 239.363 242.376 232.454C241.575 231.321 240.202 230.53 238.594 230.412C223.979 229.33 184.521 230.82 169.11 231.47C166.097 231.597 163.633 233.4 162.802 235.78C163.722 236.643 165.573 237.347 169.071 237.512Z" fill="#F7D33E"/>
<path d="M164.418 225.349C175.313 224.777 218.035 222.726 237.361 224.698C238.836 224.849 239.812 226.127 239.414 227.391C239.109 228.36 238.608 229.514 237.786 230.63C237.266 231.335 236.343 231.561 235.435 231.814C221.766 235.611 189.968 237.451 166.71 232.85C166.71 232.85 163.747 232.664 162.348 227.882C161.987 226.647 162.977 225.425 164.418 225.349Z" fill="url(#paint20_linear_438_9055)"/>
<path d="M182.956 218.864L163.672 223.976C163.253 224.087 163.271 224.615 163.696 224.702C169.179 225.827 187.722 229.753 198.129 233.471C202.513 235.037 207.393 235.126 211.847 233.723C222.151 230.477 239.115 225.066 239.886 224.384C240.997 223.403 236.554 220.581 225.722 219.967C214.891 219.354 182.956 218.864 182.956 218.864Z" fill="#F7D33E"/>
<path d="M165.241 211.681C164.407 213.788 163.642 217.542 167.027 221.687C168.166 223.082 170.003 223.9 171.95 223.91C182.174 223.962 218.131 224.099 230.408 223.514C233.532 223.365 236.343 221.711 237.595 219.178C238.496 217.357 238.64 215.037 236.476 212.45C235.454 211.228 233.828 210.516 232.109 210.501L168.086 209.927C166.812 209.916 165.662 210.618 165.241 211.681Z" fill="url(#paint21_linear_438_9055)"/>
<path d="M177.125 209.539C177.125 209.539 185.178 212.484 189.205 214.815C193.231 217.146 194.481 215.551 198.231 215.919C201.979 216.287 207.95 219.477 210.588 216.901C213.227 214.324 208.366 210.521 215.032 209.785C221.697 209.049 177.125 209.539 177.125 209.539Z" fill="url(#paint22_linear_438_9055)"/>
<path d="M217.993 209.663C217.993 209.663 235.098 206.964 240.015 208.191C244.933 209.418 245.147 210.277 241.513 212.362C237.878 214.448 236.595 214.939 230.609 214.816C224.621 214.693 208.586 213.589 217.993 209.663Z" fill="url(#paint23_linear_438_9055)"/>
<path d="M185.291 210.399C185.291 210.399 168.187 207.7 163.269 208.927C158.352 210.154 158.137 211.013 161.772 213.098C165.407 215.184 166.69 215.674 172.676 215.552C178.663 215.429 194.699 214.325 185.291 210.399Z" fill="url(#paint24_linear_438_9055)"/>
<path d="M197.536 179.482C174.04 180.355 163.338 195.512 161.845 205.114C164.338 206.403 172.79 207.77 200.035 206.841C225.513 205.972 234.846 205.274 238.417 204.042C237.001 195.565 230.124 178.272 197.536 179.482Z" fill="url(#paint25_linear_438_9055)"/>
<path d="M161.845 205.114C161.671 206.232 161.62 207.275 161.69 208.211C161.829 210.066 162.693 211.78 164.79 211.94C176.395 212.824 212.183 214.931 235.318 209.475C237.44 208.974 238.829 207.187 238.593 205.258C238.547 204.878 238.489 204.471 238.417 204.042C234.846 205.274 225.512 205.972 200.035 206.841C172.79 207.77 164.338 206.403 161.845 205.114Z" fill="#F7D33E"/>
<path d="M184.345 182.672C186.591 181.864 186.567 183.408 184.345 184.758C182.123 186.107 180.596 184.022 184.345 182.672Z" fill="#F7D33E"/>
<path d="M191.843 181.813C189.31 181.813 186.428 184.389 189.621 184.021C192.815 183.654 194.204 181.813 191.843 181.813Z" fill="#F7D33E"/>
<path d="M188.233 185.616C186.057 186.097 186.428 187.824 188.788 187.212C191.149 186.598 189.899 185.248 188.233 185.616Z" fill="#F7D33E"/>
<path d="M197.12 180.955C195.456 181.109 194.342 183.286 197.12 182.918C199.897 182.55 199.758 180.709 197.12 180.955Z" fill="#F7D33E"/>
<path d="M194.481 186.23C192.706 186.543 191.287 190.279 194.481 189.91C197.675 189.542 197.258 185.74 194.481 186.23Z" fill="#F7D33E"/>
<path d="M201.701 186.476C200.591 186.607 199.063 190.033 201.146 189.543C203.229 189.052 203.785 186.23 201.701 186.476Z" fill="#F7D33E"/>
<path d="M203.229 181.813C201.701 181.813 200.174 183.163 203.784 183.408C207.395 183.654 205.589 181.813 203.229 181.813Z" fill="#F7D33E"/>
<path d="M210.032 181.813C208.238 181.515 206.977 183.162 209.338 183.285C211.698 183.407 212.254 182.182 210.032 181.813Z" fill="#F7D33E"/>
<path d="M205.867 185.494C205.05 185.013 205.034 186.23 206.562 186.476C208.088 186.721 206.7 185.985 205.867 185.494Z" fill="#F7D33E"/>
<path d="M215.726 184.635C213.959 183.594 210.31 184.267 214.755 185.985C219.197 187.702 217.392 185.616 215.726 184.635Z" fill="#F7D33E"/>
<path d="M177.68 187.334C179.698 186.146 181.012 187.824 178.93 188.806C176.847 189.788 175.597 188.561 177.68 187.334Z" fill="#F7D33E"/>
<path d="M202.91 204.658C202.663 204.658 202.449 204.495 202.418 204.273C202.385 204.032 202.578 203.814 202.851 203.783C203.697 203.691 204.531 203.591 205.33 203.485C205.602 203.45 205.855 203.614 205.895 203.853C205.935 204.093 205.748 204.317 205.477 204.353C204.671 204.459 203.828 204.561 202.972 204.655C202.952 204.657 202.931 204.658 202.91 204.658Z" fill="white"/>
<path d="M192.504 204.821C178.887 204.821 167.082 203.817 166.943 203.805C166.67 203.782 166.471 203.567 166.497 203.326C166.524 203.085 166.765 202.908 167.039 202.932C167.203 202.946 183.65 204.344 200.09 203.83C200.364 203.823 200.594 204.011 200.604 204.253C200.614 204.495 200.4 204.698 200.126 204.707C197.566 204.787 195.003 204.821 192.504 204.821Z" fill="white"/>
<path d="M38.2072 112.26C37.5804 134.587 35.549 211.602 36.5185 238.894C36.6217 241.785 39.2445 244.106 42.5167 244.201C58.7008 244.668 105.259 245.855 131.732 244.873C137.246 244.669 141.63 240.723 141.745 235.847C142.295 212.412 143.508 146.497 140.624 116.302C140.278 112.684 137.065 109.803 132.976 109.442C115.35 107.884 68.537 104.076 45.6661 105.387C41.5422 105.623 38.3103 108.608 38.2072 112.26Z" fill="url(#paint26_linear_438_9055)"/>
<path d="M44.784 119.197C43.8998 137.483 41.112 198.315 41.9971 220.81C42.1267 224.098 45.059 226.756 48.7762 226.948C64.0801 227.74 103.335 229.484 125.783 227.896C129.825 227.61 132.997 224.722 133.215 221.144C134.353 202.489 137.619 145.845 136.77 123.602C136.635 120.054 133.524 117.156 129.522 116.838C112.964 115.525 70.4407 112.4 51.3656 113.32C47.785 113.493 44.9372 116.031 44.784 119.197Z" fill="url(#paint27_linear_438_9055)"/>
<path opacity="0.5" d="M78.2052 109.288C78.2052 109.973 78.8093 110.538 79.5834 110.575C83.4057 110.752 94.1741 111.252 98.9876 111.499C99.9365 111.548 100.681 110.794 100.501 109.97L100.471 109.829C100.348 109.267 99.8197 108.843 99.1743 108.791C95.9207 108.528 86.1052 107.797 79.6011 108.003C78.8201 108.025 78.2052 108.597 78.2052 109.288Z" fill="white"/>
<path opacity="0.5" d="M63.0988 126.29C63.0988 127.216 64.6017 127.98 66.5281 128.027C76.0372 128.266 102.824 128.942 114.794 129.275C117.155 129.341 119.008 128.323 118.56 127.209L118.483 127.019C118.178 126.258 116.864 125.686 115.257 125.616C107.166 125.26 82.7485 124.273 66.5703 124.551C64.6273 124.585 63.0988 125.357 63.0988 126.29Z" fill="white"/>
<path opacity="0.5" d="M63.0988 133.475C63.0988 134.401 64.6017 135.164 66.5281 135.212C76.0372 135.451 102.824 136.127 114.794 136.46C117.155 136.526 119.008 135.508 118.56 134.394L118.483 134.203C118.178 133.443 116.864 132.871 115.257 132.801C107.166 132.445 82.7485 131.459 66.5703 131.736C64.6273 131.77 63.0988 132.542 63.0988 133.475Z" fill="white"/>
<g opacity="0.8">
<path d="M70.1108 173.347C72.2513 178.041 78.5039 181.477 85.8901 181.477H94.4355C101.821 181.477 108.074 178.041 110.215 173.347C110.381 172.984 110.289 172.448 109.969 172.14C109.649 171.832 109.139 171.511 108.597 171.511H71.7297C71.1874 171.511 70.6766 171.832 70.3573 172.14C70.0371 172.448 69.9457 172.985 70.1108 173.347Z" fill="white"/>
<path d="M70.3701 157.169C72.5106 152.475 78.7632 149.086 86.1494 149.086H94.6948C102.08 149.086 108.334 152.475 110.474 157.169C110.64 157.533 110.549 157.842 110.229 158.151C109.908 158.459 109.398 158.556 108.856 158.556H71.989C71.4467 158.556 70.9359 158.46 70.6166 158.152C70.2954 157.842 70.2041 157.532 70.3701 157.169Z" fill="white"/>
<path d="M111.202 167.275C111.202 168.239 110.318 169.019 109.229 169.019H73.1325C72.0421 169.019 71.1589 168.238 71.1589 167.275C71.1589 166.312 72.043 165.532 73.1325 165.532H109.229C110.318 165.532 111.202 166.312 111.202 167.275Z" fill="white"/>
<path d="M77.777 160.354C79.6375 160.354 80.5855 161.169 81.4224 161.888C82.1779 162.538 82.8311 163.099 84.1651 163.099C85.4992 163.099 86.1514 162.538 86.9078 161.888C87.7448 161.169 88.6928 160.354 90.5533 160.354C92.4129 160.354 93.3618 161.169 94.1988 161.888C94.9542 162.538 95.6065 163.099 96.9405 163.099C98.2745 163.099 98.9268 162.538 99.6822 161.888C100.519 161.169 101.467 160.354 103.328 160.354C105.188 160.354 106.136 161.169 106.973 161.888C107.729 162.538 108.381 163.099 109.715 163.099C110.072 163.099 110.362 163.355 110.362 163.671C110.362 163.987 110.072 164.243 109.715 164.243C107.855 164.243 106.906 163.428 106.069 162.708C105.314 162.058 104.662 161.497 103.328 161.497C101.994 161.497 101.341 162.058 100.586 162.708C99.749 163.428 98.801 164.243 96.9405 164.243C95.0799 164.243 94.132 163.428 93.295 162.708C92.5396 162.058 91.8873 161.497 90.5533 161.497C89.2193 161.497 88.567 162.058 87.8106 162.708C86.9737 163.428 86.0257 164.243 84.1651 164.243C82.3056 164.243 81.3566 163.428 80.5197 162.708C79.7643 162.058 79.111 161.497 77.777 161.497C76.443 161.497 75.7907 162.058 75.0343 162.708C74.1973 163.428 73.2484 164.243 71.3888 164.243C71.0312 164.243 70.7415 163.987 70.7415 163.671C70.7415 163.355 71.0312 163.099 71.3888 163.099C72.7228 163.099 73.3761 162.538 74.1315 161.888C74.9685 161.169 75.9174 160.354 77.777 160.354Z" fill="white"/>
</g>
<path d="M59.5879 196.33H117.118C121.243 196.33 124.402 199.573 123.786 203.177L122.771 209.119C122.273 212.034 119.439 214.188 116.103 214.188H59.5889C55.8648 214.188 52.8451 211.521 52.8451 208.229V202.287C52.8441 198.997 55.8628 196.33 59.5879 196.33Z" fill="#E051B8"/>
<path d="M67.9004 209.64C64.6499 209.64 62.6027 207.672 62.6027 205.092C62.6027 202.339 64.8306 200.358 68.0664 200.358C71.4074 200.358 73.4398 202.313 73.4398 204.933C73.4398 207.726 71.2119 209.641 67.9161 209.641H67.9004V209.64ZM68.0213 207.991C69.8121 207.991 70.8956 206.714 70.8956 204.999C70.8956 203.377 69.8268 202.008 68.0213 202.008C66.2147 202.008 65.1469 203.35 65.1469 205.026C65.1469 206.688 66.2609 207.992 68.0065 207.992H68.0213V207.991Z" fill="white"/>
<path d="M75.0499 200.637C75.8329 200.53 77.0215 200.438 78.4066 200.438C80.0471 200.438 81.1306 200.663 81.8831 201.155C82.4853 201.555 82.8615 202.206 82.8615 203.044C82.8615 204.241 81.8075 205.013 80.9951 205.238V205.291C81.7023 205.544 82.109 206.143 82.3949 206.913C82.7407 207.937 83.057 209.121 83.2682 209.48H80.8153C80.6493 209.214 80.3939 208.562 80.0628 207.405C79.7465 206.288 79.2799 205.996 78.2416 205.983H77.4292V209.481H75.0509V200.637H75.0499ZM77.4282 204.48H78.5117C79.7455 204.48 80.4833 204.001 80.4833 203.217C80.4833 202.379 79.7455 201.993 78.6473 201.993C77.9704 201.993 77.6089 202.033 77.4282 202.06V204.48Z" fill="white"/>
<path d="M84.5914 200.637C85.5551 200.504 86.7742 200.438 88.0385 200.438C90.1908 200.438 91.5759 200.77 92.6594 201.448C93.7734 202.14 94.4954 203.203 94.4954 204.746C94.4954 206.435 93.7429 207.592 92.7341 208.323C91.5454 209.187 89.6937 209.587 87.5119 209.587C86.1425 209.587 85.2093 209.52 84.5924 209.44V200.637H84.5914ZM86.9844 207.911C87.2104 207.951 87.6013 207.951 87.9324 207.951C90.401 207.978 91.9511 206.887 91.9511 204.853C91.9511 202.978 90.4914 202.047 88.2487 202.047C87.617 202.047 87.2104 202.1 86.9844 202.14V207.911Z" fill="white"/>
<path d="M102.698 205.744H98.4985V207.765H103.194V209.48H96.1055V200.517H102.953V202.232H98.4985V204.027H102.698V205.744Z" fill="white"/>
<path d="M104.834 200.637C105.617 200.53 106.806 200.438 108.191 200.438C109.832 200.438 110.915 200.663 111.668 201.155C112.27 201.555 112.646 202.206 112.646 203.044C112.646 204.241 111.592 205.013 110.78 205.238V205.291C111.487 205.544 111.894 206.143 112.179 206.913C112.525 207.937 112.842 209.121 113.053 209.48H110.6C110.434 209.214 110.178 208.562 109.847 207.405C109.531 206.288 109.064 205.996 108.026 205.983H107.214V209.481H104.835V200.637H104.834ZM107.213 204.48H108.296C109.53 204.48 110.268 204.001 110.268 203.217C110.268 202.379 109.53 201.993 108.432 201.993C107.755 201.993 107.393 202.033 107.213 202.06V204.48Z" fill="white"/>
<path d="M66.8581 228.027L69.3386 211.588C69.4054 211.146 68.7727 210.7 68.3002 210.854L50.6957 216.606C50.2939 216.737 50.3096 217.221 50.7252 217.514L53.1771 219.247C53.4924 219.47 53.5926 219.821 53.402 220.032L42.6061 231.96C42.4146 232.171 42.5157 232.523 42.8311 232.745L50.7684 238.354C51.0837 238.577 51.4943 238.586 51.6849 238.375L62.4808 226.447C62.6724 226.236 63.082 226.246 63.3974 226.468L65.8493 228.201C66.2648 228.495 66.8012 228.402 66.8581 228.027Z" fill="white"/>
<path d="M51.2901 239.172C50.96 239.172 50.6133 239.068 50.3127 238.856L42.3753 233.247C42.1003 233.052 41.9038 232.789 41.8223 232.506C41.7241 232.163 41.8026 231.817 42.0364 231.559L52.7253 219.75C52.7243 219.749 52.7233 219.748 52.7223 219.748L50.2704 218.015C49.8333 217.706 49.6123 217.243 49.6918 216.807C49.7596 216.435 50.0406 216.134 50.4433 216.003L68.0479 210.251C68.5115 210.1 69.0449 210.191 69.4752 210.495C69.9055 210.8 70.1235 211.239 70.0587 211.672L67.5783 228.111C67.5213 228.487 67.2512 228.795 66.8553 228.935C66.3906 229.1 65.8307 229.01 65.3946 228.702L62.9436 226.971C62.9426 226.97 62.9416 226.969 62.9407 226.969L52.2518 238.777C52.0141 239.04 51.6624 239.172 51.2901 239.172ZM43.2811 232.242C43.282 232.243 43.283 232.243 43.284 232.244L51.2213 237.852C51.2223 237.853 51.2233 237.854 51.2243 237.855L61.9121 226.046C62.3611 225.551 63.2128 225.516 63.8513 225.966L66.1863 227.616L68.6127 211.539C68.5921 211.512 68.5469 211.481 68.5135 211.469L51.296 217.094L53.631 218.744C54.2695 219.196 54.4179 219.937 53.9699 220.432L43.2811 232.242ZM66.1382 227.942V227.943V227.942Z" fill="url(#paint28_linear_438_9055)"/>
<defs>
<linearGradient id="paint0_linear_438_9055" x1="316.863" y1="318.619" x2="107.816" y2="24.7824" gradientUnits="userSpaceOnUse">
<stop stop-color="#FF42D8"/>
<stop offset="1" stop-color="#8D07E0"/>
</linearGradient>
<linearGradient id="paint1_linear_438_9055" x1="78.7141" y1="23.7728" x2="57.723" y2="192.566" gradientUnits="userSpaceOnUse">
<stop offset="0.0725" stop-color="#C21D17"/>
<stop offset="0.08" stop-color="#BB1B15"/>
<stop offset="0.124" stop-color="#98110B"/>
<stop offset="0.1599" stop-color="#820A05"/>
<stop offset="0.1831" stop-color="#7A0803"/>
</linearGradient>
<linearGradient id="paint2_linear_438_9055" x1="9.77492" y1="6.0018" x2="39.5339" y2="161.996" gradientUnits="userSpaceOnUse">
<stop offset="0.3143" stop-color="#1BE060"/>
<stop offset="0.3817" stop-color="#16D358"/>
<stop offset="0.5054" stop-color="#0BB245"/>
<stop offset="0.5991" stop-color="#009433"/>
</linearGradient>
<linearGradient id="paint3_linear_438_9055" x1="126.115" y1="135.655" x2="-121.207" y2="137.803" gradientUnits="userSpaceOnUse">
<stop stop-color="#43C4C5"/>
<stop offset="1" stop-color="#003CCA"/>
</linearGradient>
<linearGradient id="paint4_linear_438_9055" x1="28.7013" y1="141.853" x2="338.011" y2="123.729" gradientUnits="userSpaceOnUse">
<stop stop-color="#43C4C5"/>
<stop offset="1" stop-color="#003CCA"/>
</linearGradient>
<linearGradient id="paint5_linear_438_9055" x1="187.313" y1="137.892" x2="506.75" y2="137.892" gradientUnits="userSpaceOnUse">
<stop stop-color="#62ACFF"/>
<stop offset="1" stop-color="#0071CA"/>
</linearGradient>
<linearGradient id="paint6_linear_438_9055" x1="398.33" y1="-154.553" x2="40.3856" y2="410.413" gradientUnits="userSpaceOnUse">
<stop stop-color="#53D8FF"/>
<stop offset="1" stop-color="#3840F7"/>
</linearGradient>
<linearGradient id="paint7_linear_438_9055" x1="99.4682" y1="62.8408" x2="86.0775" y2="115.885" gradientUnits="userSpaceOnUse">
<stop stop-color="#53D8FF"/>
<stop offset="1" stop-color="#3840F7"/>
</linearGradient>
<linearGradient id="paint8_linear_438_9055" x1="266.397" y1="127.693" x2="259.801" y2="209.32" gradientUnits="userSpaceOnUse">
<stop stop-color="#53D8FF"/>
<stop offset="1" stop-color="#3840F7"/>
</linearGradient>
<linearGradient id="paint9_linear_438_9055" x1="127.896" y1="149.871" x2="106.658" y2="212.009" gradientUnits="userSpaceOnUse">
<stop stop-color="#53D8FF"/>
<stop offset="1" stop-color="#3840F7"/>
</linearGradient>
<linearGradient id="paint10_linear_438_9055" x1="158.841" y1="24.7968" x2="155.733" y2="60.2722" gradientUnits="userSpaceOnUse">
<stop stop-color="#C21D17"/>
<stop offset="1" stop-color="#7A0803"/>
</linearGradient>
<linearGradient id="paint11_linear_438_9055" x1="200.442" y1="112.022" x2="264.624" y2="7.33382" gradientUnits="userSpaceOnUse">
<stop stop-color="#8F1A15"/>
<stop offset="0.0419" stop-color="#861C17"/>
<stop offset="0.191" stop-color="#69211E"/>
<stop offset="0.3511" stop-color="#532623"/>
<stop offset="0.5251" stop-color="#432926"/>
<stop offset="0.7236" stop-color="#3A2A28"/>
<stop offset="1" stop-color="#372B29"/>
</linearGradient>
<linearGradient id="paint12_linear_438_9055" x1="273.284" y1="3.98191" x2="182.657" y2="86.2039" gradientUnits="userSpaceOnUse">
<stop stop-color="#8F1A15"/>
<stop offset="1" stop-color="#372B29"/>
</linearGradient>
<linearGradient id="paint13_linear_438_9055" x1="210.487" y1="44.3733" x2="143.885" y2="150.059" gradientUnits="userSpaceOnUse">
<stop stop-color="#8F1A15"/>
<stop offset="0.0652" stop-color="#8A1B16"/>
<stop offset="0.1402" stop-color="#7C1E19"/>
<stop offset="0.22" stop-color="#65221E"/>
<stop offset="0.3027" stop-color="#452826"/>
<stop offset="0.3342" stop-color="#372B29"/>
</linearGradient>
<linearGradient id="paint14_linear_438_9055" x1="100.289" y1="136.969" x2="219.596" y2="2.34271" gradientUnits="userSpaceOnUse">
<stop stop-color="#C21D17"/>
<stop offset="1" stop-color="#7A0803"/>
</linearGradient>
<linearGradient id="paint15_linear_438_9055" x1="266.518" y1="168.418" x2="177.172" y2="280.207" gradientUnits="userSpaceOnUse">
<stop stop-color="#F9C200"/>
<stop offset="0.9964" stop-color="#9B1E5F"/>
</linearGradient>
<linearGradient id="paint16_linear_438_9055" x1="243.233" y1="138.517" x2="242.401" y2="157.967" gradientUnits="userSpaceOnUse">
<stop stop-color="#8F1A15"/>
<stop offset="1" stop-color="#372B29"/>
</linearGradient>
<linearGradient id="paint17_linear_438_9055" x1="248.231" y1="142.032" x2="237.571" y2="191.243" gradientUnits="userSpaceOnUse">
<stop stop-color="#8F1A15"/>
<stop offset="1" stop-color="#372B29"/>
</linearGradient>
<linearGradient id="paint18_linear_438_9055" x1="254.836" y1="181.394" x2="183.003" y2="261.293" gradientUnits="userSpaceOnUse">
<stop stop-color="#E0CD67"/>
<stop offset="1" stop-color="#F7624D"/>
</linearGradient>
<linearGradient id="paint19_linear_438_9055" x1="202.383" y1="258.674" x2="203.185" y2="205.119" gradientUnits="userSpaceOnUse">
<stop stop-color="#E0CD4E"/>
<stop offset="1" stop-color="#F76025"/>
</linearGradient>
<linearGradient id="paint20_linear_438_9055" x1="200.889" y1="221.064" x2="200.889" y2="228.303" gradientUnits="userSpaceOnUse">
<stop offset="0.0292" stop-color="#8F1A15"/>
<stop offset="1" stop-color="#372B29"/>
</linearGradient>
<linearGradient id="paint21_linear_438_9055" x1="198.092" y1="229.498" x2="203.489" y2="200.485" gradientUnits="userSpaceOnUse">
<stop offset="0.1045" stop-color="#C21D17"/>
<stop offset="0.4793" stop-color="#7A0803"/>
</linearGradient>
<linearGradient id="paint22_linear_438_9055" x1="177.125" y1="213.638" x2="215.711" y2="213.638" gradientUnits="userSpaceOnUse">
<stop stop-color="#1BE060"/>
<stop offset="1" stop-color="#009433"/>
</linearGradient>
<linearGradient id="paint23_linear_438_9055" x1="215.101" y1="211.352" x2="244.003" y2="211.352" gradientUnits="userSpaceOnUse">
<stop stop-color="#1BE060"/>
<stop offset="1" stop-color="#009433"/>
</linearGradient>
<linearGradient id="paint24_linear_438_9055" x1="188.184" y1="212.088" x2="159.282" y2="212.088" gradientUnits="userSpaceOnUse">
<stop stop-color="#1BE060"/>
<stop offset="1" stop-color="#009433"/>
</linearGradient>
<linearGradient id="paint25_linear_438_9055" x1="148.541" y1="217.657" x2="258.788" y2="161.934" gradientUnits="userSpaceOnUse">
<stop stop-color="#E0CD67"/>
<stop offset="1" stop-color="#F7624D"/>
</linearGradient>
<linearGradient id="paint26_linear_438_9055" x1="36.2612" y1="175.184" x2="142.473" y2="175.184" gradientUnits="userSpaceOnUse">
<stop stop-color="#564DF7"/>
<stop offset="1" stop-color="#2205F7"/>
</linearGradient>
<linearGradient id="paint27_linear_438_9055" x1="32.4331" y1="170.848" x2="215.652" y2="170.848" gradientUnits="userSpaceOnUse">
<stop stop-color="#E0CD67"/>
<stop offset="1" stop-color="#F7624D"/>
</linearGradient>
<linearGradient id="paint28_linear_438_9055" x1="71.2609" y1="210.462" x2="37.308" y2="251.839" gradientUnits="userSpaceOnUse">
<stop stop-color="#047EE0"/>
<stop offset="1" stop-color="#221AF7"/>
</linearGradient>
</defs>
</svg>
